<svg width="17" height="14" viewBox="0 0 17 14" fill="none" xmlns="http://www.w3.org/2000/svg">
<rect width="17" height="14" fill="black" fill-opacity="0"/>
<rect width="17" height="14" fill="black" fill-opacity="0"/>
<rect width="17" height="14" fill="black" fill-opacity="0"/>
<rect width="17" height="14" fill="black" fill-opacity="0"/>
<path d="M9.21347 10.121C9.00575 10.3165 9.00575 10.633 9.21347 10.828C9.42122 11.0235 9.75747 11.0235 9.96467 10.828L13.6297 7.37801C13.7403 7.27399 13.7876 7.1355 13.7801 6.99948C13.7876 6.86298 13.7402 6.72499 13.6297 6.62099L9.96467 3.1715C9.75747 2.976 9.42067 2.976 9.21347 3.1715C9.00575 3.36701 9.00575 3.6835 9.21347 3.87848L11.9988 6.49997H0.53125C0.238 6.5 0 6.724 0 7C0 7.276 0.238 7.5 0.53125 7.5H11.9988L9.21347 10.121ZM14.875 0H4.25C3.07647 0 2.125 0.895503 2.125 2V4H3.1875V2C3.1875 1.448 3.66297 1 4.25 1H14.875C15.462 1 15.9375 1.448 15.9375 2V12C15.9375 12.552 15.462 13 14.875 13H4.25C3.66297 13 3.1875 12.5525 3.1875 12V10H2.125V12C2.125 13.1045 3.07647 14 4.25 14H14.875C16.0485 14 17 13.1045 17 12V2C17 0.895503 16.0485 0 14.875 0Z" fill="white"/>
</svg>
