<svg width="159" height="41" viewBox="0 0 159 41" fill="none" xmlns="http://www.w3.org/2000/svg">
<rect width="40.1539" height="158.125" fill="black" fill-opacity="0" transform="translate(158.763 0.32489) rotate(90)"/>
<path fill-rule="evenodd" clip-rule="evenodd" d="M6.0163 29.9966L10.1699 30.0105L16.1193 18.7227C16.256 18.4355 16.6336 18.2141 16.8694 18.4182L21.9884 29.2078C23.4766 31.0501 27.7105 30.3772 30.1658 26.7513L37.0498 13.8322L32.9218 13.8183L27.2492 24.6494C26.9998 25.1044 26.588 25.3621 26.3488 25.1182L21.1956 14.6124C19.5724 12.1697 15.0993 13.8132 12.8917 16.953L6.0163 29.9966Z" fill="white"/>
<path fill-rule="evenodd" clip-rule="evenodd" d="M26.8017 3.58926C24.8607 4.03731 23.6288 4.47844 21.7988 5.19636C10.9457 9.49696 0.62233 20.5789 0.639416 30.6349C0.499313 38.5442 8.85782 43.3084 20.9104 38.6307C34.0991 32.9946 42.063 21.8452 42.4201 13.7941C42.6063 9.91042 41.2121 6.58723 38.2049 4.8227L35.6301 5.86931C38.9994 7.69784 40.0434 9.40873 40.4176 13.5087C41.0378 20.5944 32.4435 32.3476 20.9445 36.989C10.4246 41.165 2.85717 37.1827 2.57354 29.8876C2.7649 21.5459 10.2435 11.6992 21.8364 6.73427C23.4698 6.0596 24.5155 5.74993 26.0396 5.33302C24.9273 6.97126 23.4289 8.46593 21.2111 10.0332L40.2638 2.46654L26.6479 0.32489C27.2784 1.28154 27.2664 2.44578 26.8017 3.58926Z" fill="white"/>
<path fill-rule="evenodd" clip-rule="evenodd" d="M62.7188 30.2855L57.3213 30.2665L55.493 27.0627C55.3324 26.7409 55.018 26.5403 54.5499 26.5299L46.1589 26.5022C45.6941 26.4728 45.402 26.6458 45.1406 26.9762L43.3397 30.2198L38.0823 30.2025L46.4613 15.941C47.3276 14.7127 48.3493 13.8685 50.1382 13.8426C51.8332 13.8755 53.3043 14.4325 54.1347 15.8061L62.7188 30.2855ZM53.359 23.3105L50.7499 18.5826C50.415 18.1778 49.9486 18.3023 49.7384 18.5947L47.1823 23.2517C47.1003 23.5596 47.2763 23.7257 47.5548 23.7464L53.0138 23.7655C53.3094 23.7343 53.4239 23.6063 53.359 23.3105Z" fill="white"/>
<path fill-rule="evenodd" clip-rule="evenodd" d="M68.1278 28.5452L60.3417 13.8772L65.7221 13.8945L71.6305 25.5455C71.815 25.7358 71.9978 25.7358 72.1447 25.5421L77.9421 13.936L83.2012 13.9533L75.3176 28.5435C74.5248 29.8029 73.4057 30.3496 71.6903 30.4101C70.1132 30.3755 68.9667 29.8461 68.1278 28.5452Z" fill="white"/>
<path fill-rule="evenodd" clip-rule="evenodd" d="M85.525 30.3617L85.5797 13.9619L90.5347 13.9775L90.4817 30.379L85.525 30.3617Z" fill="white"/>
<path fill-rule="evenodd" clip-rule="evenodd" d="M93.9685 25.056L98.7936 24.755C99.0755 25.8414 99.6615 26.6371 100.552 27.1474C101.437 27.6543 102.629 27.9155 104.138 27.9207C105.734 27.9259 106.94 27.7045 107.748 27.253C108.562 26.8049 108.968 26.279 108.97 25.6753C108.972 25.286 108.801 24.9574 108.459 24.684C108.123 24.409 107.53 24.1702 106.679 23.9678C106.101 23.8294 104.777 23.5873 102.713 23.2378C100.058 22.7898 98.1956 22.2414 97.1294 21.5961C95.6224 20.6896 94.8723 19.5877 94.8757 18.2885C94.8791 17.4529 95.2362 16.6745 95.947 15.9479C96.6578 15.2248 97.683 14.6747 99.0157 14.2976C100.355 13.9239 101.961 13.7388 103.848 13.744C106.935 13.7544 109.249 14.2128 110.807 15.1193C112.358 16.0309 113.172 17.235 113.247 18.7435L108.29 18.8732C108.082 18.0273 107.625 17.4201 106.93 17.0499C106.235 16.6779 105.189 16.4911 103.793 16.4859C102.353 16.4807 101.22 16.6728 100.408 17.0672C99.8802 17.3163 99.6171 17.6553 99.6154 18.0792C99.6137 18.4684 99.8597 18.8023 100.35 19.0791C100.972 19.432 102.491 19.8039 104.902 20.1897C107.313 20.5806 109.095 20.9785 110.248 21.3885C111.401 21.8003 112.304 22.3573 112.958 23.0648C113.607 23.7741 113.93 24.646 113.927 25.6805C113.923 26.6198 113.532 27.5003 112.746 28.3151C111.96 29.1334 110.855 29.7406 109.425 30.1333C107.994 30.5295 106.211 30.7215 104.078 30.7146C100.974 30.7042 98.592 30.2198 96.9312 29.2545C95.2721 28.2909 94.2811 26.8897 93.9685 25.056Z" fill="white"/>
<path fill-rule="evenodd" clip-rule="evenodd" d="M118.088 29.526L118.135 14.9687C118.159 14.5778 118.66 14.0934 119.133 14.0743L136.339 14.1332L136.329 16.9097L123.728 16.8664C123.396 16.8768 123.099 17.1017 123.089 17.4356L123.075 19.9007C123.089 20.1966 123.379 20.4924 123.716 20.501L135.398 20.5408L135.387 23.6374L123.68 23.5976C123.359 23.6166 123.075 23.8398 123.061 24.1598L123.051 27.1266C123.066 27.4328 123.391 27.7062 123.717 27.7269L136.763 27.7702L136.752 30.5346L119.041 30.4758C118.545 30.4343 118.093 29.962 118.088 29.526Z" fill="white"/>
<path fill-rule="evenodd" clip-rule="evenodd" d="M146.482 30.5675L146.524 17.5792C146.495 17.2246 146.171 16.9634 145.781 16.9409L139.244 16.9184L139.254 14.1436L158.763 14.2093L158.755 16.9841L152.209 16.9634C151.893 16.9703 151.51 17.2298 151.486 17.5965L151.443 30.5848L146.482 30.5675Z" fill="white"/>
</svg>
