<svg id="Слой_1" xmlns="http://www.w3.org/2000/svg" viewBox="0 0 255 206" enable-background="new 0 0 255 206"><style>.st0{fill-opacity:0}.st1{fill:#65a7ff}.st4{fill:#fff}</style><path class="st0" d="M255 206H0V0"/><path class="st0" d="M0 0h255v206"/><path class="st1" d="M15 0h225c8.3 0 15 6.7 15 15v176c0 8.3-6.7 15-15 15H15c-8.3 0-15-6.7-15-15V15C0 6.7 6.7 0 15 0z"/><path class="st0" d="M23 6h155.9v139H23z"/><defs><filter id="Adobe_OpacityMaskFilter" filterUnits="userSpaceOnUse" x="26" y="54" width="55" height="94"><feColorMatrix values="1 0 0 0 0 0 1 0 0 0 0 0 1 0 0 0 0 0 1 0"/></filter></defs><mask maskUnits="userSpaceOnUse" x="26" y="54" width="55" height="94" id="path-2-inside-1"><path d="M34 59h39c1.7 0 3 1.3 3 3v78c0 1.7-1.3 3-3 3H34c-1.7 0-3-1.3-3-3V62c0-1.7 1.3-3 3-3z" fill="#fff" filter="url(#Adobe_OpacityMaskFilter)"/></mask><path d="M34 59h39c1.7 0 3 1.3 3 3v78c0 1.7-1.3 3-3 3H34c-1.7 0-3-1.3-3-3V62c0-1.7 1.3-3 3-3z" mask="url(#path-2-inside-1)" fill="none" stroke="#fff" stroke-width="10"/><path class="st4" d="M60.6 103H46c-1.5 0-2.7 1.2-2.7 2.7 0 1.5 1.2 2.7 2.7 2.7h14.6c1.5 0 2.7-1.2 2.7-2.7 0-1.5-1.2-2.7-2.7-2.7zm-35.1 37h56c1.4 0 2.5 1.1 2.5 2.5s-1.1 2.5-2.5 2.5h-56c-1.4 0-2.5-1.1-2.5-2.5s1.1-2.5 2.5-2.5z"/><path class="st0" d="M38 6h140.9v91.8H38z"/><path d="M46.1 81.4l116.3-67.2c3.1-1.8 7.1-.7 8.9 2.4 1.8 3.1.7 7.1-2.4 8.9L52.6 92.7c-3.1 1.8-7.1.7-8.9-2.4-1.7-3.1-.7-7.1 2.4-8.9z" fill="none" stroke="#fff" stroke-width="5"/><path transform="rotate(-75.001 81.756 67.569)" class="st4" d="M72.1 64.9h19.3v5.3H72.1z"/><path transform="rotate(-75.001 95.368 59.293)" class="st4" d="M86.1 56.7h18.5V62H86.1z"/><path transform="rotate(-75.001 114.942 48.293)" class="st4" d="M105.7 45.7h18.5V51h-18.5z"/><path transform="rotate(-75.001 127.942 40.293)" class="st4" d="M118.7 37.7h18.5V43h-18.5z"/><path transform="rotate(-75.001 148.943 28.293)" class="st4" d="M139.7 25.7h18.5V31h-18.5z"/><path transform="rotate(-75.001 161.943 21.293)" class="st4" d="M152.7 18.7h18.5V24h-18.5z"/><circle class="st4" cx="53.5" cy="83.5" r="13.5"/><path class="st0" d="M146 80h84v111h-84z"/><path class="st0" d="M146 80h84v111h-84z"/><path class="st4" d="M199.4 172.5c-3.6 0-6.5 2.9-6.5 6.5s2.9 6.5 6.5 6.5 6.5-2.9 6.5-6.5-2.9-6.5-6.5-6.5zm0 9.2c-1.5 0-2.8-1.2-2.8-2.8 0-1.5 1.2-2.8 2.8-2.8 1.5 0 2.8 1.2 2.8 2.8 0 1.6-1.2 2.8-2.8 2.8zm8.4-33.3c4.1 0 7.4-3.3 7.4-7.4 0-4.1-3.3-7.4-7.4-7.4-4.1 0-7.4 3.3-7.4 7.4 0 4.1 3.3 7.4 7.4 7.4zm0-11.1c2 0 3.7 1.7 3.7 3.7s-1.7 3.7-3.7 3.7-3.7-1.7-3.7-3.7 1.6-3.7 3.7-3.7zm-44.5-35.1c.5 0 .9-.2 1.3-.5l3.7-3.7c.7-.7.7-1.9 0-2.6-.7-.7-1.9-.7-2.6 0L162 99c-.7.7-.7 1.9 0 2.6.4.4.8.6 1.3.6z"/><path class="st4" d="M230 135c0-1.6-.6-3.2-1.8-4.3l-1-1c1.8-1.6 2.8-3.8 2.8-6.2 0-4.6-3.7-8.3-8.3-8.3-.3 0-.7 0-1 .1 0-.3.1-.7.1-1 0-4.6-3.7-8.3-8.3-8.3-.3 0-.7 0-1 .1 0-.3.1-.7.1-1 0-4.6-3.7-8.3-8.3-8.3-.3 0-.7 0-1 .1 0-.3.1-.7.1-1 0-4.6-3.7-8.3-8.3-8.3-2.4 0-4.7 1.1-6.2 2.8l-1.5-1.5-7-7c-2.4-2.4-6.3-2.4-8.6 0L148 104.7c-2.4 2.4-2.4 6.2 0 8.6l7 7 9.1 9.1c-2.5 1.4-4.2 4.1-4.2 7.2 0 2.9 1.5 5.4 3.7 6.9.1.1.2.3.4.4l19.9 19.8v3.3H180v24h48.1v-24.1h-3.7v-5.6c3.5-3 5.6-7.3 5.6-12 0-3.2-1-6.3-2.8-9l1.1-1.1c1.1-1 1.7-2.5 1.7-4.2zm-3.7-11.5c0 1.4-.7 2.7-1.7 3.6l-6.5-6.5a4.6 4.6 0 0 1 3.6-1.7c2.5-.1 4.6 2 4.6 4.6zm-9.3-9.3c0 1.4-.7 2.7-1.7 3.6l-6.5-6.5a4.6 4.6 0 0 1 3.6-1.7c2.6 0 4.6 2.1 4.6 4.6zm-9.2-9.2c0 1.4-.7 2.7-1.7 3.6l-6.5-6.5a4.6 4.6 0 0 1 3.6-1.7c2.5-.1 4.6 2 4.6 4.6zm-13.9-13.9c2.6 0 4.6 2.1 4.6 4.6 0 1.4-.7 2.7-1.7 3.6l-6.5-6.5c.8-1 2.2-1.7 3.6-1.7zm-43.5 19.5c-.9-.9-.9-2.5 0-3.4l22.8-22.8c.2-.2.5-.4.8-.5.1-.1.3-.1.4-.1.3-.1.7-.1 1 0 .1 0 .3 0 .4.1.3.1.6.3.8.5l4.4 4.3-26.2 26.2-4.4-4.3zm33.2-19.2l2.2 2.2 9.3 9.3 1.1 1.1 8.2 8.2 1.1 1.1 8.2 8.2 1.1 1.1 9.3 9.3 1.7 1.7c.9.9.9 2.5 0 3.4l-.8.8-22 22c-.9.9-2.5.9-3.4 0L184.8 145h1.8c4.6 0 8.3-3.7 8.3-8.3 0-4.6-3.7-8.3-8.3-8.3H168l-10.6-10.6 26.2-26.4zM167 131.9l.8-.1h18.7c2.6 0 4.6 2.1 4.6 4.6 0 2.6-2.1 4.6-4.6 4.6H168c-2.6 0-4.6-2.1-4.6-4.6-.1-2.2 1.5-4 3.6-4.5zm16.7 55.4v-16.7h15.6c5.7 0 10.3 4.6 10.3 10.3v6.3h-25.9zm40.7 0h-11.1V181c0-4.1-1.8-7.7-4.6-10.3h15.7v16.6zm.1-44.2c1.2 1.9 1.8 4.1 1.8 6.3 0 3.8-1.8 7.3-4.8 9.6l-.7.6v7.4h-33.3v-5l-.7-.6c-.1-.1-.2-.1-.3-.3L170 144.7h9.4l17.4 17.4c1.2 1.2 2.8 1.8 4.3 1.8 1.6 0 3.1-.6 4.3-1.8l19.1-19z"/><circle class="st4" cx="182.5" cy="115.5" r="11.5"/><path transform="rotate(-14.999 182.87 115.29)" class="st0" d="M173.8 106.2h18.1v18.1h-18.1z"/><path transform="rotate(-30 182.848 115.29)" class="st0" d="M175.5 107.9h14.8v14.8h-14.8z"/><path transform="rotate(-30 182.848 115.29)" class="st0" d="M175.5 107.9h14.8v14.8h-14.8z"/><path class="st1" d="M187.4 115.4c-.7-.2-1.2.1-1.4.8-.1.5-.3 1-.4 1.5 0 .1-.1.2-.2.2h-.8c-1.3 0-2.5-.3-3.6-.8-.6-.2-1.1-.5-1.6-.9-.1-.1-.1-.1-.1-.3.1-.5.3-1 .4-1.5.2-.7-.1-1.2-.8-1.4l-1.2-.3-1.2-.3c-.7-.2-1.2.1-1.4.8-.1.5-.3 1-.4 1.5-.1.5-.1.9.1 1.3.3.7.9 1.2 1.4 1.7 1.2 1 2.6 1.7 4 2.2 2 .7 4 1 6.1.9.9-.1 1.9-.2 2.7-.7.6-.3 1-.7 1.1-1.4.1-.5.2-.9.4-1.4.2-.7-.1-1.2-.8-1.4-.7 0-1.5-.3-2.3-.5zm-1.8-1.8l.9-.7c-.7-.8-1.6-1.4-2.6-1.7-1.1-.3-2.2-.2-3.2.2l.4 1.1c.8-.3 1.7-.4 2.5-.2s1.5.7 2 1.3zm-.9-5.2c-1.8-.5-3.6-.4-5.4.3l.4 1.1c1.5-.6 3.1-.7 4.6-.3 1.5.4 2.8 1.2 3.7 2.4l.9-.7c-1-1.4-2.5-2.3-4.2-2.8z"/><path fill="none" stroke="#fff" stroke-width="2" stroke-dasharray="2,2" d="M82.4 98.1l67.6 25.8"/><path class="st4" d="M204.1 11.9c-.6-.6-1.5-.6-2.1 0l-9.5 9.5c-.6.6-.6 1.5 0 2.1.6.6 1.5.6 2.1 0l8.5-8.5 8.5 8.5c.6.6 1.5.6 2.1 0 .6-.6.6-1.5 0-2.1l-9.6-9.5zm.4 47.1V13h-3v46h3z"/></svg>