<svg id="Слой_1" xmlns="http://www.w3.org/2000/svg" viewBox="0 0 255 206"><style>.st0{fill-opacity:0}.st2{fill:#fff}.st3{fill:#ef4e4e}</style><path class="st0" d="M0 0h255v206H0z"/><path d="M15 0h225c8.3 0 15 6.7 15 15v176c0 8.3-6.7 15-15 15H15c-8.3 0-15-6.7-15-15V15C0 6.7 6.7 0 15 0z" fill="#65a7ff"/><path class="st0" d="M45 13h169v180H45z"/><path class="st0" d="M45 13h169v180H45z"/><path class="st2" d="M106.5 127.9l-1.3 12.1c-.1 1 .2 1.9.9 2.7.7.7 1.6 1.1 2.6 1.1h36.8c1 0 1.9-.4 2.6-1.1.7-.7 1-1.7.9-2.7l-1.3-12.1h45.8c7.1 0 12.9-5.8 12.9-12.9V25.9c0-7.1-5.8-12.9-12.9-12.9H57.9C50.8 13 45 18.8 45 25.9v89.2c0 7.1 5.8 12.9 12.9 12.9h48.6zm35.1 9h-29l1-9h27.1l.9 9zm-83.7-117h135.5c3.3 0 6 2.7 6 5.9v78.5H52V25.9c0-3.3 2.6-6 5.9-6zM52 115.1v-3.7h147.4v3.7c0 3.3-2.7 5.9-6 5.9H57.9c-3.3 0-5.9-2.7-5.9-5.9zm141.3 52c.6-1 .7-2.3.1-3.4l-6.9-13.2c-.6-1.1-1.8-1.9-3.1-1.9H67.9c-1.3 0-2.5.7-3.1 1.9l-6.9 13.2c-.6 1.1-.5 2.4.1 3.4s1.8 1.7 3 1.7h129.4c1.2 0 2.3-.7 2.9-1.7zm-126.6-5.3l3.3-6.2h111.4l3.3 6.2h-118zM199.4 175h-5.6c-8.1 0-14.6 6.5-14.6 14.5 0 1.9 1.6 3.5 3.5 3.5h27.8c1.9 0 3.5-1.6 3.5-3.5 0-8-6.6-14.5-14.6-14.5zM187 186.1c1.3-2.5 3.8-4.2 6.8-4.2h5.6c3 0 5.5 1.7 6.8 4.2H187z"/><path class="st0" d="M143 88h9v12h-9z"/><path class="st0" d="M143 88h9v12h-9z"/><path class="st0" d="M143 88h9v12h-9z"/><path class="st2" d="M152 93.8c0-.2-.1-.3-.2-.4l-8.1-5.3c-.1-.1-.3-.1-.4 0-.1.1-.2.2-.2.4v9.4c0 .2.1.3.2.4.1.1.3.1.5 0l2.3-1.7 2.1 3.3c.1.1.2.2.4.2.1 0 .2 0 .2-.1l2.2-1.3c.1-.1.2-.2.2-.3 0-.1 0-.2-.1-.3l-2-3.1 2.7-.8c.1-.1.2-.2.2-.4z"/><path class="st0" d="M64 25h74v74H64z"/><path class="st0" d="M64 25h74v74H64z"/><path class="st0" d="M64 25h74v74H64z"/><path class="st2" d="M129.3 30.8h-3.5V25H120v5.8H81.9V25h-5.8v5.8h-3.5c-4.8 0-8.7 3.9-8.7 8.7v50.9c0 4.8 3.9 8.7 8.7 8.7h56.7c4.8 0 8.7-3.9 8.7-8.7V39.5c0-4.8-3.9-8.7-8.7-8.7zm2.9 59.5c0 1.6-1.3 2.9-2.9 2.9H72.7c-1.6 0-2.9-1.3-2.9-2.9V52.2h62.4v38.1zm0-43.9H69.8v-6.9c0-1.6 1.3-2.9 2.9-2.9h3.5v5.8H82v-5.8h38.2v5.8h5.8v-5.8h3.5c1.6 0 2.9 1.3 2.9 2.9v6.9z"/><path class="st0" d="M75 58.2h5.8V64H75z"/><path class="st0" d="M75 58.2h5.8V64H75z"/><path class="st2" d="M80.8 58.2H75V64h5.8v-5.8z"/><path class="st0" d="M86.5 58.2h5.8V64h-5.8z"/><path class="st0" d="M86.5 58.2h5.8V64h-5.8z"/><path class="st2" d="M92.3 58.2h-5.8V64h5.8v-5.8z"/><path class="st0" d="M98.1 58.2h5.8V64h-5.8z"/><path class="st0" d="M98.1 58.2h5.8V64h-5.8z"/><path class="st2" d="M103.9 58.2h-5.8V64h5.8v-5.8z"/><path class="st0" d="M109.7 58.2h5.8V64h-5.8z"/><path class="st0" d="M109.7 58.2h5.8V64h-5.8z"/><path class="st2" d="M115.5 58.2h-5.8V64h5.8v-5.8z"/><path class="st0" d="M75 69.8h5.8v5.8H75z"/><path class="st0" d="M75 69.8h5.8v5.8H75z"/><path class="st2" d="M80.8 69.8H75v5.8h5.8v-5.8z"/><path class="st0" d="M86.5 69.8h5.8v5.8h-5.8z"/><path class="st0" d="M86.5 69.8h5.8v5.8h-5.8z"/><path class="st2" d="M92.3 69.8h-5.8v5.8h5.8v-5.8z"/><path class="st0" d="M109.7 69.8h5.8v5.8h-5.8z"/><path class="st0" d="M109.7 69.8h5.8v5.8h-5.8z"/><path class="st2" d="M115.5 69.8h-5.8v5.8h5.8v-5.8z"/><path class="st0" d="M75 81.4h5.8v5.8H75z"/><path class="st0" d="M75 81.4h5.8v5.8H75z"/><path class="st2" d="M80.8 81.4H75v5.8h5.8v-5.8z"/><path class="st0" d="M86.5 81.4h5.8v5.8h-5.8z"/><path class="st0" d="M86.5 81.4h5.8v5.8h-5.8z"/><path class="st2" d="M92.3 81.4h-5.8v5.8h5.8v-5.8z"/><path class="st0" d="M98.1 81.4h5.8v5.8h-5.8z"/><path class="st0" d="M98.1 81.4h5.8v5.8h-5.8z"/><path class="st2" d="M103.9 81.4h-5.8v5.8h5.8v-5.8z"/><path class="st0" d="M109.7 81.4h5.8v5.8h-5.8z"/><path class="st0" d="M109.7 81.4h5.8v5.8h-5.8z"/><path class="st2" d="M115.5 81.4h-5.8v5.8h5.8v-5.8z"/><path class="st0" d="M121 57h8v8h-8z"/><path class="st0" d="M121 57h8v8h-8z"/><path class="st3" d="M128.7 58.6l-2.4 2.4 2.4 2.4c.4.4.4.9 0 1.3-.2.2-.4.3-.7.3-.2 0-.5-.1-.7-.3l-2.4-2.4-2.4 2.4c-.2.2-.4.3-.7.3-.2 0-.5-.1-.7-.3-.4-.4-.4-.9 0-1.3l2.4-2.4-2.4-2.4c-.4-.4-.4-.9 0-1.3s.9-.4 1.3 0l2.4 2.4 2.4-2.4c.4-.4.9-.4 1.3 0 .6.3.6.9.2 1.3z"/><path class="st0" d="M121 69h8v8h-8z"/><path class="st0" d="M121 69h8v8h-8z"/><path class="st3" d="M128.7 70.6l-2.4 2.4 2.4 2.4c.4.4.4.9 0 1.3-.2.2-.4.3-.7.3-.2 0-.5-.1-.7-.3l-2.4-2.4-2.4 2.4c-.2.2-.4.3-.7.3-.2 0-.5-.1-.7-.3-.4-.4-.4-.9 0-1.3l2.4-2.4-2.4-2.4c-.4-.4-.4-.9 0-1.3s.9-.4 1.3 0l2.4 2.4 2.4-2.4c.4-.4.9-.4 1.3 0 .6.3.6.9.2 1.3z"/><path class="st0" d="M97 69h8v8h-8z"/><path class="st0" d="M97 69h8v8h-8z"/><path class="st3" d="M104.7 70.6l-2.4 2.4 2.4 2.4c.4.4.4.9 0 1.3-.2.2-.4.3-.7.3s-.5-.1-.7-.3l-2.4-2.4-2.4 2.4c-.2.2-.4.3-.7.3s-.5-.1-.7-.3c-.4-.4-.4-.9 0-1.3l2.4-2.4-2.4-2.4c-.4-.4-.4-.9 0-1.3s.9-.4 1.3 0l2.4 2.4 2.4-2.4c.4-.4.9-.4 1.3 0 .6.3.6.9.2 1.3z"/><path class="st2" d="M178.5 31h-18.9c-3.2 0-5.8 2.6-5.8 5.7v18.7c0 3.1 2.6 5.7 5.8 5.7h18.9c3.2 0 5.8-2.6 5.8-5.7V36.7c-.1-3.1-2.7-5.7-5.8-5.7zm-4.9 27.3h-9.1v-4.5c0-2.5 2-4.5 4.6-4.5 2.5 0 4.6 2 4.6 4.5v4.5zm-7.7-15c0-1.7 1.4-3 3.1-3s3.1 1.4 3.1 3-1.4 3-3.1 3-3.1-1.3-3.1-3zm15.4 12.1c0 1.6-1.3 2.8-2.8 2.8h-2v-4.5c0-2.6-1.3-4.8-3.4-6.2 1.1-1.1 1.8-2.6 1.8-4.3 0-3.3-2.7-5.9-6-5.9s-6 2.7-6 5.9c0 1.7.7 3.2 1.8 4.3-2 1.3-3.4 3.6-3.4 6.2v4.5h-2c-1.6 0-2.8-1.3-2.8-2.8V36.7c0-1.6 1.3-2.8 2.8-2.8h18.9c1.6 0 2.8 1.3 2.8 2.8v18.7zm4.2 9.7h-33.1c-.8 0-1.5.6-1.5 1.4s.7 1.4 1.5 1.4h33.1c.8 0 1.5-.6 1.5-1.4s-.7-1.4-1.5-1.4zm0 6.9h-33.1c-.8 0-1.5.6-1.5 1.4s.7 1.4 1.5 1.4h33.1c.8 0 1.5-.6 1.5-1.4s-.7-1.4-1.5-1.4zm-20.9 9.5l-2.3.9v1.9l1.8-.7v5.6h-1.8V91h5.4v-1.8h-1.6v-7.7h-1.5zm3.8 0v1.8h4.9l-3.8 7.7h2.3l3.9-8v-1.5h-7.3zm14.6 3.8v-2.5h-1.7v2.5h-2.5V87h2.5v2.4h1.7V87h2.4v-1.7H183zm-29 .5v1.6h5.2v-1.6H154z"/></svg>