<svg id="Слой_1" xmlns="http://www.w3.org/2000/svg" viewBox="0 0 255 206"><style>.st0{fill-opacity:0}.st2{fill:#fff}</style><path class="st0" d="M0 0h255v206H0z"/><path d="M15 0h225c8.3 0 15 6.7 15 15v176c0 8.3-6.7 15-15 15H15c-8.3 0-15-6.7-15-15V15C0 6.7 6.7 0 15 0z" fill="#65a7ff"/><path class="st0" d="M44 13h169v180H44z"/><path class="st0" d="M44 13h169v180H44z"/><path class="st2" d="M105.5 127.9l-1.3 12.1c-.1 1 .2 1.9.9 2.7.7.7 1.6 1.1 2.6 1.1h36.8c1 0 1.9-.4 2.6-1.1.7-.7 1-1.7.9-2.7l-1.3-12.1h45.8c7.1 0 12.9-5.8 12.9-12.9V25.9c0-7.1-5.8-12.9-12.9-12.9H56.9C49.8 13 44 18.8 44 25.9v89.2c0 7.1 5.8 12.9 12.9 12.9h48.6zm35.1 9h-29l1-9h27.1l.9 9zm-83.7-117h135.5c3.3 0 6 2.7 6 5.9v78.5H51V25.9c0-3.3 2.6-6 5.9-6zM51 115.1v-3.7h147.4v3.7c0 3.3-2.7 5.9-6 5.9H56.9c-3.3 0-5.9-2.7-5.9-5.9zm141.3 52c.6-1 .7-2.3.1-3.4l-6.9-13.2c-.6-1.1-1.8-1.9-3.1-1.9H66.9c-1.3 0-2.5.7-3.1 1.9l-6.9 13.2c-.6 1.1-.5 2.4.1 3.4s1.8 1.7 3 1.7h129.4c1.2 0 2.3-.7 2.9-1.7zm-126.6-5.3l3.3-6.2h111.4l3.3 6.2h-118zM198.4 175h-5.6c-8.1 0-14.6 6.5-14.6 14.5 0 1.9 1.6 3.5 3.5 3.5h27.8c1.9 0 3.5-1.6 3.5-3.5 0-8-6.6-14.5-14.6-14.5zM186 186.1c1.3-2.5 3.8-4.2 6.8-4.2h5.6c3 0 5.5 1.7 6.8 4.2H186z"/><path class="st0" d="M145 91h9v12h-9z"/><path class="st0" d="M145 91h9v12h-9z"/><path class="st0" d="M145 91h9v12h-9z"/><path class="st2" d="M154 96.8c0-.2-.1-.3-.2-.4l-8.1-5.3c-.1-.1-.3-.1-.4 0-.1.1-.2.2-.2.4v9.4c0 .2.1.3.2.4.1.1.3.1.5 0l2.3-1.7 2.1 3.3c.1.1.2.2.4.2.1 0 .2 0 .2-.1l2.2-1.3c.1-.1.2-.2.2-.3 0-.1 0-.2-.1-.3l-2-3.1 2.7-.8c.1-.1.2-.2.2-.4zM177.5 31h-18.9c-3.2 0-5.8 2.6-5.8 5.7v18.7c0 3.1 2.6 5.7 5.8 5.7h18.9c3.2 0 5.8-2.6 5.8-5.7V36.7c-.1-3.1-2.7-5.7-5.8-5.7zm-4.9 27.3h-9.1v-4.5c0-2.5 2-4.5 4.6-4.5 2.5 0 4.6 2 4.6 4.5v4.5zm-7.7-15c0-1.7 1.4-3 3.1-3s3.1 1.4 3.1 3-1.4 3-3.1 3-3.1-1.3-3.1-3zm15.4 12.1c0 1.6-1.3 2.8-2.8 2.8h-2v-4.5c0-2.6-1.3-4.8-3.4-6.2 1.1-1.1 1.8-2.6 1.8-4.3 0-3.3-2.7-5.9-6-5.9s-6 2.7-6 5.9c0 1.7.7 3.2 1.8 4.3-2 1.3-3.4 3.6-3.4 6.2v4.5h-2c-1.6 0-2.8-1.3-2.8-2.8V36.7c0-1.6 1.3-2.8 2.8-2.8h18.9c1.6 0 2.8 1.3 2.8 2.8v18.7z"/><path class="st0" d="M89 35h47v3H89z"/><path class="st2" d="M134.1 35H90.9c-1 0-1.9.7-1.9 1.5s.8 1.5 1.9 1.5h43.2c1 0 1.9-.7 1.9-1.5s-.9-1.5-1.9-1.5zm50.4 37h-33.1c-.8 0-1.5.6-1.5 1.4s.7 1.4 1.5 1.4h33.1c.8 0 1.5-.6 1.5-1.4s-.7-1.4-1.5-1.4zM152 81.3v2c1-.8 2.1-1.1 3.1-1.1s1.6.4 1.6 1.1c0 .9-.9 1.3-1.8 1.9-1.4.8-3.1 1.7-3.1 4v.8h7.1v-1.8h-4.8c0-.6 1-1.1 2.1-1.8 1.2-.7 2.6-1.7 2.6-3.3 0-1.9-1.6-2.8-3.5-2.8-1.2 0-2.3.3-3.3 1zm8 3.9c0 2.7 1.3 5 4.3 5s4.3-2.2 4.3-5c0-2.7-1.3-5-4.3-5-2.9.1-4.3 2.3-4.3 5zm6.6 0c0 2-.7 3.1-2.2 3.1-1.5 0-2.2-1.1-2.2-3.1s.7-3.1 2.2-3.1c1.5 0 2.2 1.1 2.2 3.1zm5.8-4.7l-2.3.9v1.9l1.8-.7v5.6H170V90h5.4v-1.8h-1.6v-7.7h-1.4zm4.3 2.4c0 1 .5 1.6 1.1 2-.9.5-1.5 1.4-1.5 2.4 0 1.5 1.2 2.8 4 2.8 2.9 0 4-1.4 4-2.8 0-1.1-.7-1.8-1.6-2.3.8-.6 1.2-1.3 1.2-2.2 0-1.3-1.3-2.7-3.7-2.7-2.4.2-3.5 1.5-3.5 2.8zm3.9 3.2c.9.3 1.7.6 1.7 1.4 0 .6-.8 1.1-1.8 1.1-1.4 0-2.1-.6-2.1-1.4 0-.5.2-1.1.7-1.5.6.1 1.1.2 1.5.4zm1.5-3c0 .5-.2 1-.7 1.5l-.9-.3c-.9-.3-1.8-.6-1.8-1.4 0-.5.6-1 1.6-1 1.2 0 1.8.6 1.8 1.2zM56.7 35.6c0 2 .9 3.5 3.1 3.5s3.1-1.6 3.1-3.5c0-2-.9-3.5-3.1-3.5s-3.1 1.5-3.1 3.5zm4.7 0c0 1.5-.5 2.2-1.6 2.2s-1.6-.8-1.6-2.2c0-1.4.5-2.2 1.6-2.2s1.6.8 1.6 2.2zm4.1-3.4l-1.6.6v1.3l1.3-.5v4h-1.3V39h3.9v-1.3h-1.1v-5.5h-1.2zm4.6 6.1c0-.6-.4-.8-.8-.8s-.8.3-.8.8c0 .6.4.8.8.8s.8-.2.8-.8zm.6-2.7c0 2 .9 3.5 3.1 3.5s3.1-1.6 3.1-3.5c0-2-.9-3.5-3.1-3.5s-3.1 1.5-3.1 3.5zm4.7 0c0 1.5-.5 2.2-1.6 2.2s-1.6-.8-1.6-2.2c0-1.4.5-2.2 1.6-2.2s1.6.8 1.6 2.2zm2.2-3.4v1.3h3.5L78.4 39H80l2.8-5.7v-1.1h-5.2z"/><path class="st0" d="M89 48h47v3H89z"/><path class="st2" d="M134.1 48H90.9c-1 0-1.9.7-1.9 1.5s.8 1.5 1.9 1.5h43.2c1 0 1.9-.7 1.9-1.5s-.9-1.5-1.9-1.5zm-78.7.6c0 2 .9 3.5 3.1 3.5s3.1-1.6 3.1-3.5-.9-3.5-3.1-3.5-3.1 1.5-3.1 3.5zm4.7 0c0 1.5-.5 2.2-1.6 2.2s-1.6-.8-1.6-2.2c0-1.4.5-2.2 1.6-2.2s1.6.8 1.6 2.2zm2.6-2.8v1.4c.7-.5 1.5-.8 2.2-.8.7 0 1.1.3 1.1.8 0 .6-.6.9-1.3 1.3-1 .6-2.2 1.2-2.2 2.9v.6h5.1v-1.3h-3.4c0-.4.7-.8 1.5-1.3.9-.5 1.8-1.2 1.8-2.4 0-1.4-1.1-2-2.5-2-.8.1-1.6.3-2.3.8zm7.4 5.5c0-.6-.4-.8-.8-.8s-.8.3-.8.8c0 .6.4.8.8.8s.8-.2.8-.8zm.6-2.7c0 2 .9 3.5 3.1 3.5s3.1-1.6 3.1-3.5-.9-3.5-3.1-3.5-3.1 1.5-3.1 3.5zm4.7 0c0 1.5-.5 2.2-1.6 2.2s-1.6-.8-1.6-2.2c0-1.4.5-2.2 1.6-2.2s1.6.8 1.6 2.2zm2.2-3.4v1.3h3.5L78.4 52H80l2.8-5.7v-1.1h-5.2z"/><path class="st0" d="M89 61h47v3H89z"/><path class="st2" d="M134.1 61H90.9c-1 0-1.9.7-1.9 1.5s.8 1.5 1.9 1.5h43.2c1 0 1.9-.7 1.9-1.5s-.9-1.5-1.9-1.5zm-78.7.6c0 2 .9 3.5 3.1 3.5s3.1-1.6 3.1-3.5-.9-3.5-3.1-3.5-3.1 1.5-3.1 3.5zm4.7 0c0 1.5-.5 2.2-1.6 2.2s-1.6-.8-1.6-2.2c0-1.4.5-2.2 1.6-2.2s1.6.8 1.6 2.2zm7.2-1.7c0-1.2-1.1-1.9-2.5-1.9-.8 0-1.6.2-2.2.5V60c.7-.4 1.4-.6 2-.6.8 0 1.3.3 1.3.8s-.4.7-1.1.7h-.9v1.3H65c.7 0 1.2.2 1.2.8 0 .6-.6.9-1.4.9-.8 0-1.5-.1-2.2-.5v1.4c.8.3 1.5.5 2.4.5 1.4 0 2.7-.6 2.7-2 0-1-.6-1.5-1.3-1.7.5-.4.9-1 .9-1.7zm2.8 4.4c0-.6-.4-.8-.8-.8s-.8.3-.8.8c0 .6.4.8.8.8s.8-.2.8-.8zm.6-2.7c0 2 .9 3.5 3.1 3.5s3.1-1.6 3.1-3.5-.9-3.5-3.1-3.5-3.1 1.5-3.1 3.5zm4.7 0c0 1.5-.5 2.2-1.6 2.2s-1.6-.8-1.6-2.2c0-1.4.5-2.2 1.6-2.2s1.6.8 1.6 2.2zm2.2-3.4v1.3h3.5L78.4 65H80l2.8-5.7v-1.1h-5.2z"/><path class="st0" d="M89 74h47v3H89z"/><path class="st2" d="M134.1 74H90.9c-1 0-1.9.7-1.9 1.5s.8 1.5 1.9 1.5h43.2c1 0 1.9-.7 1.9-1.5s-.9-1.5-1.9-1.5zm-79.3.6c0 2 .9 3.5 3.1 3.5s3.1-1.6 3.1-3.5-.9-3.5-3.1-3.5-3.1 1.5-3.1 3.5zm4.7 0c0 1.5-.5 2.2-1.6 2.2s-1.6-.8-1.6-2.2c0-1.4.5-2.2 1.6-2.2s1.6.8 1.6 2.2zm5.7-3.4l-3.5 4.3v1.2h3.6V78h1.4v-1.2h1v-1.3h-1v-4.3h-1.5zm0 4.3h-2l2-2.5v2.5zm4.9 1.8c0-.6-.4-.8-.8-.8s-.8.3-.8.8c0 .6.4.8.8.8s.8-.2.8-.8zm.6-2.7c0 2 .9 3.5 3.1 3.5s3.1-1.6 3.1-3.5-.9-3.5-3.1-3.5-3.1 1.5-3.1 3.5zm4.7 0c0 1.5-.5 2.2-1.6 2.2s-1.6-.8-1.6-2.2c0-1.4.5-2.2 1.6-2.2s1.6.8 1.6 2.2zm2.2-3.4v1.3h3.5L78.4 78H80l2.8-5.7v-1.1h-5.2z"/><path class="st0" d="M89 87h47v3H89z"/><path class="st2" d="M134.1 87H90.9c-1 0-1.9.7-1.9 1.5s.8 1.5 1.9 1.5h43.2c1 0 1.9-.7 1.9-1.5s-.9-1.5-1.9-1.5zm-78.6.6c0 2 .9 3.5 3.1 3.5s3.1-1.6 3.1-3.5-.9-3.5-3.1-3.5-3.1 1.5-3.1 3.5zm4.7 0c0 1.5-.5 2.2-1.6 2.2s-1.6-.7-1.6-2.2c0-1.4.5-2.2 1.6-2.2s1.6.8 1.6 2.2zm2.8-3.4l-.2 3.9c.6-.2 1.2-.3 1.7-.3 1.1 0 1.7.3 1.7 1s-.7 1-1.6 1c-.7 0-1.5-.2-2-.5v1.4c.6.3 1.4.5 2.2.5 1.5 0 2.9-.7 2.9-2.3 0-1.6-1.1-2.2-2.5-2.2-.3 0-.6 0-.9.1l.1-1.3h3v-1.3H63zm7.1 6.1c0-.6-.4-.8-.8-.8s-.8.3-.8.8c0 .6.4.8.8.8s.8-.2.8-.8zm.6-2.7c0 2 .9 3.5 3.1 3.5s3.1-1.6 3.1-3.5-.9-3.5-3.1-3.5-3.1 1.5-3.1 3.5zm4.7 0c0 1.5-.5 2.2-1.6 2.2s-1.6-.8-1.6-2.2c0-1.4.5-2.2 1.6-2.2s1.6.8 1.6 2.2zm2.2-3.4v1.3h3.5L78.4 91H80l2.8-5.7v-1.1h-5.2zM141.5 26c.3 0 .5.2.5.5v71c0 .3-.2.5-.5.5s-.5-.2-.5-.5v-71c0-.3.2-.5.5-.5z"/><path class="st2" d="M141.5 86c.8 0 1.5.7 1.5 1.5v5c0 .8-.7 1.5-1.5 1.5s-1.5-.7-1.5-1.5v-5c0-.8.7-1.5 1.5-1.5z"/></svg>