<svg id="Слой_1" xmlns="http://www.w3.org/2000/svg" viewBox="0 0 255 206"><style>.st0{fill-opacity:0}.st2{fill:#fff}.st3{fill:#ef4e4e}</style><path class="st0" d="M0 0h255v206H0z"/><path d="M15 0h225c8.3 0 15 6.7 15 15v176c0 8.3-6.7 15-15 15H15c-8.3 0-15-6.7-15-15V15C0 6.7 6.7 0 15 0z" fill="#65a7ff"/><path class="st0" d="M28 48h169v86H28z"/><path class="st0" d="M28 48h169v86H28z"/><path class="st0" d="M28 48h169v86H28z"/><path class="st2" d="M188.2 60.3H80.6v-9.6c0-1.5-1.2-2.7-2.7-2.7H38.8c-1.5 0-2.7 1.2-2.7 2.7v78h-5.4c-1.5 0-2.7 1.2-2.7 2.7 0 1.5 1.2 2.7 2.7 2.7H86c1.5 0 2.7-1.2 2.7-2.7 0-1.5-1.2-2.7-2.7-2.7h-5.4V77.8h107.6c4.9 0 8.8-3.9 8.8-8.8s-4-8.7-8.8-8.7zm-117 5.3h19.4l-7 6.9H71.2c.3-1.1.4-2.3.4-3.5 0-1.2-.1-2.3-.4-3.4zm27 0h7.5l-7 6.9h-7.5l7-6.9zm15.1 0h15.8l-7 6.9h-15.8l7-6.9zm23.4 0h7.5l-7 6.9h-7.5l7-6.9zm15.1 0h15.8l-7 6.9h-15.8l7-6.9zm23.3 0h7.5l-7 6.9h-7.5l7-6.9zm-99.9 63.1H41.5V53.3h33.8v6.9h-6.7c-2.6-3.2-6.6-5.3-11-5.3-7.8 0-14.2 6.3-14.2 14.1s6.3 14.1 14.2 14.1c4.5 0 8.4-2.1 11-5.3h6.7l-.1 50.9zM66.3 69c0 4.8-3.9 8.7-8.8 8.7s-8.8-3.9-8.8-8.7 3.9-8.7 8.8-8.7c4.8 0 8.8 3.9 8.8 8.7zm121.9 3.5h-4.9l6.6-6.5c1.1.6 1.8 1.7 1.8 3.1-.1 1.8-1.6 3.4-3.5 3.4z"/><path class="st2" d="M65.6 86.7H51c-1.5 0-2.7 1.2-2.7 2.7 0 1.5 1.2 2.7 2.7 2.7h14.6c1.5 0 2.7-1.2 2.7-2.7 0-1.5-1.2-2.7-2.7-2.7zM198 137h31c2.8 0 5 2.2 5 5v12c0 2.8-2.2 5-5 5h-31c-2.8 0-5-2.2-5-5v-12c0-2.8 2.2-5 5-5z"/><path class="st0" d="M160 114h78v78h-78z"/><path class="st0" d="M160 114h78v78h-78z"/><path class="st0" d="M160 114h78v78h-78z"/><path class="st2" d="M234.2 131.6h-28.9v-11.3c0-3.5-2.8-6.3-6.3-6.3h-32.7c-3.5 0-6.3 2.8-6.3 6.3v65.4c0 3.5 2.8 6.3 6.3 6.3H199c3.5 0 6.3-2.8 6.3-6.3v-18.9h-2.5v12.6h-40.3v-52.8h40.3v5h-11.3c-2.1 0-3.8 1.7-3.8 3.8v18.4l-10.6 10.6h57.1c2.1 0 3.8-1.7 3.8-3.8v-25.2c0-2.1-1.7-3.8-3.8-3.8zm-31.4 50.3v3.8c0 2.1-1.7 3.8-3.8 3.8h-32.7c-2.1 0-3.8-1.7-3.8-3.8v-3.8h40.3zm-40.3-57.8v-3.8c0-2.1 1.7-3.8 3.8-3.8H199c2.1 0 3.8 1.7 3.8 3.8v3.8h-40.3zm73 36.4c0 .7-.6 1.3-1.3 1.3h-51.1l7-7v-19.4c0-.7.6-1.3 1.3-1.3h42.8c.7 0 1.3.6 1.3 1.3v25.1z"/><path class="st0" d="M220.4 139.2h10.1v17.6h-10.1z"/><path class="st0" d="M220.4 139.2h10.1v17.6h-10.1z"/><path class="st3" d="M225.4 146.7c-1.4 0-2.5-1.1-2.5-2.5s1.1-2.5 2.5-2.5 2.5 1.1 2.5 2.5h2.5c0-2.8-2.3-5-5-5-2.8 0-5 2.3-5 5 0 2.8 2.3 5 5 5 1.4 0 2.5 1.1 2.5 2.5s-1.1 2.5-2.5 2.5-2.5-1.1-2.5-2.5h-2.5c0 2.8 2.3 5 5 5 2.8 0 5-2.3 5-5 .1-2.7-2.2-5-5-5z"/><path class="st0" d="M195.2 139.2h10.1v17.6h-10.1z"/><path class="st0" d="M195.2 139.2h10.1v17.6h-10.1z"/><path class="st3" d="M200.3 146.7c-1.4 0-2.5-1.1-2.5-2.5s1.1-2.5 2.5-2.5 2.5 1.1 2.5 2.5h2.5c0-2.8-2.3-5-5-5-2.8 0-5 2.3-5 5 0 2.8 2.3 5 5 5 1.4 0 2.5 1.1 2.5 2.5s-1.1 2.5-2.5 2.5-2.5-1.1-2.5-2.5h-2.5c0 2.8 2.3 5 5 5 2.8 0 5-2.3 5-5s-2.3-5-5-5z"/><path class="st0" d="M207.8 139.2h10.1v16.5h-10.1z"/><path class="st0" d="M207.8 139.2h10.1v16.5h-10.1z"/><path class="st3" d="M214.4 139.2l-1.5 6.1-1.5-6.1h-3.5v16.4h2.5v-9.9l2.5 10.1 2.5-10.1v9.9h2.5v-16.4h-3.5z"/><path class="st0" d="M177.6 184.5h10.1v2.5h-10.1z"/><path class="st0" d="M177.6 184.5h10.1v2.5h-10.1z"/><path class="st2" d="M187.7 184.5h-10.1v2.5h10.1v-2.5z"/><path class="st0" d="M197.7 166.8h2.5v2.5h-2.5z"/><path class="st0" d="M197.7 166.8h2.5v2.5h-2.5z"/><path class="st2" d="M200.3 166.8h-2.5v2.5h2.5v-2.5z"/><path class="st0" d="M192.7 166.8h2.5v2.5h-2.5z"/><path class="st0" d="M192.7 166.8h2.5v2.5h-2.5z"/><path class="st2" d="M195.2 166.8h-2.5v2.5h2.5v-2.5z"/><path class="st0" d="M187.7 166.8h2.5v2.5h-2.5z"/><path class="st0" d="M187.7 166.8h2.5v2.5h-2.5z"/><path class="st2" d="M190.2 166.8h-2.5v2.5h2.5v-2.5z"/><path class="st0" d="M182.6 166.8h2.5v2.5h-2.5z"/><path class="st0" d="M182.6 166.8h2.5v2.5h-2.5z"/><path class="st2" d="M185.2 166.8h-2.5v2.5h2.5v-2.5z"/><ellipse class="st3" cx="57.5" cy="69" rx="14.5" ry="14"/><path fill="none" stroke="#fff" stroke-width="2" stroke-dasharray="2,2" d="M90.5 90.2l61 39"/></svg>