<svg id="Слой_1" xmlns="http://www.w3.org/2000/svg" viewBox="0 0 255 206"><style>.st0{fill-opacity:0}.st2{fill:#fff}</style><path class="st0" d="M0 0h255v206H0z"/><path d="M15 0h225c8.3 0 15 6.7 15 15v176c0 8.3-6.7 15-15 15H15c-8.3 0-15-6.7-15-15V15C0 6.7 6.7 0 15 0z" fill="#65a7ff"/><path class="st0" d="M43 16h169v180H43z"/><path class="st0" d="M43 16h169v180H43z"/><path class="st2" d="M104.5 130.9l-1.3 12.1c-.1 1 .2 1.9.9 2.7.7.7 1.6 1.1 2.6 1.1h36.8c1 0 1.9-.4 2.6-1.1.7-.7 1-1.7.9-2.7l-1.3-12.1h45.8c7.1 0 12.9-5.8 12.9-12.9V28.9c0-7.1-5.8-12.9-12.9-12.9H55.9C48.8 16 43 21.8 43 28.9v89.2c0 7.1 5.8 12.9 12.9 12.9h48.6zm35.1 9h-29l1-9h27.1l.9 9zm-83.7-117h135.5c3.3 0 6 2.7 6 5.9v78.5H50V28.9c0-3.3 2.6-6 5.9-6zM50 118.1v-3.7h147.4v3.7c0 3.3-2.7 5.9-6 5.9H55.9c-3.3 0-5.9-2.7-5.9-5.9zm141.3 52c.6-1 .7-2.3.1-3.4l-6.9-13.2c-.6-1.1-1.8-1.9-3.1-1.9H65.9c-1.3 0-2.5.7-3.1 1.9l-6.9 13.2c-.6 1.1-.5 2.4.1 3.4s1.8 1.7 3 1.7h129.4c1.2 0 2.3-.7 2.9-1.7zm-126.6-5.3l3.3-6.2h111.4l3.3 6.2h-118zM197.4 178h-5.6c-8.1 0-14.6 6.5-14.6 14.5 0 1.9 1.6 3.5 3.5 3.5h27.8c1.9 0 3.5-1.6 3.5-3.5 0-8-6.6-14.5-14.6-14.5zM185 189.1c1.3-2.5 3.8-4.2 6.8-4.2h5.6c3 0 5.5 1.7 6.8 4.2H185z"/><path class="st0" d="M138 36h49v38h-49z"/><path class="st0" d="M143.9 36h17.9v18.9h-17.9z"/><path class="st0" d="M143.9 36h17.9v18.9h-17.9z"/><path class="st2" d="M152.9 36c-4.9 0-8.9 4.2-8.9 9.5 0 5.2 4 9.5 8.9 9.5s8.9-4.2 8.9-9.5-4-9.5-8.9-9.5z"/><path class="st0" d="M165.5 37.4h15.4v16.2h-15.4z"/><path class="st0" d="M165.5 37.4h15.4v16.2h-15.4z"/><path class="st2" d="M173.2 37.4c-2.1 0-4.1.9-5.5 2.5-1.4 1.5-2.2 3.6-2.2 5.7s.8 4.2 2.3 5.7c1.5 1.5 3.4 2.4 5.4 2.4h.1c2.1 0 4-.9 5.4-2.5 1.4-1.5 2.2-3.6 2.2-5.7-.1-4.5-3.5-8.1-7.7-8.1z"/><path class="st0" d="M163.8 55.1H187v16.3h-23.2z"/><path class="st0" d="M163.8 55.1H187v16.3h-23.2z"/><path class="st2" d="M173.6 55.1h-.7c-3.5 0-6.6 1.3-9 3.5.6.5 1.2 1 1.7 1.5 1.6 1.6 2.8 3.4 3.7 5.5.8 1.9 1.2 3.8 1.3 5.8H187v-2.9c0-7.4-6-13.4-13.4-13.4z"/><path class="st0" d="M138 57.9h29.7V74H138z"/><path class="st0" d="M138 57.9h29.7V74H138z"/><path class="st2" d="M167.7 71.4c-.3-4.4-2.5-8.2-5.8-10.6-2.4-1.8-5.4-2.8-8.6-2.8h-.9c-8 0-14.4 6.4-14.4 14.4V74h29.7v-2.6zm-26.1 14.1l-2.3.9v1.9l1.8-.7v5.6h-1.8V95h5.4v-1.8h-1.6v-7.7h-1.5zm4.6 0l-.3 5.5c.8-.3 1.7-.4 2.4-.4 1.5 0 2.3.5 2.3 1.4 0 .9-.9 1.4-2.2 1.4-1 0-2.1-.3-2.8-.8v1.9c.8.4 2 .6 3.1.6 2.1 0 4-1 4-3.2s-1.6-3-3.5-3c-.4 0-.8.1-1.2.1l.1-1.9h4.2v-1.8h-6.1zm10.7 4.7c0 2.7 1.3 5 4.3 5s4.3-2.2 4.3-5c0-2.7-1.3-5-4.3-5-2.9.1-4.3 2.3-4.3 5zm6.6 0c0 2-.7 3.1-2.2 3.1-1.5 0-2.2-1.1-2.2-3.1s.7-3.1 2.2-3.1c1.5 0 2.2 1.1 2.2 3.1zm3.3 0c0 2.7 1.3 5 4.3 5s4.3-2.2 4.3-5c0-2.7-1.3-5-4.3-5-3 .1-4.3 2.3-4.3 5zm6.6 0c0 2-.7 3.1-2.2 3.1-1.5 0-2.2-1.1-2.2-3.1s.7-3.1 2.2-3.1c1.5 0 2.2 1.1 2.2 3.1zm3.3 0c0 2.7 1.3 5 4.3 5s4.3-2.2 4.3-5c0-2.7-1.3-5-4.3-5-3 .1-4.3 2.3-4.3 5zm6.6 0c0 2-.7 3.1-2.2 3.1-1.5 0-2.2-1.1-2.2-3.1s.7-3.1 2.2-3.1c1.5 0 2.2 1.1 2.2 3.1z"/><path class="st0" d="M59 36h55v62H59z"/><path class="st0" d="M59 36h55v62H59z"/><path class="st0" d="M59 36h55v62H59z"/><path class="st2" d="M82.8 67.4c8.8 0 11.9-8.7 12.8-15.9 1-8.8-3.2-15.5-12.8-15.5C73.2 36 69 42.7 70 51.5c.8 7.2 4 15.9 12.8 15.9z"/><path class="st2" d="M102 71.1h.8c-.4-.6-.9-1.1-1.5-1.5-1.7-1.3-3.9-1.7-5.8-2.4-.9-.4-1.8-.7-2.6-1.1-2.7 2.9-6.1 4.4-10.2 4.4-4 0-7.5-1.5-10.2-4.4-.8.4-1.6.8-2.6 1.1-1.9.8-4.1 1.2-5.8 2.4-2.9 2.2-3.7 7-4.3 10.4-.5 2.7-.8 5.5-.9 8.3-.1 2.2 1 2.5 2.8 3.1 2.3.8 4.6 1.4 7 1.9 4.6 1 9.3 1.7 14 1.7 2.3 0 4.5-.2 6.8-.5-1.7-2.4-2.7-5.3-2.7-8.5.1-8.2 6.9-14.9 15.2-14.9z"/><path class="st2" d="M102 74.1c-6.7 0-12 5.4-12 12s5.4 12 12 12 12-5.4 12-12c0-6.7-5.4-12-12-12zm5.2 14H104v3.2c0 1.1-.9 2.1-2.1 2.1s-2.1-.9-2.1-2.1v-3.2h-3.2c-1.1 0-2.1-.9-2.1-2.1 0-1.1.9-2.1 2.1-2.1h3.2v-3.2c0-1.1.9-2.1 2.1-2.1s2.1.9 2.1 2.1V84h3.2c1.1 0 2.1.9 2.1 2.1 0 1.1-.9 2-2.1 2z"/><path class="st0" d="M117 87h11v15h-11z"/><path class="st0" d="M117 87h11v15h-11z"/><path class="st0" d="M117 87h11v15h-11z"/><path class="st2" d="M128 94.3c0-.2-.1-.4-.2-.5l-9.9-6.6c-.2-.1-.4-.1-.5 0-.2.1-.3.3-.3.5v11.7c0 .2.1.4.3.5.2.1.4.1.6-.1l2.8-2.2 2.6 4.2c.1.2.3.3.5.3.1 0 .2 0 .3-.1l2.6-1.6c.1-.1.2-.2.2-.3 0-.1 0-.3-.1-.4l-2.4-3.9 3.2-.9c.1-.2.3-.4.3-.6z"/></svg>