<svg width="18" height="17" viewBox="0 0 18 17" fill="none" xmlns="http://www.w3.org/2000/svg">
<rect width="18" height="17" fill="black" fill-opacity="0"/>
<rect width="3.1661" height="3.23148" fill="black" fill-opacity="0" transform="translate(5.96436 13.7686)"/>
<rect width="3.1661" height="3.23148" fill="black" fill-opacity="0" transform="translate(5.96436 13.7686)"/>
<path d="M7.54741 13.7686C6.67451 13.7686 5.96436 14.4934 5.96436 15.3843C5.96436 16.2752 6.67451 17 7.54741 17C8.4203 17 9.13046 16.2752 9.13046 15.3843C9.13042 14.4934 8.42027 13.7686 7.54741 13.7686ZM7.54741 16.0978C7.16188 16.0978 6.84825 15.7777 6.84825 15.3842C6.84825 14.9907 7.16192 14.6706 7.54741 14.6706C7.9329 14.6706 8.24656 14.9908 8.24656 15.3842C8.24656 15.7777 7.9329 16.0978 7.54741 16.0978Z" fill="white"/>
<rect width="3.1661" height="3.23148" fill="black" fill-opacity="0" transform="translate(11.5171 13.7686)"/>
<rect width="3.1661" height="3.23148" fill="black" fill-opacity="0" transform="translate(11.5171 13.7686)"/>
<path d="M13.1001 13.7686C12.2272 13.7686 11.5171 14.4934 11.5171 15.3843C11.5171 16.2752 12.2272 17 13.1001 17C13.973 17 14.6832 16.2752 14.6832 15.3843C14.6832 14.4934 13.973 13.7686 13.1001 13.7686ZM13.1001 16.0978C12.7146 16.0978 12.401 15.7777 12.401 15.3842C12.401 14.9907 12.7147 14.6706 13.1001 14.6706C13.4857 14.6706 13.7993 14.9908 13.7993 15.3842C13.7993 15.7777 13.4856 16.0978 13.1001 16.0978Z" fill="white"/>
<rect width="7.21727" height="0.902151" fill="black" fill-opacity="0" transform="translate(6.71484 5.26172)"/>
<rect width="7.21727" height="0.902151" fill="black" fill-opacity="0" transform="translate(6.71484 5.26172)"/>
<path d="M13.4902 5.26172H7.15679C6.9127 5.26172 6.71484 5.46366 6.71484 5.71279C6.71484 5.96192 6.91274 6.16387 7.15679 6.16387H13.4902C13.7343 6.16387 13.9321 5.96192 13.9321 5.71279C13.9321 5.46363 13.7343 5.26172 13.4902 5.26172Z" fill="white"/>
<rect width="6.52778" height="0.902151" fill="black" fill-opacity="0" transform="translate(7.05957 7.60425)"/>
<rect width="6.52778" height="0.902151" fill="black" fill-opacity="0" transform="translate(7.05957 7.60425)"/>
<path d="M13.1454 7.60425H7.50152C7.25743 7.60425 7.05957 7.80619 7.05957 8.05532C7.05957 8.30445 7.25743 8.5064 7.50152 8.5064H13.1454C13.3895 8.5064 13.5874 8.30445 13.5874 8.05532C13.5874 7.80623 13.3895 7.60425 13.1454 7.60425Z" fill="white"/>
<rect width="18" height="13.0391" fill="black" fill-opacity="0"/>
<rect width="18" height="13.0391" fill="black" fill-opacity="0"/>
<path d="M17.8011 3.25201C17.6325 3.04088 17.3828 2.91981 17.1159 2.91981H3.34964L3.07162 1.54233C3.01358 1.25498 2.82155 1.01371 2.55785 0.896841L0.618028 0.0374618C0.394083 -0.0618243 0.133821 0.0430594 0.0366838 0.271557C-0.0605584 0.500127 0.0422033 0.7658 0.266043 0.864942L2.2059 1.72436L4.34431 12.319C4.42855 12.7362 4.79262 13.0391 5.21003 13.0391H15.7979C16.042 13.0391 16.2399 12.8371 16.2399 12.588C16.2399 12.3389 16.042 12.1369 15.7979 12.1369H5.21007L4.94995 10.8482H15.8798C16.2971 10.8482 16.6612 10.5453 16.7454 10.1281L17.9816 4.00388C18.0355 3.73721 17.9697 3.4631 17.8011 3.25201ZM15.8798 9.94609H4.76787L3.53174 3.82193L17.1159 3.82196L15.8798 9.94609Z" fill="white"/>
</svg>
