<svg width="471" height="65" viewBox="0 0 471 65" fill="none" xmlns="http://www.w3.org/2000/svg">
<rect width="63" height="469" fill="black" fill-opacity="0" transform="translate(470 64) scale(-1 1) rotate(-90)"/>
<rect width="63" height="469" fill="black" fill-opacity="0" transform="translate(470 64) scale(-1 1) rotate(-90)"/>
<path d="M397.843 55.0003V64H388.824V55.0003H397.843Z" stroke="#E1EEFF" stroke-width="1.18" stroke-miterlimit="22.9256"/>
<path d="M406.862 55.0003V64H397.843V55.0003H406.862Z" stroke="#E1EEFF" stroke-width="1.18" stroke-miterlimit="22.9256"/>
<path d="M415.881 55.0003V64H406.862V55.0003H415.881Z" stroke="#E1EEFF" stroke-width="1.18" stroke-miterlimit="22.9256"/>
<path d="M424.9 55.0003V64H415.881V55.0003H424.9Z" stroke="#E1EEFF" stroke-width="1.18" stroke-miterlimit="22.9256"/>
<path d="M433.921 55.0003V64H424.902V55.0003H433.921Z" stroke="#E1EEFF" stroke-width="1.18" stroke-miterlimit="22.9256"/>
<path d="M442.941 55.0003V64H433.922V55.0003H442.941Z" stroke="#E1EEFF" stroke-width="1.18" stroke-miterlimit="22.9256"/>
<path d="M451.959 55.0003V64H442.94V55.0003H451.959Z" stroke="#E1EEFF" stroke-width="1.18" stroke-miterlimit="22.9256"/>
<path d="M460.979 55.0003V64H451.96V55.0003H460.979Z" stroke="#E1EEFF" stroke-width="1.18" stroke-miterlimit="22.9256"/>
<path d="M470 55.0003V64H460.981V55.0003H470Z" stroke="#E1EEFF" stroke-width="1.18" stroke-miterlimit="22.9256"/>
<path d="M388.824 55.0003V64H379.805V55.0003H388.824Z" stroke="#E1EEFF" stroke-width="1.18" stroke-miterlimit="22.9256"/>
<path d="M379.805 55.0003V64H370.786V55.0003H379.805Z" stroke="#E1EEFF" stroke-width="1.18" stroke-miterlimit="22.9256"/>
<path d="M370.786 55.0003V64H361.767V55.0003H370.786Z" stroke="#E1EEFF" stroke-width="1.18" stroke-miterlimit="22.9256"/>
<path d="M361.767 55.0003V64H352.748V55.0003H361.767Z" stroke="#E1EEFF" stroke-width="1.18" stroke-miterlimit="22.9256"/>
<path d="M352.748 55.0003V64H343.729V55.0003H352.748Z" stroke="#E1EEFF" stroke-width="1.18" stroke-miterlimit="22.9256"/>
<path d="M343.727 55.0003V64H334.708V55.0003H343.727Z" stroke="#E1EEFF" stroke-width="1.18" stroke-miterlimit="22.9256"/>
<path d="M334.708 55.0003V64H325.688V55.0003H334.708Z" stroke="#E1EEFF" stroke-width="1.18" stroke-miterlimit="22.9256"/>
<path d="M325.688 55.0003V64H316.669V55.0003H325.688Z" stroke="#E1EEFF" stroke-width="1.18" stroke-miterlimit="22.9256"/>
<path d="M316.669 55.0003V64H307.65V55.0003H316.669Z" stroke="#E1EEFF" stroke-width="1.18" stroke-miterlimit="22.9256"/>
<path d="M307.65 55.0003V64H298.631V55.0003H307.65Z" stroke="#E1EEFF" stroke-width="1.18" stroke-miterlimit="22.9256"/>
<path d="M298.631 55.0003V64H289.612V55.0003H298.631Z" stroke="#E1EEFF" stroke-width="1.18" stroke-miterlimit="22.9256"/>
<path d="M289.612 55.0003V64H280.593V55.0003H289.612Z" stroke="#E1EEFF" stroke-width="1.18" stroke-miterlimit="22.9256"/>
<path d="M280.593 55.0003V64H271.574V55.0003H280.593Z" stroke="#E1EEFF" stroke-width="1.18" stroke-miterlimit="22.9256"/>
<path d="M271.574 55.0003V64H262.555V55.0003H271.574Z" stroke="#E1EEFF" stroke-width="1.18" stroke-miterlimit="22.9256"/>
<path d="M262.555 55.0003V64H253.536V55.0003H262.555Z" stroke="#E1EEFF" stroke-width="1.18" stroke-miterlimit="22.9256"/>
<path d="M253.536 55.0003V64H244.517V55.0003H253.536Z" stroke="#E1EEFF" stroke-width="1.18" stroke-miterlimit="22.9256"/>
<path d="M244.517 55.0003V64H235.498V55.0003H244.517Z" stroke="#E1EEFF" stroke-width="1.18" stroke-miterlimit="22.9256"/>
<path d="M235.498 55.0003V64H226.479V55.0003H235.498Z" stroke="#E1EEFF" stroke-width="1.18" stroke-miterlimit="22.9256"/>
<path d="M226.479 55.0003V64H217.459V55.0003H226.479Z" stroke="#E1EEFF" stroke-width="1.18" stroke-miterlimit="22.9256"/>
<path d="M217.459 55.0003V64H208.44V55.0003H217.459Z" stroke="#E1EEFF" stroke-width="1.18" stroke-miterlimit="22.9256"/>
<path d="M208.44 55.0003V64H199.421V55.0003H208.44Z" stroke="#E1EEFF" stroke-width="1.18" stroke-miterlimit="22.9256"/>
<path d="M199.421 55.0003V64H190.402V55.0003H199.421Z" stroke="#E1EEFF" stroke-width="1.18" stroke-miterlimit="22.9256"/>
<path d="M190.402 55.0003V64H181.383V55.0003H190.402Z" stroke="#E1EEFF" stroke-width="1.18" stroke-miterlimit="22.9256"/>
<path d="M181.383 55.0003V64H172.364V55.0003H181.383Z" stroke="#E1EEFF" stroke-width="1.18" stroke-miterlimit="22.9256"/>
<path d="M172.362 55.0003V64H163.343V55.0003H172.362Z" stroke="#E1EEFF" stroke-width="1.18" stroke-miterlimit="22.9256"/>
<path d="M163.343 55.0003V64H154.324V55.0003H163.343Z" stroke="#E1EEFF" stroke-width="1.18" stroke-miterlimit="22.9256"/>
<path d="M154.324 55.0003V64H145.305V55.0003H154.324Z" stroke="#E1EEFF" stroke-width="1.18" stroke-miterlimit="22.9256"/>
<path d="M145.305 55.0003V64H136.286V55.0003H145.305Z" stroke="#E1EEFF" stroke-width="1.18" stroke-miterlimit="22.9256"/>
<path d="M136.286 55.0003V64H127.267V55.0003H136.286Z" stroke="#E1EEFF" stroke-width="1.18" stroke-miterlimit="22.9256"/>
<path d="M127.267 55.0003V64H118.248V55.0003H127.267Z" stroke="#E1EEFF" stroke-width="1.18" stroke-miterlimit="22.9256"/>
<path d="M118.248 55.0003V64H109.229V55.0003H118.248Z" stroke="#E1EEFF" stroke-width="1.18" stroke-miterlimit="22.9256"/>
<path d="M109.229 55.0003V64H100.209V55.0003H109.229Z" stroke="#E1EEFF" stroke-width="1.18" stroke-miterlimit="22.9256"/>
<path d="M100.209 55.0003V64H91.1904V55.0003H100.209Z" stroke="#E1EEFF" stroke-width="1.18" stroke-miterlimit="22.9256"/>
<path d="M91.1904 55.0003V64H82.1714V55.0003H91.1904Z" stroke="#E1EEFF" stroke-width="1.18" stroke-miterlimit="22.9256"/>
<path d="M82.1714 55.0003V64H73.1523V55.0003H82.1714Z" stroke="#E1EEFF" stroke-width="1.18" stroke-miterlimit="22.9256"/>
<path d="M73.1523 55.0003V64H64.1333V55.0003H73.1523Z" stroke="#E1EEFF" stroke-width="1.18" stroke-miterlimit="22.9256"/>
<path d="M64.1333 55.0003V64H55.1142V55.0003H64.1333Z" stroke="#E1EEFF" stroke-width="1.18" stroke-miterlimit="22.9256"/>
<path d="M55.1143 55.0003V64H46.0952V55.0003H55.1143Z" stroke="#E1EEFF" stroke-width="1.18" stroke-miterlimit="22.9256"/>
<path d="M46.0952 55.0003V64H37.0761V55.0003H46.0952Z" stroke="#E1EEFF" stroke-width="1.18" stroke-miterlimit="22.9256"/>
<path d="M37.0762 55.0003V64H28.0571V55.0003H37.0762Z" stroke="#E1EEFF" stroke-width="1.18" stroke-miterlimit="22.9256"/>
<path d="M28.0571 55.0003V64H19.0381V55.0003H28.0571Z" stroke="#E1EEFF" stroke-width="1.18" stroke-miterlimit="22.9256"/>
<path d="M19.0381 55.0003V64H10.0191V55.0003H19.0381Z" stroke="#E1EEFF" stroke-width="1.18" stroke-miterlimit="22.9256"/>
<path d="M10.019 55.0003V64H0.999972V55.0003H10.019Z" stroke="#E1EEFF" stroke-width="1.18" stroke-miterlimit="22.9256"/>
<path d="M397.843 46.0007V55.0004H388.824V46.0007H397.843Z" stroke="#E1EEFF" stroke-width="1.18" stroke-miterlimit="22.9256"/>
<path d="M406.862 46.0007V55.0004H397.843V46.0007H406.862Z" stroke="#E1EEFF" stroke-width="1.18" stroke-miterlimit="22.9256"/>
<path d="M415.881 46.0007V55.0004H406.862V46.0007H415.881Z" stroke="#E1EEFF" stroke-width="1.18" stroke-miterlimit="22.9256"/>
<path d="M424.9 46.0007V55.0004H415.881V46.0007H424.9Z" stroke="#E1EEFF" stroke-width="1.18" stroke-miterlimit="22.9256"/>
<path d="M433.921 46.0007V55.0004H424.902V46.0007H433.921Z" stroke="#E1EEFF" stroke-width="1.18" stroke-miterlimit="22.9256"/>
<path d="M442.941 46.0007V55.0004H433.922V46.0007H442.941Z" stroke="#E1EEFF" stroke-width="1.18" stroke-miterlimit="22.9256"/>
<path d="M451.959 46.0007V55.0004H442.94V46.0007H451.959Z" stroke="#E1EEFF" stroke-width="1.18" stroke-miterlimit="22.9256"/>
<path d="M460.979 46.0007V55.0004H451.96V46.0007H460.979Z" stroke="#E1EEFF" stroke-width="1.18" stroke-miterlimit="22.9256"/>
<path d="M388.824 46.0007V55.0004H379.805V46.0007H388.824Z" stroke="#E1EEFF" stroke-width="1.18" stroke-miterlimit="22.9256"/>
<path d="M379.805 46.0007V55.0004H370.786V46.0007H379.805Z" stroke="#E1EEFF" stroke-width="1.18" stroke-miterlimit="22.9256"/>
<path d="M370.786 46.0007V55.0004H361.767V46.0007H370.786Z" stroke="#E1EEFF" stroke-width="1.18" stroke-miterlimit="22.9256"/>
<path d="M361.767 46.0007V55.0004H352.748V46.0007H361.767Z" stroke="#E1EEFF" stroke-width="1.18" stroke-miterlimit="22.9256"/>
<path d="M352.748 46.0007V55.0004H343.729V46.0007H352.748Z" stroke="#E1EEFF" stroke-width="1.18" stroke-miterlimit="22.9256"/>
<path d="M343.727 46.0007V55.0004H334.708V46.0007H343.727Z" stroke="#E1EEFF" stroke-width="1.18" stroke-miterlimit="22.9256"/>
<path d="M334.708 46.0007V55.0004H325.688V46.0007H334.708Z" stroke="#E1EEFF" stroke-width="1.18" stroke-miterlimit="22.9256"/>
<path d="M325.688 46.0007V55.0004H316.669V46.0007H325.688Z" stroke="#E1EEFF" stroke-width="1.18" stroke-miterlimit="22.9256"/>
<path d="M316.669 46.0007V55.0004H307.65V46.0007H316.669Z" stroke="#E1EEFF" stroke-width="1.18" stroke-miterlimit="22.9256"/>
<path d="M307.65 46.0007V55.0004H298.631V46.0007H307.65Z" stroke="#E1EEFF" stroke-width="1.18" stroke-miterlimit="22.9256"/>
<path d="M298.631 46.0007V55.0004H289.612V46.0007H298.631Z" stroke="#E1EEFF" stroke-width="1.18" stroke-miterlimit="22.9256"/>
<path d="M289.612 46.0007V55.0004H280.593V46.0007H289.612Z" stroke="#E1EEFF" stroke-width="1.18" stroke-miterlimit="22.9256"/>
<path d="M280.593 46.0007V55.0004H271.574V46.0007H280.593Z" stroke="#E1EEFF" stroke-width="1.18" stroke-miterlimit="22.9256"/>
<path d="M271.574 46.0007V55.0004H262.555V46.0007H271.574Z" stroke="#E1EEFF" stroke-width="1.18" stroke-miterlimit="22.9256"/>
<path d="M262.555 46.0007V55.0004H253.536V46.0007H262.555Z" stroke="#E1EEFF" stroke-width="1.18" stroke-miterlimit="22.9256"/>
<path d="M253.536 46.0007V55.0004H244.517V46.0007H253.536Z" stroke="#E1EEFF" stroke-width="1.18" stroke-miterlimit="22.9256"/>
<path d="M244.517 46.0007V55.0004H235.498V46.0007H244.517Z" stroke="#E1EEFF" stroke-width="1.18" stroke-miterlimit="22.9256"/>
<path d="M235.498 46.0007V55.0004H226.479V46.0007H235.498Z" stroke="#E1EEFF" stroke-width="1.18" stroke-miterlimit="22.9256"/>
<path d="M226.479 46.0007V55.0004H217.459V46.0007H226.479Z" stroke="#E1EEFF" stroke-width="1.18" stroke-miterlimit="22.9256"/>
<path d="M217.459 46.0007V55.0004H208.44V46.0007H217.459Z" stroke="#E1EEFF" stroke-width="1.18" stroke-miterlimit="22.9256"/>
<path d="M208.44 46.0007V55.0004H199.421V46.0007H208.44Z" stroke="#E1EEFF" stroke-width="1.18" stroke-miterlimit="22.9256"/>
<path d="M199.421 46.0007V55.0004H190.402V46.0007H199.421Z" stroke="#E1EEFF" stroke-width="1.18" stroke-miterlimit="22.9256"/>
<path d="M190.402 46.0007V55.0004H181.383V46.0007H190.402Z" stroke="#E1EEFF" stroke-width="1.18" stroke-miterlimit="22.9256"/>
<path d="M181.383 46.0007V55.0004H172.364V46.0007H181.383Z" stroke="#E1EEFF" stroke-width="1.18" stroke-miterlimit="22.9256"/>
<path d="M172.362 46.0007V55.0004H163.343V46.0007H172.362Z" stroke="#E1EEFF" stroke-width="1.18" stroke-miterlimit="22.9256"/>
<path d="M163.343 46.0007V55.0004H154.324V46.0007H163.343Z" stroke="#E1EEFF" stroke-width="1.18" stroke-miterlimit="22.9256"/>
<path d="M154.324 46.0007V55.0004H145.305V46.0007H154.324Z" stroke="#E1EEFF" stroke-width="1.18" stroke-miterlimit="22.9256"/>
<path d="M145.305 46.0007V55.0004H136.286V46.0007H145.305Z" stroke="#E1EEFF" stroke-width="1.18" stroke-miterlimit="22.9256"/>
<path d="M136.286 46.0007V55.0004H127.267V46.0007H136.286Z" stroke="#E1EEFF" stroke-width="1.18" stroke-miterlimit="22.9256"/>
<path d="M127.267 46.0007V55.0004H118.248V46.0007H127.267Z" stroke="#E1EEFF" stroke-width="1.18" stroke-miterlimit="22.9256"/>
<path d="M118.248 46.0007V55.0004H109.229V46.0007H118.248Z" stroke="#E1EEFF" stroke-width="1.18" stroke-miterlimit="22.9256"/>
<path d="M109.229 46.0007V55.0004H100.209V46.0007H109.229Z" stroke="#E1EEFF" stroke-width="1.18" stroke-miterlimit="22.9256"/>
<path d="M100.209 46.0007V55.0004H91.1904V46.0007H100.209Z" stroke="#E1EEFF" stroke-width="1.18" stroke-miterlimit="22.9256"/>
<path d="M91.1904 46.0007V55.0004H82.1714V46.0007H91.1904Z" stroke="#E1EEFF" stroke-width="1.18" stroke-miterlimit="22.9256"/>
<path d="M82.1714 46.0007V55.0004H73.1523V46.0007H82.1714Z" stroke="#E1EEFF" stroke-width="1.18" stroke-miterlimit="22.9256"/>
<path d="M73.1523 46.0007V55.0004H64.1333V46.0007H73.1523Z" stroke="#E1EEFF" stroke-width="1.18" stroke-miterlimit="22.9256"/>
<path d="M64.1333 46.0007V55.0004H55.1142V46.0007H64.1333Z" stroke="#E1EEFF" stroke-width="1.18" stroke-miterlimit="22.9256"/>
<path d="M55.1143 46.0007V55.0004H46.0952V46.0007H55.1143Z" stroke="#E1EEFF" stroke-width="1.18" stroke-miterlimit="22.9256"/>
<path d="M46.0952 46.0007V55.0004H37.0761V46.0007H46.0952Z" stroke="#E1EEFF" stroke-width="1.18" stroke-miterlimit="22.9256"/>
<path d="M37.0762 46.0007V55.0004H28.0571V46.0007H37.0762Z" stroke="#E1EEFF" stroke-width="1.18" stroke-miterlimit="22.9256"/>
<path d="M28.0571 46.0007V55.0004H19.0381V46.0007H28.0571Z" stroke="#E1EEFF" stroke-width="1.18" stroke-miterlimit="22.9256"/>
<path d="M19.0381 46.0007V55.0004H10.0191V46.0007H19.0381Z" stroke="#E1EEFF" stroke-width="1.18" stroke-miterlimit="22.9256"/>
<path d="M10.019 46.0007V55.0004H0.999972V46.0007H10.019Z" stroke="#E1EEFF" stroke-width="1.18" stroke-miterlimit="22.9256"/>
<path d="M397.843 37.0009V46.0006H388.824V37.0009H397.843Z" stroke="#E1EEFF" stroke-width="1.18" stroke-miterlimit="22.9256"/>
<path d="M406.862 37.0009V46.0006H397.843V37.0009H406.862Z" stroke="#E1EEFF" stroke-width="1.18" stroke-miterlimit="22.9256"/>
<path d="M415.881 37.0009V46.0006H406.862V37.0009H415.881Z" stroke="#E1EEFF" stroke-width="1.18" stroke-miterlimit="22.9256"/>
<path d="M424.9 37.0009V46.0006H415.881V37.0009H424.9Z" stroke="#E1EEFF" stroke-width="1.18" stroke-miterlimit="22.9256"/>
<path d="M433.921 37.0009V46.0006H424.902V37.0009H433.921Z" stroke="#E1EEFF" stroke-width="1.18" stroke-miterlimit="22.9256"/>
<path d="M442.941 37.0009V46.0006H433.922V37.0009H442.941Z" stroke="#E1EEFF" stroke-width="1.18" stroke-miterlimit="22.9256"/>
<path d="M451.959 37.0009V46.0006H442.94V37.0009H451.959Z" stroke="#E1EEFF" stroke-width="1.18" stroke-miterlimit="22.9256"/>
<path d="M388.824 37.0009V46.0006H379.805V37.0009H388.824Z" stroke="#E1EEFF" stroke-width="1.18" stroke-miterlimit="22.9256"/>
<path d="M379.805 37.0009V46.0006H370.786V37.0009H379.805Z" stroke="#E1EEFF" stroke-width="1.18" stroke-miterlimit="22.9256"/>
<path d="M370.786 37.0009V46.0006H361.767V37.0009H370.786Z" stroke="#E1EEFF" stroke-width="1.18" stroke-miterlimit="22.9256"/>
<path d="M361.767 37.0009V46.0006H352.748V37.0009H361.767Z" stroke="#E1EEFF" stroke-width="1.18" stroke-miterlimit="22.9256"/>
<path d="M352.748 37.0009V46.0006H343.729V37.0009H352.748Z" stroke="#E1EEFF" stroke-width="1.18" stroke-miterlimit="22.9256"/>
<path d="M343.727 37.0009V46.0006H334.708V37.0009H343.727Z" stroke="#E1EEFF" stroke-width="1.18" stroke-miterlimit="22.9256"/>
<path d="M334.708 37.0009V46.0006H325.688V37.0009H334.708Z" stroke="#E1EEFF" stroke-width="1.18" stroke-miterlimit="22.9256"/>
<path d="M325.688 37.0009V46.0006H316.669V37.0009H325.688Z" stroke="#E1EEFF" stroke-width="1.18" stroke-miterlimit="22.9256"/>
<path d="M316.669 37.0009V46.0006H307.65V37.0009H316.669Z" stroke="#E1EEFF" stroke-width="1.18" stroke-miterlimit="22.9256"/>
<path d="M307.65 37.0009V46.0006H298.631V37.0009H307.65Z" stroke="#E1EEFF" stroke-width="1.18" stroke-miterlimit="22.9256"/>
<path d="M298.631 37.0009V46.0006H289.612V37.0009H298.631Z" stroke="#E1EEFF" stroke-width="1.18" stroke-miterlimit="22.9256"/>
<path d="M289.612 37.0009V46.0006H280.593V37.0009H289.612Z" stroke="#E1EEFF" stroke-width="1.18" stroke-miterlimit="22.9256"/>
<path d="M280.593 37.0009V46.0006H271.574V37.0009H280.593Z" stroke="#E1EEFF" stroke-width="1.18" stroke-miterlimit="22.9256"/>
<path d="M271.574 37.0009V46.0006H262.555V37.0009H271.574Z" stroke="#E1EEFF" stroke-width="1.18" stroke-miterlimit="22.9256"/>
<path d="M262.555 37.0009V46.0006H253.536V37.0009H262.555Z" stroke="#E1EEFF" stroke-width="1.18" stroke-miterlimit="22.9256"/>
<path d="M253.536 37.0009V46.0006H244.517V37.0009H253.536Z" stroke="#E1EEFF" stroke-width="1.18" stroke-miterlimit="22.9256"/>
<path d="M244.517 37.0009V46.0006H235.498V37.0009H244.517Z" stroke="#E1EEFF" stroke-width="1.18" stroke-miterlimit="22.9256"/>
<path d="M235.498 37.0009V46.0006H226.479V37.0009H235.498Z" stroke="#E1EEFF" stroke-width="1.18" stroke-miterlimit="22.9256"/>
<path d="M226.479 37.0009V46.0006H217.459V37.0009H226.479Z" stroke="#E1EEFF" stroke-width="1.18" stroke-miterlimit="22.9256"/>
<path d="M217.459 37.0009V46.0006H208.44V37.0009H217.459Z" stroke="#E1EEFF" stroke-width="1.18" stroke-miterlimit="22.9256"/>
<path d="M208.44 37.0009V46.0006H199.421V37.0009H208.44Z" stroke="#E1EEFF" stroke-width="1.18" stroke-miterlimit="22.9256"/>
<path d="M199.421 37.0009V46.0006H190.402V37.0009H199.421Z" stroke="#E1EEFF" stroke-width="1.18" stroke-miterlimit="22.9256"/>
<path d="M190.402 37.0009V46.0006H181.383V37.0009H190.402Z" stroke="#E1EEFF" stroke-width="1.18" stroke-miterlimit="22.9256"/>
<path d="M181.383 37.0009V46.0006H172.364V37.0009H181.383Z" stroke="#E1EEFF" stroke-width="1.18" stroke-miterlimit="22.9256"/>
<path d="M172.362 37.0009V46.0006H163.343V37.0009H172.362Z" stroke="#E1EEFF" stroke-width="1.18" stroke-miterlimit="22.9256"/>
<path d="M163.343 37.0009V46.0006H154.324V37.0009H163.343Z" stroke="#E1EEFF" stroke-width="1.18" stroke-miterlimit="22.9256"/>
<path d="M154.324 37.0009V46.0006H145.305V37.0009H154.324Z" stroke="#E1EEFF" stroke-width="1.18" stroke-miterlimit="22.9256"/>
<path d="M145.305 37.0009V46.0006H136.286V37.0009H145.305Z" stroke="#E1EEFF" stroke-width="1.18" stroke-miterlimit="22.9256"/>
<path d="M136.286 37.0009V46.0006H127.267V37.0009H136.286Z" stroke="#E1EEFF" stroke-width="1.18" stroke-miterlimit="22.9256"/>
<path d="M127.267 37.0009V46.0006H118.248V37.0009H127.267Z" stroke="#E1EEFF" stroke-width="1.18" stroke-miterlimit="22.9256"/>
<path d="M118.248 37.0009V46.0006H109.229V37.0009H118.248Z" stroke="#E1EEFF" stroke-width="1.18" stroke-miterlimit="22.9256"/>
<path d="M109.229 37.0009V46.0006H100.209V37.0009H109.229Z" stroke="#E1EEFF" stroke-width="1.18" stroke-miterlimit="22.9256"/>
<path d="M100.209 37.0009V46.0006H91.1904V37.0009H100.209Z" stroke="#E1EEFF" stroke-width="1.18" stroke-miterlimit="22.9256"/>
<path d="M91.1904 37.0009V46.0006H82.1714V37.0009H91.1904Z" stroke="#E1EEFF" stroke-width="1.18" stroke-miterlimit="22.9256"/>
<path d="M82.1714 37.0009V46.0006H73.1523V37.0009H82.1714Z" stroke="#E1EEFF" stroke-width="1.18" stroke-miterlimit="22.9256"/>
<path d="M73.1523 37.0009V46.0006H64.1333V37.0009H73.1523Z" stroke="#E1EEFF" stroke-width="1.18" stroke-miterlimit="22.9256"/>
<path d="M64.1333 37.0009V46.0006H55.1142V37.0009H64.1333Z" stroke="#E1EEFF" stroke-width="1.18" stroke-miterlimit="22.9256"/>
<path d="M55.1143 37.0009V46.0006H46.0952V37.0009H55.1143Z" stroke="#E1EEFF" stroke-width="1.18" stroke-miterlimit="22.9256"/>
<path d="M46.0952 37.0009V46.0006H37.0761V37.0009H46.0952Z" stroke="#E1EEFF" stroke-width="1.18" stroke-miterlimit="22.9256"/>
<path d="M37.0762 37.0009V46.0006H28.0571V37.0009H37.0762Z" stroke="#E1EEFF" stroke-width="1.18" stroke-miterlimit="22.9256"/>
<path d="M28.0571 37.0009V46.0006H19.0381V37.0009H28.0571Z" stroke="#E1EEFF" stroke-width="1.18" stroke-miterlimit="22.9256"/>
<path d="M19.0381 37.0009V46.0006H10.0191V37.0009H19.0381Z" stroke="#E1EEFF" stroke-width="1.18" stroke-miterlimit="22.9256"/>
<path d="M10.019 37.0009V46.0006H0.999972V37.0009H10.019Z" stroke="#E1EEFF" stroke-width="1.18" stroke-miterlimit="22.9256"/>
<path d="M397.843 27.9991V36.9988H388.824V27.9991H397.843Z" stroke="#E1EEFF" stroke-width="1.18" stroke-miterlimit="22.9256"/>
<path d="M406.862 27.9991V36.9988H397.843V27.9991H406.862Z" stroke="#E1EEFF" stroke-width="1.18" stroke-miterlimit="22.9256"/>
<path d="M415.881 27.9991V36.9988H406.862V27.9991H415.881Z" stroke="#E1EEFF" stroke-width="1.18" stroke-miterlimit="22.9256"/>
<path d="M424.9 27.9991V36.9988H415.881V27.9991H424.9Z" stroke="#E1EEFF" stroke-width="1.18" stroke-miterlimit="22.9256"/>
<path d="M433.921 27.9991V36.9988H424.902V27.9991H433.921Z" stroke="#E1EEFF" stroke-width="1.18" stroke-miterlimit="22.9256"/>
<path d="M442.941 27.9991V36.9988H433.922V27.9991H442.941Z" stroke="#E1EEFF" stroke-width="1.18" stroke-miterlimit="22.9256"/>
<path d="M388.824 27.9991V36.9988H379.805V27.9991H388.824Z" stroke="#E1EEFF" stroke-width="1.18" stroke-miterlimit="22.9256"/>
<path d="M379.805 27.9991V36.9988H370.786V27.9991H379.805Z" stroke="#E1EEFF" stroke-width="1.18" stroke-miterlimit="22.9256"/>
<path d="M370.786 27.9991V36.9988H361.767V27.9991H370.786Z" stroke="#E1EEFF" stroke-width="1.18" stroke-miterlimit="22.9256"/>
<path d="M361.767 27.9991V36.9988H352.748V27.9991H361.767Z" stroke="#E1EEFF" stroke-width="1.18" stroke-miterlimit="22.9256"/>
<path d="M352.748 27.9991V36.9988H343.729V27.9991H352.748Z" stroke="#E1EEFF" stroke-width="1.18" stroke-miterlimit="22.9256"/>
<path d="M343.727 27.9991V36.9988H334.708V27.9991H343.727Z" stroke="#E1EEFF" stroke-width="1.18" stroke-miterlimit="22.9256"/>
<path d="M334.708 27.9991V36.9988H325.688V27.9991H334.708Z" stroke="#E1EEFF" stroke-width="1.18" stroke-miterlimit="22.9256"/>
<path d="M325.688 27.9991V36.9988H316.669V27.9991H325.688Z" stroke="#E1EEFF" stroke-width="1.18" stroke-miterlimit="22.9256"/>
<path d="M316.669 27.9991V36.9988H307.65V27.9991H316.669Z" stroke="#E1EEFF" stroke-width="1.18" stroke-miterlimit="22.9256"/>
<path d="M307.65 27.9991V36.9988H298.631V27.9991H307.65Z" stroke="#E1EEFF" stroke-width="1.18" stroke-miterlimit="22.9256"/>
<path d="M298.631 27.9991V36.9988H289.612V27.9991H298.631Z" stroke="#E1EEFF" stroke-width="1.18" stroke-miterlimit="22.9256"/>
<path d="M289.612 27.9991V36.9988H280.593V27.9991H289.612Z" stroke="#E1EEFF" stroke-width="1.18" stroke-miterlimit="22.9256"/>
<path d="M280.593 27.9991V36.9988H271.574V27.9991H280.593Z" stroke="#E1EEFF" stroke-width="1.18" stroke-miterlimit="22.9256"/>
<path d="M271.574 27.9991V36.9988H262.555V27.9991H271.574Z" stroke="#E1EEFF" stroke-width="1.18" stroke-miterlimit="22.9256"/>
<path d="M262.555 27.9991V36.9988H253.536V27.9991H262.555Z" stroke="#E1EEFF" stroke-width="1.18" stroke-miterlimit="22.9256"/>
<path d="M253.536 27.9991V36.9988H244.517V27.9991H253.536Z" stroke="#E1EEFF" stroke-width="1.18" stroke-miterlimit="22.9256"/>
<path d="M244.517 27.9991V36.9988H235.498V27.9991H244.517Z" stroke="#E1EEFF" stroke-width="1.18" stroke-miterlimit="22.9256"/>
<path d="M235.498 27.9991V36.9988H226.479V27.9991H235.498Z" stroke="#E1EEFF" stroke-width="1.18" stroke-miterlimit="22.9256"/>
<path d="M226.479 27.9991V36.9988H217.459V27.9991H226.479Z" stroke="#E1EEFF" stroke-width="1.18" stroke-miterlimit="22.9256"/>
<path d="M217.459 27.9991V36.9988H208.44V27.9991H217.459Z" stroke="#E1EEFF" stroke-width="1.18" stroke-miterlimit="22.9256"/>
<path d="M208.44 27.9991V36.9988H199.421V27.9991H208.44Z" stroke="#E1EEFF" stroke-width="1.18" stroke-miterlimit="22.9256"/>
<path d="M199.421 27.9991V36.9988H190.402V27.9991H199.421Z" stroke="#E1EEFF" stroke-width="1.18" stroke-miterlimit="22.9256"/>
<path d="M190.402 27.9991V36.9988H181.383V27.9991H190.402Z" stroke="#E1EEFF" stroke-width="1.18" stroke-miterlimit="22.9256"/>
<path d="M181.383 27.9991V36.9988H172.364V27.9991H181.383Z" stroke="#E1EEFF" stroke-width="1.18" stroke-miterlimit="22.9256"/>
<path d="M172.362 27.9991V36.9988H163.343V27.9991H172.362Z" stroke="#E1EEFF" stroke-width="1.18" stroke-miterlimit="22.9256"/>
<path d="M163.343 27.9991V36.9988H154.324V27.9991H163.343Z" stroke="#E1EEFF" stroke-width="1.18" stroke-miterlimit="22.9256"/>
<path d="M154.324 27.9991V36.9988H145.305V27.9991H154.324Z" stroke="#E1EEFF" stroke-width="1.18" stroke-miterlimit="22.9256"/>
<path d="M145.305 27.9991V36.9988H136.286V27.9991H145.305Z" stroke="#E1EEFF" stroke-width="1.18" stroke-miterlimit="22.9256"/>
<path d="M136.286 27.9991V36.9988H127.267V27.9991H136.286Z" stroke="#E1EEFF" stroke-width="1.18" stroke-miterlimit="22.9256"/>
<path d="M127.267 27.9991V36.9988H118.248V27.9991H127.267Z" stroke="#E1EEFF" stroke-width="1.18" stroke-miterlimit="22.9256"/>
<path d="M118.248 27.9991V36.9988H109.229V27.9991H118.248Z" stroke="#E1EEFF" stroke-width="1.18" stroke-miterlimit="22.9256"/>
<path d="M109.229 27.9991V36.9988H100.209V27.9991H109.229Z" stroke="#E1EEFF" stroke-width="1.18" stroke-miterlimit="22.9256"/>
<path d="M100.209 27.9991V36.9988H91.1904V27.9991H100.209Z" stroke="#E1EEFF" stroke-width="1.18" stroke-miterlimit="22.9256"/>
<path d="M91.1904 27.9991V36.9988H82.1714V27.9991H91.1904Z" stroke="#E1EEFF" stroke-width="1.18" stroke-miterlimit="22.9256"/>
<path d="M82.1714 27.9991V36.9988H73.1523V27.9991H82.1714Z" stroke="#E1EEFF" stroke-width="1.18" stroke-miterlimit="22.9256"/>
<path d="M73.1523 27.9991V36.9988H64.1333V27.9991H73.1523Z" stroke="#E1EEFF" stroke-width="1.18" stroke-miterlimit="22.9256"/>
<path d="M64.1333 27.9991V36.9988H55.1142V27.9991H64.1333Z" stroke="#E1EEFF" stroke-width="1.18" stroke-miterlimit="22.9256"/>
<path d="M55.1143 27.9991V36.9988H46.0952V27.9991H55.1143Z" stroke="#E1EEFF" stroke-width="1.18" stroke-miterlimit="22.9256"/>
<path d="M46.0952 27.9991V36.9988H37.0761V27.9991H46.0952Z" stroke="#E1EEFF" stroke-width="1.18" stroke-miterlimit="22.9256"/>
<path d="M37.0762 27.9991V36.9988H28.0571V27.9991H37.0762Z" stroke="#E1EEFF" stroke-width="1.18" stroke-miterlimit="22.9256"/>
<path d="M28.0571 27.9991V36.9988H19.0381V27.9991H28.0571Z" stroke="#E1EEFF" stroke-width="1.18" stroke-miterlimit="22.9256"/>
<path d="M19.0381 27.9991V36.9988H10.0191V27.9991H19.0381Z" stroke="#E1EEFF" stroke-width="1.18" stroke-miterlimit="22.9256"/>
<path d="M10.019 27.9991V36.9988H0.999972V27.9991H10.019Z" stroke="#E1EEFF" stroke-width="1.18" stroke-miterlimit="22.9256"/>
<path d="M397.843 18.9993V27.999H388.824V18.9993H397.843Z" stroke="#E1EEFF" stroke-width="1.18" stroke-miterlimit="22.9256"/>
<path d="M406.862 18.9993V27.999H397.843V18.9993H406.862Z" stroke="#E1EEFF" stroke-width="1.18" stroke-miterlimit="22.9256"/>
<path d="M415.881 18.9993V27.999H406.862V18.9993H415.881Z" stroke="#E1EEFF" stroke-width="1.18" stroke-miterlimit="22.9256"/>
<path d="M424.9 18.9993V27.999H415.881V18.9993H424.9Z" stroke="#E1EEFF" stroke-width="1.18" stroke-miterlimit="22.9256"/>
<path d="M433.921 18.9993V27.999H424.902V18.9993H433.921Z" stroke="#E1EEFF" stroke-width="1.18" stroke-miterlimit="22.9256"/>
<path d="M388.824 18.9993V27.999H379.805V18.9993H388.824Z" stroke="#E1EEFF" stroke-width="1.18" stroke-miterlimit="22.9256"/>
<path d="M379.805 18.9993V27.999H370.786V18.9993H379.805Z" stroke="#E1EEFF" stroke-width="1.18" stroke-miterlimit="22.9256"/>
<path d="M370.786 18.9993V27.999H361.767V18.9993H370.786Z" stroke="#E1EEFF" stroke-width="1.18" stroke-miterlimit="22.9256"/>
<path d="M361.767 18.9993V27.999H352.748V18.9993H361.767Z" stroke="#E1EEFF" stroke-width="1.18" stroke-miterlimit="22.9256"/>
<path d="M352.748 18.9993V27.999H343.729V18.9993H352.748Z" stroke="#E1EEFF" stroke-width="1.18" stroke-miterlimit="22.9256"/>
<path d="M343.727 18.9993V27.999H334.708V18.9993H343.727Z" stroke="#E1EEFF" stroke-width="1.18" stroke-miterlimit="22.9256"/>
<path d="M334.708 18.9993V27.999H325.688V18.9993H334.708Z" stroke="#E1EEFF" stroke-width="1.18" stroke-miterlimit="22.9256"/>
<path d="M325.688 18.9993V27.999H316.669V18.9993H325.688Z" stroke="#E1EEFF" stroke-width="1.18" stroke-miterlimit="22.9256"/>
<path d="M316.669 18.9993V27.999H307.65V18.9993H316.669Z" stroke="#E1EEFF" stroke-width="1.18" stroke-miterlimit="22.9256"/>
<path d="M307.65 18.9993V27.999H298.631V18.9993H307.65Z" stroke="#E1EEFF" stroke-width="1.18" stroke-miterlimit="22.9256"/>
<path d="M298.631 18.9993V27.999H289.612V18.9993H298.631Z" stroke="#E1EEFF" stroke-width="1.18" stroke-miterlimit="22.9256"/>
<path d="M289.612 18.9993V27.999H280.593V18.9993H289.612Z" stroke="#E1EEFF" stroke-width="1.18" stroke-miterlimit="22.9256"/>
<path d="M280.593 18.9993V27.999H271.574V18.9993H280.593Z" stroke="#E1EEFF" stroke-width="1.18" stroke-miterlimit="22.9256"/>
<path d="M271.574 18.9993V27.999H262.555V18.9993H271.574Z" stroke="#E1EEFF" stroke-width="1.18" stroke-miterlimit="22.9256"/>
<path d="M262.555 18.9993V27.999H253.536V18.9993H262.555Z" stroke="#E1EEFF" stroke-width="1.18" stroke-miterlimit="22.9256"/>
<path d="M253.536 18.9993V27.999H244.517V18.9993H253.536Z" stroke="#E1EEFF" stroke-width="1.18" stroke-miterlimit="22.9256"/>
<path d="M244.517 18.9993V27.999H235.498V18.9993H244.517Z" stroke="#E1EEFF" stroke-width="1.18" stroke-miterlimit="22.9256"/>
<path d="M235.498 18.9993V27.999H226.479V18.9993H235.498Z" stroke="#E1EEFF" stroke-width="1.18" stroke-miterlimit="22.9256"/>
<path d="M226.479 18.9993V27.999H217.459V18.9993H226.479Z" stroke="#E1EEFF" stroke-width="1.18" stroke-miterlimit="22.9256"/>
<path d="M217.459 18.9993V27.999H208.44V18.9993H217.459Z" stroke="#E1EEFF" stroke-width="1.18" stroke-miterlimit="22.9256"/>
<path d="M208.44 18.9993V27.999H199.421V18.9993H208.44Z" stroke="#E1EEFF" stroke-width="1.18" stroke-miterlimit="22.9256"/>
<path d="M199.421 18.9993V27.999H190.402V18.9993H199.421Z" stroke="#E1EEFF" stroke-width="1.18" stroke-miterlimit="22.9256"/>
<path d="M190.402 18.9993V27.999H181.383V18.9993H190.402Z" stroke="#E1EEFF" stroke-width="1.18" stroke-miterlimit="22.9256"/>
<path d="M181.383 18.9993V27.999H172.364V18.9993H181.383Z" stroke="#E1EEFF" stroke-width="1.18" stroke-miterlimit="22.9256"/>
<path d="M172.362 18.9993V27.999H163.343V18.9993H172.362Z" stroke="#E1EEFF" stroke-width="1.18" stroke-miterlimit="22.9256"/>
<path d="M163.343 18.9993V27.999H154.324V18.9993H163.343Z" stroke="#E1EEFF" stroke-width="1.18" stroke-miterlimit="22.9256"/>
<path d="M154.324 18.9993V27.999H145.305V18.9993H154.324Z" stroke="#E1EEFF" stroke-width="1.18" stroke-miterlimit="22.9256"/>
<path d="M145.305 18.9993V27.999H136.286V18.9993H145.305Z" stroke="#E1EEFF" stroke-width="1.18" stroke-miterlimit="22.9256"/>
<path d="M136.286 18.9993V27.999H127.267V18.9993H136.286Z" stroke="#E1EEFF" stroke-width="1.18" stroke-miterlimit="22.9256"/>
<path d="M127.267 18.9993V27.999H118.248V18.9993H127.267Z" stroke="#E1EEFF" stroke-width="1.18" stroke-miterlimit="22.9256"/>
<path d="M118.248 18.9993V27.999H109.229V18.9993H118.248Z" stroke="#E1EEFF" stroke-width="1.18" stroke-miterlimit="22.9256"/>
<path d="M109.229 18.9993V27.999H100.209V18.9993H109.229Z" stroke="#E1EEFF" stroke-width="1.18" stroke-miterlimit="22.9256"/>
<path d="M100.209 18.9993V27.999H91.1904V18.9993H100.209Z" stroke="#E1EEFF" stroke-width="1.18" stroke-miterlimit="22.9256"/>
<path d="M91.1904 18.9993V27.999H82.1714V18.9993H91.1904Z" stroke="#E1EEFF" stroke-width="1.18" stroke-miterlimit="22.9256"/>
<path d="M82.1714 18.9993V27.999H73.1523V18.9993H82.1714Z" stroke="#E1EEFF" stroke-width="1.18" stroke-miterlimit="22.9256"/>
<path d="M73.1523 18.9993V27.999H64.1333V18.9993H73.1523Z" stroke="#E1EEFF" stroke-width="1.18" stroke-miterlimit="22.9256"/>
<path d="M64.1333 18.9993V27.999H55.1142V18.9993H64.1333Z" stroke="#E1EEFF" stroke-width="1.18" stroke-miterlimit="22.9256"/>
<path d="M55.1143 18.9993V27.999H46.0952V18.9993H55.1143Z" stroke="#E1EEFF" stroke-width="1.18" stroke-miterlimit="22.9256"/>
<path d="M46.0952 18.9993V27.999H37.0761V18.9993H46.0952Z" stroke="#E1EEFF" stroke-width="1.18" stroke-miterlimit="22.9256"/>
<path d="M37.0762 18.9993V27.999H28.0571V18.9993H37.0762Z" stroke="#E1EEFF" stroke-width="1.18" stroke-miterlimit="22.9256"/>
<path d="M28.0571 18.9993V27.999H19.0381V18.9993H28.0571Z" stroke="#E1EEFF" stroke-width="1.18" stroke-miterlimit="22.9256"/>
<path d="M19.0381 18.9993V27.999H10.0191V18.9993H19.0381Z" stroke="#E1EEFF" stroke-width="1.18" stroke-miterlimit="22.9256"/>
<path d="M10.019 18.9993V27.999H0.999972V18.9993H10.019Z" stroke="#E1EEFF" stroke-width="1.18" stroke-miterlimit="22.9256"/>
<path d="M397.843 9.99969V18.9994H388.824V9.99969H397.843Z" stroke="#E1EEFF" stroke-width="1.18" stroke-miterlimit="22.9256"/>
<path d="M406.862 9.99969V18.9994H397.843V9.99969H406.862Z" stroke="#E1EEFF" stroke-width="1.18" stroke-miterlimit="22.9256"/>
<path d="M415.881 9.99969V18.9994H406.862V9.99969H415.881Z" stroke="#E1EEFF" stroke-width="1.18" stroke-miterlimit="22.9256"/>
<path d="M424.9 9.99969V18.9994H415.881V9.99969H424.9Z" stroke="#E1EEFF" stroke-width="1.18" stroke-miterlimit="22.9256"/>
<path d="M388.824 9.99969V18.9994H379.805V9.99969H388.824Z" stroke="#E1EEFF" stroke-width="1.18" stroke-miterlimit="22.9256"/>
<path d="M379.805 9.99969V18.9994H370.786V9.99969H379.805Z" stroke="#E1EEFF" stroke-width="1.18" stroke-miterlimit="22.9256"/>
<path d="M370.786 9.99969V18.9994H361.767V9.99969H370.786Z" stroke="#E1EEFF" stroke-width="1.18" stroke-miterlimit="22.9256"/>
<path d="M361.767 9.99969V18.9994H352.748V9.99969H361.767Z" stroke="#E1EEFF" stroke-width="1.18" stroke-miterlimit="22.9256"/>
<path d="M352.748 9.99969V18.9994H343.729V9.99969H352.748Z" stroke="#E1EEFF" stroke-width="1.18" stroke-miterlimit="22.9256"/>
<path d="M343.727 9.99969V18.9994H334.708V9.99969H343.727Z" stroke="#E1EEFF" stroke-width="1.18" stroke-miterlimit="22.9256"/>
<path d="M334.708 9.99969V18.9994H325.688V9.99969H334.708Z" stroke="#E1EEFF" stroke-width="1.18" stroke-miterlimit="22.9256"/>
<path d="M325.688 9.99969V18.9994H316.669V9.99969H325.688Z" stroke="#E1EEFF" stroke-width="1.18" stroke-miterlimit="22.9256"/>
<path d="M316.669 9.99969V18.9994H307.65V9.99969H316.669Z" stroke="#E1EEFF" stroke-width="1.18" stroke-miterlimit="22.9256"/>
<path d="M307.65 9.99969V18.9994H298.631V9.99969H307.65Z" stroke="#E1EEFF" stroke-width="1.18" stroke-miterlimit="22.9256"/>
<path d="M298.631 9.99969V18.9994H289.612V9.99969H298.631Z" stroke="#E1EEFF" stroke-width="1.18" stroke-miterlimit="22.9256"/>
<path d="M289.612 9.99969V18.9994H280.593V9.99969H289.612Z" stroke="#E1EEFF" stroke-width="1.18" stroke-miterlimit="22.9256"/>
<path d="M280.593 9.99969V18.9994H271.574V9.99969H280.593Z" stroke="#E1EEFF" stroke-width="1.18" stroke-miterlimit="22.9256"/>
<path d="M271.574 9.99969V18.9994H262.555V9.99969H271.574Z" stroke="#E1EEFF" stroke-width="1.18" stroke-miterlimit="22.9256"/>
<path d="M262.555 9.99969V18.9994H253.536V9.99969H262.555Z" stroke="#E1EEFF" stroke-width="1.18" stroke-miterlimit="22.9256"/>
<path d="M253.536 9.99969V18.9994H244.517V9.99969H253.536Z" stroke="#E1EEFF" stroke-width="1.18" stroke-miterlimit="22.9256"/>
<path d="M244.517 9.99969V18.9994H235.498V9.99969H244.517Z" stroke="#E1EEFF" stroke-width="1.18" stroke-miterlimit="22.9256"/>
<path d="M235.498 9.99969V18.9994H226.479V9.99969H235.498Z" stroke="#E1EEFF" stroke-width="1.18" stroke-miterlimit="22.9256"/>
<path d="M226.479 9.99969V18.9994H217.459V9.99969H226.479Z" stroke="#E1EEFF" stroke-width="1.18" stroke-miterlimit="22.9256"/>
<path d="M217.459 9.99969V18.9994H208.44V9.99969H217.459Z" stroke="#E1EEFF" stroke-width="1.18" stroke-miterlimit="22.9256"/>
<path d="M208.44 9.99969V18.9994H199.421V9.99969H208.44Z" stroke="#E1EEFF" stroke-width="1.18" stroke-miterlimit="22.9256"/>
<path d="M199.421 9.99969V18.9994H190.402V9.99969H199.421Z" stroke="#E1EEFF" stroke-width="1.18" stroke-miterlimit="22.9256"/>
<path d="M190.402 9.99969V18.9994H181.383V9.99969H190.402Z" stroke="#E1EEFF" stroke-width="1.18" stroke-miterlimit="22.9256"/>
<path d="M181.383 9.99969V18.9994H172.364V9.99969H181.383Z" stroke="#E1EEFF" stroke-width="1.18" stroke-miterlimit="22.9256"/>
<path d="M172.362 9.99969V18.9994H163.343V9.99969H172.362Z" stroke="#E1EEFF" stroke-width="1.18" stroke-miterlimit="22.9256"/>
<path d="M163.343 9.99969V18.9994H154.324V9.99969H163.343Z" stroke="#E1EEFF" stroke-width="1.18" stroke-miterlimit="22.9256"/>
<path d="M154.324 9.99969V18.9994H145.305V9.99969H154.324Z" stroke="#E1EEFF" stroke-width="1.18" stroke-miterlimit="22.9256"/>
<path d="M145.305 9.99969V18.9994H136.286V9.99969H145.305Z" stroke="#E1EEFF" stroke-width="1.18" stroke-miterlimit="22.9256"/>
<path d="M136.286 9.99969V18.9994H127.267V9.99969H136.286Z" stroke="#E1EEFF" stroke-width="1.18" stroke-miterlimit="22.9256"/>
<path d="M127.267 9.99969V18.9994H118.248V9.99969H127.267Z" stroke="#E1EEFF" stroke-width="1.18" stroke-miterlimit="22.9256"/>
<path d="M118.248 9.99969V18.9994H109.229V9.99969H118.248Z" stroke="#E1EEFF" stroke-width="1.18" stroke-miterlimit="22.9256"/>
<path d="M109.229 9.99969V18.9994H100.209V9.99969H109.229Z" stroke="#E1EEFF" stroke-width="1.18" stroke-miterlimit="22.9256"/>
<path d="M100.209 9.99969V18.9994H91.1904V9.99969H100.209Z" stroke="#E1EEFF" stroke-width="1.18" stroke-miterlimit="22.9256"/>
<path d="M91.1904 9.99969V18.9994H82.1714V9.99969H91.1904Z" stroke="#E1EEFF" stroke-width="1.18" stroke-miterlimit="22.9256"/>
<path d="M82.1714 9.99969V18.9994H73.1523V9.99969H82.1714Z" stroke="#E1EEFF" stroke-width="1.18" stroke-miterlimit="22.9256"/>
<path d="M73.1523 9.99969V18.9994H64.1333V9.99969H73.1523Z" stroke="#E1EEFF" stroke-width="1.18" stroke-miterlimit="22.9256"/>
<path d="M64.1333 9.99969V18.9994H55.1142V9.99969H64.1333Z" stroke="#E1EEFF" stroke-width="1.18" stroke-miterlimit="22.9256"/>
<path d="M55.1143 9.99969V18.9994H46.0952V9.99969H55.1143Z" stroke="#E1EEFF" stroke-width="1.18" stroke-miterlimit="22.9256"/>
<path d="M46.0952 9.99969V18.9994H37.0761V9.99969H46.0952Z" stroke="#E1EEFF" stroke-width="1.18" stroke-miterlimit="22.9256"/>
<path d="M37.0762 9.99969V18.9994H28.0571V9.99969H37.0762Z" stroke="#E1EEFF" stroke-width="1.18" stroke-miterlimit="22.9256"/>
<path d="M28.0571 9.99969V18.9994H19.0381V9.99969H28.0571Z" stroke="#E1EEFF" stroke-width="1.18" stroke-miterlimit="22.9256"/>
<path d="M19.0381 9.99969V18.9994H10.0191V9.99969H19.0381Z" stroke="#E1EEFF" stroke-width="1.18" stroke-miterlimit="22.9256"/>
<path d="M10.019 9.99969V18.9994H0.999972V9.99969H10.019Z" stroke="#E1EEFF" stroke-width="1.18" stroke-miterlimit="22.9256"/>
<path d="M397.843 0.999936V9.99963H388.824V0.999936H397.843Z" stroke="#E1EEFF" stroke-width="1.18" stroke-miterlimit="22.9256"/>
<path d="M406.862 0.999936V9.99963H397.843V0.999936H406.862Z" stroke="#E1EEFF" stroke-width="1.18" stroke-miterlimit="22.9256"/>
<path d="M415.881 0.999936V9.99963H406.862V0.999936H415.881Z" stroke="#E1EEFF" stroke-width="1.18" stroke-miterlimit="22.9256"/>
<path d="M388.824 0.999936V9.99963H379.805V0.999936H388.824Z" stroke="#E1EEFF" stroke-width="1.18" stroke-miterlimit="22.9256"/>
<path d="M379.805 0.999936V9.99963H370.786V0.999936H379.805Z" stroke="#E1EEFF" stroke-width="1.18" stroke-miterlimit="22.9256"/>
<path d="M370.786 0.999936V9.99963H361.767V0.999936H370.786Z" stroke="#E1EEFF" stroke-width="1.18" stroke-miterlimit="22.9256"/>
<path d="M361.767 0.999936V9.99963H352.748V0.999936H361.767Z" stroke="#E1EEFF" stroke-width="1.18" stroke-miterlimit="22.9256"/>
<path d="M352.748 0.999936V9.99963H343.729V0.999936H352.748Z" stroke="#E1EEFF" stroke-width="1.18" stroke-miterlimit="22.9256"/>
<path d="M343.727 0.999936V9.99963H334.708V0.999936H343.727Z" stroke="#E1EEFF" stroke-width="1.18" stroke-miterlimit="22.9256"/>
<path d="M334.708 0.999936V9.99963H325.688V0.999936H334.708Z" stroke="#E1EEFF" stroke-width="1.18" stroke-miterlimit="22.9256"/>
<path d="M325.688 0.999936V9.99963H316.669V0.999936H325.688Z" stroke="#E1EEFF" stroke-width="1.18" stroke-miterlimit="22.9256"/>
<path d="M316.669 0.999936V9.99963H307.65V0.999936H316.669Z" stroke="#E1EEFF" stroke-width="1.18" stroke-miterlimit="22.9256"/>
<path d="M307.65 0.999936V9.99963H298.631V0.999936H307.65Z" stroke="#E1EEFF" stroke-width="1.18" stroke-miterlimit="22.9256"/>
<path d="M298.631 0.999936V9.99963H289.612V0.999936H298.631Z" stroke="#E1EEFF" stroke-width="1.18" stroke-miterlimit="22.9256"/>
<path d="M289.612 0.999936V9.99963H280.593V0.999936H289.612Z" stroke="#E1EEFF" stroke-width="1.18" stroke-miterlimit="22.9256"/>
<path d="M280.593 0.999936V9.99963H271.574V0.999936H280.593Z" stroke="#E1EEFF" stroke-width="1.18" stroke-miterlimit="22.9256"/>
<path d="M271.574 0.999936V9.99963H262.555V0.999936H271.574Z" stroke="#E1EEFF" stroke-width="1.18" stroke-miterlimit="22.9256"/>
<path d="M262.555 0.999936V9.99963H253.536V0.999936H262.555Z" stroke="#E1EEFF" stroke-width="1.18" stroke-miterlimit="22.9256"/>
<path d="M253.536 0.999936V9.99963H244.517V0.999936H253.536Z" stroke="#E1EEFF" stroke-width="1.18" stroke-miterlimit="22.9256"/>
<path d="M244.517 0.999936V9.99963H235.498V0.999936H244.517Z" stroke="#E1EEFF" stroke-width="1.18" stroke-miterlimit="22.9256"/>
<path d="M235.498 0.999936V9.99963H226.479V0.999936H235.498Z" stroke="#E1EEFF" stroke-width="1.18" stroke-miterlimit="22.9256"/>
<path d="M226.479 0.999936V9.99963H217.459V0.999936H226.479Z" stroke="#E1EEFF" stroke-width="1.18" stroke-miterlimit="22.9256"/>
<path d="M217.459 0.999936V9.99963H208.44V0.999936H217.459Z" stroke="#E1EEFF" stroke-width="1.18" stroke-miterlimit="22.9256"/>
<path d="M208.44 0.999936V9.99963H199.421V0.999936H208.44Z" stroke="#E1EEFF" stroke-width="1.18" stroke-miterlimit="22.9256"/>
<path d="M199.421 0.999936V9.99963H190.402V0.999936H199.421Z" stroke="#E1EEFF" stroke-width="1.18" stroke-miterlimit="22.9256"/>
<path d="M190.402 0.999936V9.99963H181.383V0.999936H190.402Z" stroke="#E1EEFF" stroke-width="1.18" stroke-miterlimit="22.9256"/>
<path d="M181.383 0.999936V9.99963H172.364V0.999936H181.383Z" stroke="#E1EEFF" stroke-width="1.18" stroke-miterlimit="22.9256"/>
<path d="M172.362 0.999936V9.99963H163.343V0.999936H172.362Z" stroke="#E1EEFF" stroke-width="1.18" stroke-miterlimit="22.9256"/>
<path d="M163.343 0.999936V9.99963H154.324V0.999936H163.343Z" stroke="#E1EEFF" stroke-width="1.18" stroke-miterlimit="22.9256"/>
<path d="M154.324 0.999936V9.99963H145.305V0.999936H154.324Z" stroke="#E1EEFF" stroke-width="1.18" stroke-miterlimit="22.9256"/>
<path d="M145.305 0.999936V9.99963H136.286V0.999936H145.305Z" stroke="#E1EEFF" stroke-width="1.18" stroke-miterlimit="22.9256"/>
<path d="M136.286 0.999936V9.99963H127.267V0.999936H136.286Z" stroke="#E1EEFF" stroke-width="1.18" stroke-miterlimit="22.9256"/>
<path d="M127.267 0.999936V9.99963H118.248V0.999936H127.267Z" stroke="#E1EEFF" stroke-width="1.18" stroke-miterlimit="22.9256"/>
<path d="M118.248 0.999936V9.99963H109.229V0.999936H118.248Z" stroke="#E1EEFF" stroke-width="1.18" stroke-miterlimit="22.9256"/>
<path d="M109.229 0.999936V9.99963H100.209V0.999936H109.229Z" stroke="#E1EEFF" stroke-width="1.18" stroke-miterlimit="22.9256"/>
<path d="M100.209 0.999936V9.99963H91.1904V0.999936H100.209Z" stroke="#E1EEFF" stroke-width="1.18" stroke-miterlimit="22.9256"/>
<path d="M91.1904 0.999936V9.99963H82.1714V0.999936H91.1904Z" stroke="#E1EEFF" stroke-width="1.18" stroke-miterlimit="22.9256"/>
<path d="M82.1714 0.999936V9.99963H73.1523V0.999936H82.1714Z" stroke="#E1EEFF" stroke-width="1.18" stroke-miterlimit="22.9256"/>
<path d="M73.1523 0.999936V9.99963H64.1333V0.999936H73.1523Z" stroke="#E1EEFF" stroke-width="1.18" stroke-miterlimit="22.9256"/>
<path d="M64.1333 0.999936V9.99963H55.1142V0.999936H64.1333Z" stroke="#E1EEFF" stroke-width="1.18" stroke-miterlimit="22.9256"/>
<path d="M55.1143 0.999936V9.99963H46.0952V0.999936H55.1143Z" stroke="#E1EEFF" stroke-width="1.18" stroke-miterlimit="22.9256"/>
<path d="M46.0952 0.999936V9.99963H37.0761V0.999936H46.0952Z" stroke="#E1EEFF" stroke-width="1.18" stroke-miterlimit="22.9256"/>
<path d="M37.0762 0.999936V9.99963H28.0571V0.999936H37.0762Z" stroke="#E1EEFF" stroke-width="1.18" stroke-miterlimit="22.9256"/>
<path d="M28.0571 0.999936V9.99963H19.0381V0.999936H28.0571Z" stroke="#E1EEFF" stroke-width="1.18" stroke-miterlimit="22.9256"/>
<path d="M19.0381 0.999936V9.99963H10.0191V0.999936H19.0381Z" stroke="#E1EEFF" stroke-width="1.18" stroke-miterlimit="22.9256"/>
<path d="M10.019 0.999936V9.99963H0.999972V0.999936H10.019Z" stroke="#E1EEFF" stroke-width="1.18" stroke-miterlimit="22.9256"/>
</svg>
