<svg width="17" height="14" fill="none" xmlns="http://www.w3.org/2000/svg"><path d="M0 0h17v14H0z"/><path d="M0 0h17v14H0z"/><path d="M0 0h17v14H0z"/><path d="M0 0h17v14H0z"/><path d="M9.213 10.121a.479.479 0 0 0 0 .707.554.554 0 0 0 .752 0l3.665-3.45a.477.477 0 0 0 .15-.379.477.477 0 0 0-.15-.378l-3.665-3.45a.554.554 0 0 0-.752 0 .479.479 0 0 0 0 .707L12 6.5H.53C.238 6.5 0 6.724 0 7s.238.5.531.5H12l-2.786 2.621zM14.875 0H4.25C3.076 0 2.125.896 2.125 2v2h1.063V2c0-.552.475-1 1.062-1h10.625c.587 0 1.063.448 1.063 1v10c0 .552-.476 1-1.063 1H4.25c-.587 0-1.063-.447-1.063-1v-2H2.125v2c0 1.104.951 2 2.125 2h10.625C16.049 14 17 13.104 17 12V2c0-1.104-.951-2-2.125-2z" fill="#fff"/></svg>