<svg width="159" height="41" fill="none" xmlns="http://www.w3.org/2000/svg"><path d="M158.763.325v40.154H.638V.325z"/><path fill-rule="evenodd" clip-rule="evenodd" d="M6.016 29.997l4.154.014 5.95-11.288c.136-.287.514-.509.75-.305l5.118 10.79c1.489 1.842 5.723 1.17 8.178-2.457l6.884-12.919-4.128-.014-5.673 10.831c-.25.455-.661.713-.9.47l-5.153-10.507c-1.624-2.442-6.097-.799-8.304 2.341L6.016 29.997z" fill="#fff"/><path fill-rule="evenodd" clip-rule="evenodd" d="M26.802 3.59c-1.941.447-3.173.888-5.003 1.606C10.946 9.497.622 20.58.639 30.635.5 38.545 8.858 43.308 20.91 38.63c13.19-5.636 21.153-16.786 21.51-24.837.186-3.884-1.208-7.207-4.215-8.971L35.63 5.869c3.37 1.829 4.413 3.54 4.788 7.64.62 7.085-7.974 18.839-19.473 23.48-10.52 4.176-18.088.194-18.371-7.101.19-8.342 7.67-18.189 19.262-23.154 1.634-.674 2.68-.984 4.204-1.401-1.113 1.638-2.611 3.133-4.829 4.7l19.053-7.566L26.648.325c.63.957.618 2.12.154 3.264zm35.917 26.695l-5.398-.018-1.828-3.204c-.16-.322-.475-.523-.943-.533l-8.391-.028c-.465-.03-.757.144-1.018.474L43.34 30.22l-5.258-.017 8.38-14.262c.866-1.228 1.887-2.073 3.676-2.098 1.695.033 3.166.59 3.997 1.963l8.584 14.48zm-9.36-6.974l-2.61-4.728c-.334-.405-.8-.28-1.01.012l-2.557 4.657c-.082.308.094.474.373.494l5.459.02c.295-.032.41-.16.345-.455zm14.769 5.234l-7.786-14.668 5.38.018 5.909 11.65c.184.19.367.19.514-.003l5.797-11.606 5.26.017-7.884 14.59c-.793 1.26-1.912 1.807-3.628 1.867-1.577-.035-2.723-.564-3.562-1.865zm17.397 1.817l.055-16.4 4.955.015-.053 16.402-4.957-.017zm8.444-5.306l4.825-.301c.282 1.086.868 1.882 1.758 2.392.885.507 2.077.769 3.586.774 1.596.005 2.802-.216 3.61-.668.814-.448 1.22-.974 1.222-1.578.002-.389-.169-.718-.511-.991-.336-.275-.929-.514-1.78-.716-.578-.139-1.902-.38-3.966-.73-2.655-.448-4.517-.997-5.584-1.642-1.507-.906-2.257-2.008-2.253-3.308.003-.835.36-1.614 1.071-2.34.71-.723 1.736-1.273 3.069-1.65 1.339-.374 2.945-.56 4.832-.554 3.087.01 5.401.469 6.959 1.375 1.551.912 2.365 2.116 2.44 3.625l-4.957.13c-.208-.847-.665-1.454-1.36-1.824-.695-.372-1.741-.559-3.137-.564-1.44-.005-2.573.187-3.385.581-.528.25-.79.588-.793 1.012-.001.39.245.723.735 1 .622.353 2.141.725 4.552 1.11 2.411.392 4.193.79 5.346 1.2 1.153.411 2.056.968 2.71 1.676.649.71.972 1.581.969 2.615-.004.94-.395 1.82-1.181 2.635-.786.818-1.891 1.426-3.321 1.818-1.431.396-3.214.588-5.347.582-3.104-.01-5.486-.495-7.147-1.46-1.659-.964-2.65-2.365-2.962-4.199zm24.119 4.47l.047-14.557c.024-.391.525-.876.998-.895l17.206.06-.01 2.776-12.601-.044c-.332.01-.629.236-.639.57l-.014 2.465c.014.296.304.591.641.6l11.682.04-.011 3.096-11.707-.04c-.321.02-.605.243-.619.563l-.01 2.967c.015.306.34.58.666.6l13.046.043-.011 2.765-17.711-.06c-.496-.04-.948-.513-.953-.949zm28.394 1.041l.042-12.988c-.029-.354-.353-.616-.743-.638l-6.537-.023.01-2.774 19.509.065-.008 2.775-6.546-.02c-.316.006-.699.266-.723.633l-.043 12.988-4.961-.018z" fill="#fff"/></svg>