<?xml version="1.0" encoding="utf-8"?>
<!-- Generator: Adobe Illustrator 21.0.2, SVG Export Plug-In . SVG Version: 6.00 Build 0)  -->
<svg version="1.1" id="Слой_1" xmlns="http://www.w3.org/2000/svg" xmlns:xlink="http://www.w3.org/1999/xlink" x="0px" y="0px"
	 viewBox="0 0 255 206" style="enable-background:new 0 0 255 206;" xml:space="preserve">
<style type="text/css">
	.st0{fill-opacity:0;}
	.st1{fill:#65A7FF;}
	.st2{fill:#FFFFFF;filter:url(#Adobe_OpacityMaskFilter);}
	.st3{mask:url(#path-2-inside-1);fill:none;stroke:#FFFFFF;stroke-width:10;}
	.st4{fill:#FFFFFF;}
	.st5{fill:none;stroke:#FFFFFF;stroke-width:5;}
	.st6{fill:none;stroke:#FFFFFF;stroke-width:2;stroke-dasharray:2,2;}
</style>
<polyline class="st0" points="255,206 0,206 0,0 "/>
<polyline class="st0" points="0,0 255,0 255,206 "/>
<g>
	<path class="st1" d="M15,0h225c8.3,0,15,6.7,15,15v176c0,8.3-6.7,15-15,15H15c-8.3,0-15-6.7-15-15V15C0,6.7,6.7,0,15,0z"/>
</g>
<rect x="23" y="6" class="st0" width="155.9" height="139"/>
<defs>
	<filter id="Adobe_OpacityMaskFilter" filterUnits="userSpaceOnUse" x="26" y="54" width="55" height="94">
		<feColorMatrix  type="matrix" values="1 0 0 0 0  0 1 0 0 0  0 0 1 0 0  0 0 0 1 0"/>
	</filter>
</defs>
<mask maskUnits="userSpaceOnUse" x="26" y="54" width="55" height="94" id="path-2-inside-1">
	<path class="st2" d="M34,59h39c1.7,0,3,1.3,3,3v78c0,1.7-1.3,3-3,3H34c-1.7,0-3-1.3-3-3V62C31,60.3,32.3,59,34,59z"/>
</mask>
<path class="st3" d="M34,59h39c1.7,0,3,1.3,3,3v78c0,1.7-1.3,3-3,3H34c-1.7,0-3-1.3-3-3V62C31,60.3,32.3,59,34,59z"/>
<path class="st4" d="M60.6,103H46c-1.5,0-2.7,1.2-2.7,2.7c0,1.5,1.2,2.7,2.7,2.7h14.6c1.5,0,2.7-1.2,2.7-2.7
	C63.3,104.2,62.1,103,60.6,103z"/>
<path class="st4" d="M25.5,140h56c1.4,0,2.5,1.1,2.5,2.5l0,0c0,1.4-1.1,2.5-2.5,2.5h-56c-1.4,0-2.5-1.1-2.5-2.5l0,0
	C23,141.1,24.1,140,25.5,140z"/>
<rect x="38" y="6" class="st0" width="140.9" height="91.8"/>
<path class="st5" d="M46.1,81.4l116.3-67.2c3.1-1.8,7.1-0.7,8.9,2.4l0,0c1.8,3.1,0.7,7.1-2.4,8.9L52.6,92.7
	c-3.1,1.8-7.1,0.7-8.9-2.4l0,0C42,87.2,43,83.2,46.1,81.4z"/>
<rect x="72.1" y="64.9" transform="matrix(0.2588 -0.9659 0.9659 0.2588 -4.6697 129.0481)" class="st4" width="19.3" height="5.3"/>
<rect x="86.1" y="56.7" transform="matrix(0.2588 -0.9659 0.9659 0.2588 13.4124 136.0617)" class="st4" width="18.5" height="5.3"/>
<rect x="105.7" y="45.7" transform="matrix(0.2588 -0.9659 0.9659 0.2588 38.5455 146.8157)" class="st4" width="18.5" height="5.3"/>
<rect x="118.7" y="37.7" transform="matrix(0.2588 -0.9659 0.9659 0.2588 55.9083 153.4433)" class="st4" width="18.5" height="5.3"/>
<rect x="139.7" y="25.7" transform="matrix(0.2588 -0.9659 0.9659 0.2588 83.0642 164.8336)" class="st4" width="18.5" height="5.3"/>
<rect x="152.7" y="18.7" transform="matrix(0.2588 -0.9659 0.9659 0.2588 99.461 172.2023)" class="st4" width="18.5" height="5.3"/>
<circle class="st4" cx="53.5" cy="83.5" r="13.5"/>
<rect x="146" y="80" class="st0" width="84" height="111"/>
<rect x="146" y="80" class="st0" width="84" height="111"/>
<path class="st4" d="M199.4,172.5c-3.6,0-6.5,2.9-6.5,6.5c0,3.6,2.9,6.5,6.5,6.5c3.6,0,6.5-2.9,6.5-6.5
	C205.9,175.4,203,172.5,199.4,172.5z M199.4,181.7c-1.5,0-2.8-1.2-2.8-2.8c0-1.5,1.2-2.8,2.8-2.8c1.5,0,2.8,1.2,2.8,2.8
	C202.2,180.5,201,181.7,199.4,181.7z"/>
<path class="st4" d="M207.8,148.4c4.1,0,7.4-3.3,7.4-7.4c0-4.1-3.3-7.4-7.4-7.4c-4.1,0-7.4,3.3-7.4,7.4
	C200.4,145.1,203.7,148.4,207.8,148.4z M207.8,137.3c2,0,3.7,1.7,3.7,3.7c0,2-1.7,3.7-3.7,3.7s-3.7-1.7-3.7-3.7
	C204.1,139,205.7,137.3,207.8,137.3z"/>
<path class="st4" d="M163.3,102.2c0.5,0,0.9-0.2,1.3-0.5l3.7-3.7c0.7-0.7,0.7-1.9,0-2.6c-0.7-0.7-1.9-0.7-2.6,0L162,99
	c-0.7,0.7-0.7,1.9,0,2.6C162.4,102,162.8,102.2,163.3,102.2z"/>
<path class="st4" d="M230,135c0-1.6-0.6-3.2-1.8-4.3l-1-1c1.8-1.6,2.8-3.8,2.8-6.2c0-4.6-3.7-8.3-8.3-8.3c-0.3,0-0.7,0-1,0.1
	c0-0.3,0.1-0.7,0.1-1c0-4.6-3.7-8.3-8.3-8.3c-0.3,0-0.7,0-1,0.1c0-0.3,0.1-0.7,0.1-1c0-4.6-3.7-8.3-8.3-8.3c-0.3,0-0.7,0-1,0.1
	c0-0.3,0.1-0.7,0.1-1c0-4.6-3.7-8.3-8.3-8.3c-2.4,0-4.7,1.1-6.2,2.8l-1.5-1.5l-7-7c-2.4-2.4-6.3-2.4-8.6,0l-22.8,22.8
	c-2.4,2.4-2.4,6.2,0,8.6l7,7l9.1,9.1c-2.5,1.4-4.2,4.1-4.2,7.2c0,2.9,1.5,5.4,3.7,6.9c0.1,0.1,0.2,0.3,0.4,0.4l19.9,19.8v3.3H180
	V191h33.3h14.8v-24.1h-3.7v-5.6c3.5-3,5.6-7.3,5.6-12c0-3.2-1-6.3-2.8-9l1.1-1.1C229.4,138.2,230,136.7,230,135z M226.3,123.5
	c0,1.4-0.7,2.7-1.7,3.6l-6.5-6.5c0.9-1.1,2.2-1.7,3.6-1.7C224.2,118.8,226.3,120.9,226.3,123.5z M217,114.2c0,1.4-0.7,2.7-1.7,3.6
	l-6.5-6.5c0.9-1.1,2.2-1.7,3.6-1.7C215,109.6,217,111.7,217,114.2z M207.8,105c0,1.4-0.7,2.7-1.7,3.6l-6.5-6.5
	c0.9-1.1,2.2-1.7,3.6-1.7C205.7,100.3,207.8,102.4,207.8,105z M193.9,91.1c2.6,0,4.6,2.1,4.6,4.6c0,1.4-0.7,2.7-1.7,3.6l-6.5-6.5
	C191.1,91.8,192.5,91.1,193.9,91.1z M150.4,110.6c-0.9-0.9-0.9-2.5,0-3.4l22.8-22.8c0.2-0.2,0.5-0.4,0.8-0.5
	c0.1-0.1,0.3-0.1,0.4-0.1c0.3-0.1,0.7-0.1,1,0c0.1,0,0.3,0,0.4,0.1c0.3,0.1,0.6,0.3,0.8,0.5l4.4,4.3l-26.2,26.2L150.4,110.6z
	 M183.6,91.4l2.2,2.2l9.3,9.3l1.1,1.1l8.2,8.2l1.1,1.1l8.2,8.2l1.1,1.1l9.3,9.3l1.7,1.7c0.9,0.9,0.9,2.5,0,3.4l-0.8,0.8l-22,22
	c-0.9,0.9-2.5,0.9-3.4,0l-14.8-14.8h1.8c4.6,0,8.3-3.7,8.3-8.3c0-4.6-3.7-8.3-8.3-8.3H168l-10.6-10.6L183.6,91.4z M167,131.9
	l0.8-0.1c0.1,0,0.2,0,0.2,0h18.5c2.6,0,4.6,2.1,4.6,4.6c0,2.6-2.1,4.6-4.6,4.6h-5.5h-5.2H168c-2.6,0-4.6-2.1-4.6-4.6
	C163.3,134.2,164.9,132.4,167,131.9z M183.7,187.3v-16.7h15.6c5.7,0,10.3,4.6,10.3,10.3v6.3H183.7z M224.4,187.3h-11.1V181
	c0-4.1-1.8-7.7-4.6-10.3h15.7V187.3z M224.5,143.1c1.2,1.9,1.8,4.1,1.8,6.3c0,3.8-1.8,7.3-4.8,9.6l-0.7,0.6v7.4h-21.4h-11.9v-5
	l-0.7-0.6c-0.1-0.1-0.2-0.1-0.3-0.3L170,144.7h9.4l17.4,17.4c1.2,1.2,2.8,1.8,4.3,1.8c1.6,0,3.1-0.6,4.3-1.8L224.5,143.1z"/>
<circle class="st4" cx="182.5" cy="115.5" r="11.5"/>
<rect x="173.8" y="106.2" transform="matrix(0.9659 -0.2588 0.2588 0.9659 -23.6066 51.2545)" class="st0" width="18.1" height="18.1"/>
<rect x="175.5" y="107.9" transform="matrix(0.866 -0.5 0.5 0.866 -33.1432 106.8726)" class="st0" width="14.8" height="14.8"/>
<rect x="175.5" y="107.9" transform="matrix(0.866 -0.5 0.5 0.866 -33.1432 106.8726)" class="st0" width="14.8" height="14.8"/>
<path class="st1" d="M187.4,115.4c-0.7-0.2-1.2,0.1-1.4,0.8c-0.1,0.5-0.3,1-0.4,1.5c0,0.1-0.1,0.2-0.2,0.2c-0.3,0-0.5,0-0.8,0
	c-1.3,0-2.5-0.3-3.6-0.8c-0.6-0.2-1.1-0.5-1.6-0.9c-0.1-0.1-0.1-0.1-0.1-0.3c0.1-0.5,0.3-1,0.4-1.5c0.2-0.7-0.1-1.2-0.8-1.4
	c-0.4-0.1-0.8-0.2-1.2-0.3c-0.4-0.1-0.8-0.2-1.2-0.3c-0.7-0.2-1.2,0.1-1.4,0.8c-0.1,0.5-0.3,1-0.4,1.5c-0.1,0.5-0.1,0.9,0.1,1.3
	c0.3,0.7,0.9,1.2,1.4,1.7c1.2,1,2.6,1.7,4,2.2c2,0.7,4,1,6.1,0.9c0.9-0.1,1.9-0.2,2.7-0.7c0.6-0.3,1-0.7,1.1-1.4
	c0.1-0.5,0.2-0.9,0.4-1.4c0.2-0.7-0.1-1.2-0.8-1.4C189,115.9,188.2,115.6,187.4,115.4z"/>
<path class="st1" d="M185.6,113.6l0.9-0.7c-0.7-0.8-1.6-1.4-2.6-1.7c-1.1-0.3-2.2-0.2-3.2,0.2l0.4,1.1c0.8-0.3,1.7-0.4,2.5-0.2
	C184.4,112.5,185.1,113,185.6,113.6z"/>
<path class="st1" d="M184.7,108.4c-1.8-0.5-3.6-0.4-5.4,0.3l0.4,1.1c1.5-0.6,3.1-0.7,4.6-0.3c1.5,0.4,2.8,1.2,3.7,2.4l0.9-0.7
	C187.9,109.8,186.4,108.9,184.7,108.4z"/>
<line class="st6" x1="82.4" y1="98.1" x2="150" y2="123.9"/>
<path class="st4" d="M204.1,11.9c-0.6-0.6-1.5-0.6-2.1,0l-9.5,9.5c-0.6,0.6-0.6,1.5,0,2.1c0.6,0.6,1.5,0.6,2.1,0l8.5-8.5l8.5,8.5
	c0.6,0.6,1.5,0.6,2.1,0c0.6-0.6,0.6-1.5,0-2.1L204.1,11.9z M204.5,59V13h-3v46H204.5z"/>
</svg>
