<svg width="295" height="246" viewBox="0 0 295 246" fill="none" xmlns="http://www.w3.org/2000/svg">
<rect width="255" height="206" fill="black" fill-opacity="0" transform="translate(20 15)"/>
<g filter="url(#filter0_d)">
<rect x="20" y="15" width="255" height="206" rx="15" fill="#65A7FF"/>
</g>
<rect width="155.93" height="139" fill="black" fill-opacity="0" transform="translate(43 21)"/>
<mask id="path-2-inside-1" fill="white">
<rect x="51" y="74" width="45" height="84" rx="3"/>
</mask>
<rect x="51" y="74" width="45" height="84" rx="3" stroke="white" stroke-width="10" mask="url(#path-2-inside-1)"/>
<path d="M80.6391 118H66.0117C64.5336 118 63.3359 119.191 63.3359 120.659C63.3359 122.128 64.5336 123.319 66.0117 123.319H80.6391C82.1172 123.319 83.3148 122.128 83.3148 120.659C83.3148 119.191 82.1172 118 80.6391 118Z" fill="white"/>
<rect x="43" y="155" width="61" height="5" rx="2.5" fill="white"/>
<rect width="140.93" height="91.7585" fill="black" fill-opacity="0" transform="translate(58 21)"/>
<rect x="60.5" y="99.67" width="147.34" height="13" rx="6.5" transform="rotate(-30 60.5 99.67)" stroke="white" stroke-width="5"/>
<rect x="101.711" y="72.5533" width="5.26757" height="19.3222" transform="rotate(15 101.711 72.5533)" fill="white"/>
<rect x="115.217" y="64.67" width="5.26757" height="18.5096" transform="rotate(15 115.217 64.67)" fill="white"/>
<rect x="134.791" y="53.67" width="5.26757" height="18.5096" transform="rotate(15 134.791 53.67)" fill="white"/>
<rect x="147.791" y="45.67" width="5.26757" height="18.5096" transform="rotate(15 147.791 45.67)" fill="white"/>
<rect x="168.791" y="33.67" width="5.26757" height="18.5096" transform="rotate(15 168.791 33.67)" fill="white"/>
<rect x="181.791" y="26.67" width="5.26757" height="18.5096" transform="rotate(15 181.791 26.67)" fill="white"/>
<circle cx="73.5" cy="98.5" r="13.5" fill="white"/>
<rect width="84" height="111" fill="black" fill-opacity="0" transform="translate(166 95)"/>
<rect width="84" height="111" fill="black" fill-opacity="0" transform="translate(166 95)"/>
<path d="M219.439 187.498C215.864 187.498 212.956 190.403 212.956 193.973C212.956 197.544 215.864 200.448 219.439 200.448C223.013 200.448 225.921 197.544 225.921 193.973C225.921 190.403 223.011 187.498 219.439 187.498ZM219.439 196.748C217.907 196.748 216.66 195.503 216.66 193.973C216.66 192.443 217.907 191.198 219.439 191.198C220.97 191.198 222.217 192.443 222.217 193.973C222.217 195.503 220.97 196.748 219.439 196.748Z" fill="white"/>
<path d="M227.773 163.449C231.859 163.449 235.182 160.13 235.182 156.049C235.182 151.968 231.859 148.649 227.773 148.649C223.688 148.649 220.365 151.968 220.365 156.049C220.365 160.13 223.686 163.449 227.773 163.449ZM227.773 152.349C229.816 152.349 231.478 154.008 231.478 156.049C231.478 158.089 229.816 159.749 227.773 159.749C225.73 159.749 224.069 158.089 224.069 156.049C224.069 154.008 225.73 152.349 227.773 152.349Z" fill="white"/>
<path d="M183.322 117.199C183.796 117.199 184.27 117.018 184.631 116.657L188.336 112.957C189.06 112.234 189.06 111.065 188.336 110.341C187.611 109.618 186.441 109.618 185.717 110.341L182.012 114.041C181.288 114.765 181.288 115.934 182.012 116.657C182.374 117.018 182.848 117.199 183.322 117.199Z" fill="white"/>
<path d="M250 150.033C250 148.405 249.365 146.875 248.213 145.724L247.181 144.694C248.939 143.14 249.998 140.892 249.998 138.474C249.998 133.884 246.259 130.149 241.663 130.149C241.326 130.149 240.993 130.182 240.663 130.223C240.704 129.892 240.737 129.563 240.737 129.224C240.737 124.634 236.998 120.899 232.403 120.899C232.065 120.899 231.732 120.933 231.402 120.973C231.443 120.642 231.476 120.313 231.476 119.974C231.476 115.384 227.737 111.649 223.142 111.649C222.805 111.649 222.471 111.683 222.142 111.723C222.182 111.392 222.216 111.063 222.216 110.724C222.216 106.135 218.476 102.399 213.881 102.399C211.458 102.399 209.21 103.46 207.654 105.213L206.183 103.744L199.214 96.7829C196.834 94.4057 192.962 94.4057 190.586 96.7829L167.782 119.56C165.406 121.937 165.406 125.802 167.782 128.179L174.752 135.14L183.846 144.224C181.335 145.659 179.618 148.333 179.618 151.424C179.618 154.315 181.105 156.865 183.353 158.358C183.466 158.507 183.598 158.655 183.774 158.805L203.696 178.628V181.95H199.991V206H233.33H248.148V181.95H244.443V176.345C247.987 173.346 250 169.034 250 164.374C250 161.155 248.994 158.028 247.155 155.398L248.213 154.341C249.365 153.191 250 151.661 250 150.033ZM246.296 138.474C246.296 139.895 245.64 141.21 244.56 142.076L238.057 135.581C238.924 134.502 240.243 133.847 241.663 133.847C244.218 133.849 246.296 135.923 246.296 138.474ZM237.035 129.224C237.035 130.645 236.379 131.96 235.299 132.826L228.796 126.331C229.663 125.252 230.982 124.597 232.403 124.597C234.957 124.599 237.035 126.673 237.035 129.224ZM227.774 119.974C227.774 121.395 227.118 122.71 226.038 123.576L219.536 117.081C220.402 116.002 221.721 115.347 223.142 115.347C225.696 115.349 227.774 117.423 227.774 119.974ZM213.883 106.099C216.437 106.099 218.513 108.173 218.513 110.724C218.513 112.145 217.857 113.46 216.778 114.326L210.275 107.831C211.142 106.754 212.46 106.099 213.883 106.099ZM170.401 125.565C169.468 124.631 169.468 123.112 170.401 122.178L193.205 99.4007C193.437 99.1694 193.707 98.9955 193.994 98.879C194.124 98.8253 194.27 98.8272 194.407 98.7976C194.737 98.7273 195.063 98.7273 195.393 98.7976C195.53 98.8272 195.676 98.8253 195.806 98.879C196.093 98.9955 196.361 99.1694 196.595 99.4007L200.945 103.746L174.752 129.909L170.401 125.565ZM203.564 106.362L205.746 108.541L215.007 117.791L216.068 118.851L224.268 127.041L225.329 128.101L233.529 136.291L234.59 137.351L243.851 146.601L245.592 148.34C246.527 149.274 246.527 150.791 245.592 151.725L244.782 152.536L222.79 174.504C221.858 175.437 220.334 175.44 219.398 174.504L204.627 159.749H206.472C211.067 159.749 214.807 156.014 214.807 151.424C214.807 146.834 211.067 143.099 206.472 143.099H187.956L177.369 132.524L203.564 106.362ZM186.952 146.914L187.721 146.827C187.797 146.816 187.873 146.799 187.951 146.799H206.472C209.026 146.799 211.103 148.873 211.103 151.424C211.103 153.975 209.026 156.049 206.472 156.049H200.923H195.685H187.951C185.396 156.049 183.32 153.975 183.32 151.424C183.322 149.217 184.88 147.372 186.952 146.914ZM203.696 202.298V185.648H219.302C224.994 185.648 229.626 190.275 229.626 195.96V202.298H203.696ZM244.443 202.298H233.33V195.96C233.33 191.879 231.564 188.213 228.767 185.648H244.443V202.298ZM244.49 158.062C245.664 159.95 246.296 162.135 246.296 164.374C246.296 168.175 244.54 171.674 241.476 173.977L240.739 174.532V181.948H219.3H207.398V176.92L206.744 176.367C206.661 176.295 206.572 176.228 206.411 176.108L189.969 159.747H199.388L216.778 177.118C217.969 178.306 219.53 178.9 221.091 178.9C222.655 178.9 224.218 178.306 225.407 177.118L244.49 158.062Z" fill="white"/>
<circle cx="202.5" cy="130.5" r="11.5" fill="white"/>
<rect width="18.1113" height="18.1113" fill="black" fill-opacity="0" transform="translate(191.764 123.879) rotate(-15)"/>
<rect width="14.7879" height="14.7879" fill="black" fill-opacity="0" transform="translate(192.755 127.576) rotate(-30)"/>
<rect width="14.7879" height="14.7879" fill="black" fill-opacity="0" transform="translate(192.755 127.576) rotate(-30)"/>
<path d="M207.383 130.426C206.726 130.255 206.204 130.556 206.026 131.209C205.891 131.707 205.755 132.204 205.628 132.704C205.593 132.841 205.532 132.902 205.394 132.903C205.125 132.91 204.854 132.945 204.586 132.936C203.333 132.889 202.133 132.59 200.968 132.147C200.389 131.927 199.831 131.656 199.331 131.276C199.23 131.2 199.2 131.128 199.235 130.998C199.375 130.508 199.502 130.016 199.633 129.521C199.815 128.833 199.519 128.322 198.828 128.134C198.436 128.027 198.047 127.925 197.654 127.817C197.251 127.709 196.848 127.597 196.443 127.493C195.79 127.327 195.267 127.628 195.088 128.279C194.95 128.778 194.83 129.277 194.683 129.774C194.547 130.233 194.596 130.67 194.8 131.096C195.132 131.789 195.656 132.321 196.238 132.799C197.436 133.792 198.798 134.501 200.258 135.03C202.231 135.745 204.263 136.04 206.355 135.891C207.297 135.823 208.218 135.658 209.073 135.224C209.662 134.927 210.074 134.497 210.214 133.823C210.311 133.362 210.457 132.908 210.577 132.451C210.755 131.773 210.456 131.249 209.786 131.068C208.985 130.851 208.184 130.639 207.383 130.426Z" fill="#65A7FF"/>
<path d="M205.648 128.596L206.534 127.86C205.858 127.046 204.959 126.474 203.936 126.198C202.856 125.908 201.74 125.977 200.709 126.394L201.142 127.463C201.94 127.141 202.804 127.086 203.64 127.31C204.431 127.522 205.125 127.967 205.648 128.596Z" fill="#65A7FF"/>
<path d="M204.717 123.434C202.926 122.954 201.076 123.066 199.363 123.761L199.795 124.829C201.276 124.23 202.876 124.134 204.421 124.546C205.888 124.939 207.177 125.762 208.145 126.927L209.031 126.191C207.908 124.843 206.417 123.891 204.717 123.434Z" fill="#65A7FF"/>
<line x1="102.357" y1="113.066" x2="169.982" y2="138.929" stroke="white" stroke-width="2" stroke-dasharray="2 2"/>
<path d="M224.061 26.9393C223.475 26.3536 222.525 26.3536 221.939 26.9393L212.393 36.4853C211.808 37.0711 211.808 38.0208 212.393 38.6066C212.979 39.1924 213.929 39.1924 214.515 38.6066L223 30.1213L231.485 38.6066C232.071 39.1924 233.021 39.1924 233.607 38.6066C234.192 38.0208 234.192 37.0711 233.607 36.4853L224.061 26.9393ZM224.5 74V28H221.5V74H224.5Z" fill="white"/>
<defs>
<filter id="filter0_d" x="0" y="4.57764e-05" width="295" height="246" filterUnits="userSpaceOnUse" color-interpolation-filters="sRGB">
<feFlood flood-opacity="0" result="BackgroundImageFix"/>
<feColorMatrix in="SourceAlpha" type="matrix" values="0 0 0 0 0 0 0 0 0 0 0 0 0 0 0 0 0 0 255 0"/>
<feOffset dy="5"/>
<feGaussianBlur stdDeviation="10"/>
<feColorMatrix type="matrix" values="0 0 0 0 0.462882 0 0 0 0 0.462882 0 0 0 0 0.462882 0 0 0 0.2 0"/>
<feBlend mode="normal" in2="BackgroundImageFix" result="effect1_dropShadow"/>
<feBlend mode="normal" in="SourceGraphic" in2="effect1_dropShadow" result="shape"/>
</filter>
</defs>
</svg>
