<svg width="295" height="246" viewBox="0 0 295 246" fill="none" xmlns="http://www.w3.org/2000/svg">
<rect width="255" height="206" fill="black" fill-opacity="0" transform="translate(20 15)"/>
<g filter="url(#filter0_d)">
<rect x="20" y="15" width="255" height="206" rx="15" fill="#65A7FF"/>
</g>
<rect width="169" height="180" fill="black" fill-opacity="0" transform="translate(65 28)"/>
<rect width="169" height="180" fill="black" fill-opacity="0" transform="translate(65 28)"/>
<path d="M126.51 142.923L125.223 155.02C125.119 155.996 125.436 156.97 126.096 157.7C126.756 158.43 127.695 158.846 128.682 158.846H165.451C166.437 158.846 167.377 158.429 168.037 157.7C168.696 156.97 169.013 155.996 168.91 155.02L167.623 142.923H213.423C220.552 142.923 226.351 137.15 226.351 130.054V40.8688C226.35 33.7727 220.551 28 213.423 28H77.9276C70.7991 28 65 33.7727 65 40.8688V130.054C65 137.15 70.7991 142.923 77.9276 142.923H126.51ZM161.586 151.923H132.546L133.503 142.923H160.628L161.586 151.923ZM77.9276 34.9234H213.423C216.716 34.9234 219.395 37.5903 219.395 40.8688V119.384H71.9551V40.8688C71.9551 37.5903 74.6342 34.9234 77.9276 34.9234ZM71.9551 130.054V126.308H219.395V130.054C219.395 133.333 216.716 136 213.422 136H77.9276C74.6342 136 71.9551 133.333 71.9551 130.054Z" fill="white"/>
<path d="M213.327 182.104C213.958 181.07 214.001 179.784 213.44 178.711L206.572 165.557C205.973 164.411 204.784 163.692 203.486 163.692H87.865C86.5677 163.692 85.3779 164.411 84.7793 165.557L77.9109 178.711C77.3508 179.784 77.3934 181.07 78.024 182.104C78.6546 183.138 79.7818 183.769 80.9966 183.769H210.355C211.569 183.769 212.697 183.138 213.327 182.104ZM86.7234 176.846L89.9766 170.615H201.374L204.628 176.846H86.7234Z" fill="white"/>
<path d="M219.395 190H213.831C205.778 190 199.226 196.521 199.226 204.538C199.226 206.45 200.783 208 202.704 208H230.523C232.443 208 234 206.45 234 204.538C234.001 196.522 227.449 190 219.395 190ZM207.019 201.077C208.287 198.613 210.865 196.923 213.831 196.923H219.395C222.362 196.923 224.94 198.613 226.209 201.077H207.019Z" fill="white"/>
<rect width="9" height="12" fill="black" fill-opacity="0" transform="translate(163 103)"/>
<rect width="9" height="12" fill="black" fill-opacity="0" transform="translate(163 103)"/>
<rect width="9" height="12" fill="black" fill-opacity="0" transform="translate(163 103)"/>
<path d="M171.996 108.819C172.018 108.651 171.945 108.475 171.8 108.387L163.667 103.071C163.537 102.983 163.363 102.976 163.225 103.056C163.087 103.137 163 103.283 163 103.445V112.844C163 113.013 163.094 113.16 163.239 113.24C163.385 113.314 163.566 113.299 163.696 113.196L166.004 111.451L168.115 114.795C168.195 114.927 168.34 115 168.485 115C168.557 115 168.637 114.978 168.702 114.941L170.857 113.68C170.959 113.622 171.031 113.519 171.06 113.402C171.089 113.284 171.068 113.16 171.002 113.064L169.036 109.934L171.691 109.178C171.851 109.127 171.974 108.988 171.996 108.819Z" fill="white"/>
<rect width="74" height="74" fill="black" fill-opacity="0" transform="translate(84 40)"/>
<rect width="74" height="74" fill="black" fill-opacity="0" transform="translate(84 40)"/>
<rect width="74" height="74" fill="black" fill-opacity="0" transform="translate(84 40)"/>
<path d="M149.328 45.7812H145.859V40H140.078V45.7812H101.922V40H96.1406V45.7812H92.6719C87.8902 45.7812 84 49.6715 84 54.4531V105.328C84 110.11 87.8902 114 92.6719 114H149.328C154.11 114 158 110.11 158 105.328V54.4531C158 49.6715 154.11 45.7812 149.328 45.7812ZM152.219 105.328C152.219 106.922 150.922 108.219 149.328 108.219H92.6719C91.078 108.219 89.7812 106.922 89.7812 105.328V67.1719H152.219V105.328ZM152.219 61.3906H89.7812V54.4531C89.7812 52.8592 91.078 51.5625 92.6719 51.5625H96.1406V57.3438H101.922V51.5625H140.078V57.3438H145.859V51.5625H149.328C150.922 51.5625 152.219 52.8592 152.219 54.4531V61.3906Z" fill="white"/>
<rect width="5.78125" height="5.78125" fill="black" fill-opacity="0" transform="translate(94.9844 73.2422)"/>
<rect width="5.78125" height="5.78125" fill="black" fill-opacity="0" transform="translate(94.9844 73.2422)"/>
<path d="M100.766 73.2422H94.9844V79.0234H100.766V73.2422Z" fill="white"/>
<rect width="5.78125" height="5.78125" fill="black" fill-opacity="0" transform="translate(106.547 73.2422)"/>
<rect width="5.78125" height="5.78125" fill="black" fill-opacity="0" transform="translate(106.547 73.2422)"/>
<path d="M112.328 73.2422H106.547V79.0234H112.328V73.2422Z" fill="white"/>
<rect width="5.78125" height="5.78125" fill="black" fill-opacity="0" transform="translate(118.109 73.2422)"/>
<rect width="5.78125" height="5.78125" fill="black" fill-opacity="0" transform="translate(118.109 73.2422)"/>
<path d="M123.891 73.2422H118.109V79.0234H123.891V73.2422Z" fill="white"/>
<rect width="5.78125" height="5.78125" fill="black" fill-opacity="0" transform="translate(129.672 73.2422)"/>
<rect width="5.78125" height="5.78125" fill="black" fill-opacity="0" transform="translate(129.672 73.2422)"/>
<path d="M135.453 73.2422H129.672V79.0234H135.453V73.2422Z" fill="white"/>
<rect width="5.78125" height="5.78125" fill="black" fill-opacity="0" transform="translate(94.9844 84.8047)"/>
<rect width="5.78125" height="5.78125" fill="black" fill-opacity="0" transform="translate(94.9844 84.8047)"/>
<path d="M100.766 84.8047H94.9844V90.5859H100.766V84.8047Z" fill="white"/>
<rect width="5.78125" height="5.78125" fill="black" fill-opacity="0" transform="translate(106.547 84.8047)"/>
<rect width="5.78125" height="5.78125" fill="black" fill-opacity="0" transform="translate(106.547 84.8047)"/>
<path d="M112.328 84.8047H106.547V90.5859H112.328V84.8047Z" fill="white"/>
<rect width="5.78125" height="5.78125" fill="black" fill-opacity="0" transform="translate(129.672 84.8047)"/>
<rect width="5.78125" height="5.78125" fill="black" fill-opacity="0" transform="translate(129.672 84.8047)"/>
<path d="M135.453 84.8047H129.672V90.5859H135.453V84.8047Z" fill="white"/>
<rect width="5.78125" height="5.78125" fill="black" fill-opacity="0" transform="translate(94.9844 96.3672)"/>
<rect width="5.78125" height="5.78125" fill="black" fill-opacity="0" transform="translate(94.9844 96.3672)"/>
<path d="M100.766 96.3672H94.9844V102.148H100.766V96.3672Z" fill="white"/>
<rect width="5.78125" height="5.78125" fill="black" fill-opacity="0" transform="translate(106.547 96.3672)"/>
<rect width="5.78125" height="5.78125" fill="black" fill-opacity="0" transform="translate(106.547 96.3672)"/>
<path d="M112.328 96.3672H106.547V102.148H112.328V96.3672Z" fill="white"/>
<rect width="5.78125" height="5.78125" fill="black" fill-opacity="0" transform="translate(118.109 96.3672)"/>
<rect width="5.78125" height="5.78125" fill="black" fill-opacity="0" transform="translate(118.109 96.3672)"/>
<path d="M123.891 96.3672H118.109V102.148H123.891V96.3672Z" fill="white"/>
<rect width="5.78125" height="5.78125" fill="black" fill-opacity="0" transform="translate(129.672 96.3672)"/>
<rect width="5.78125" height="5.78125" fill="black" fill-opacity="0" transform="translate(129.672 96.3672)"/>
<path d="M135.453 96.3672H129.672V102.148H135.453V96.3672Z" fill="white"/>
<rect width="8" height="8" fill="black" fill-opacity="0" transform="translate(141 72)"/>
<rect width="8" height="8" fill="black" fill-opacity="0" transform="translate(141 72)"/>
<path d="M148.73 73.5757L146.306 75.9999L148.73 78.4241C149.09 78.7847 149.09 79.369 148.73 79.7297C148.549 79.9099 148.313 80 148.077 80C147.841 80 147.605 79.91 147.424 79.7297L145 77.3053L142.576 79.7297C142.396 79.9098 142.159 80 141.923 80C141.687 80 141.451 79.91 141.271 79.7297C140.91 79.3692 140.91 78.7849 141.271 78.424L143.694 75.9999L141.27 73.5757C140.91 73.2152 140.91 72.6308 141.27 72.2702C141.631 71.9099 142.215 71.9099 142.576 72.2702L145 74.6944L147.424 72.2702C147.785 71.9099 148.369 71.9099 148.729 72.2702C149.09 72.6308 149.09 73.2152 148.73 73.5757Z" fill="#EF4E4E"/>
<rect width="8" height="8" fill="black" fill-opacity="0" transform="translate(141 84)"/>
<rect width="8" height="8" fill="black" fill-opacity="0" transform="translate(141 84)"/>
<path d="M148.73 85.5757L146.306 87.9999L148.73 90.4241C149.09 90.7847 149.09 91.369 148.73 91.7297C148.549 91.9099 148.313 92 148.077 92C147.841 92 147.605 91.91 147.424 91.7297L145 89.3053L142.576 91.7297C142.396 91.9098 142.159 92 141.923 92C141.687 92 141.451 91.91 141.271 91.7297C140.91 91.3692 140.91 90.7849 141.271 90.424L143.694 87.9999L141.27 85.5757C140.91 85.2152 140.91 84.6308 141.27 84.2702C141.631 83.9099 142.215 83.9099 142.576 84.2702L145 86.6944L147.424 84.2702C147.785 83.9099 148.369 83.9099 148.729 84.2702C149.09 84.6308 149.09 85.2152 148.73 85.5757Z" fill="#EF4E4E"/>
<rect width="8" height="8" fill="black" fill-opacity="0" transform="translate(117 84)"/>
<rect width="8" height="8" fill="black" fill-opacity="0" transform="translate(117 84)"/>
<path d="M124.73 85.5757L122.306 87.9999L124.73 90.4241C125.09 90.7847 125.09 91.369 124.73 91.7297C124.549 91.9099 124.313 92 124.077 92C123.841 92 123.605 91.91 123.424 91.7297L121 89.3053L118.576 91.7297C118.396 91.9098 118.159 92 117.923 92C117.687 92 117.451 91.91 117.271 91.7297C116.91 91.3692 116.91 90.7849 117.271 90.424L119.694 87.9999L117.27 85.5757C116.91 85.2152 116.91 84.6308 117.27 84.2702C117.631 83.9099 118.215 83.9099 118.576 84.2702L121 86.6944L123.424 84.2702C123.785 83.9099 124.369 83.9099 124.729 84.2702C125.09 84.6308 125.09 85.2152 124.73 85.5757Z" fill="#EF4E4E"/>
<path d="M198.465 46H179.536C176.362 46 173.779 48.5573 173.779 51.7011V70.4486C173.779 73.5924 176.361 76.1497 179.536 76.1497H198.465C201.639 76.1497 204.221 73.5924 204.221 70.4486V51.7011C204.221 48.5575 201.639 46 198.465 46ZM193.569 73.2692H184.432V68.7443C184.432 66.2493 186.481 64.2193 189 64.2193C191.52 64.2193 193.569 66.2491 193.569 68.7443V73.2692ZM185.937 58.3054C185.937 56.6328 187.311 55.2718 189 55.2718C190.689 55.2718 192.063 56.6328 192.063 58.3054C192.063 59.978 190.689 61.339 189 61.339C187.311 61.339 185.937 59.978 185.937 58.3054ZM201.313 70.4488C201.313 72.004 200.035 73.2694 198.465 73.2694H196.477V68.7444C196.477 66.1712 195.145 63.9011 193.127 62.5734C194.263 61.4961 194.972 59.9817 194.972 58.3054C194.972 55.0445 192.293 52.3913 189 52.3913C185.707 52.3913 183.029 55.0443 183.029 58.3054C183.029 59.9817 183.738 61.4961 184.873 62.5734C182.856 63.9011 181.523 66.171 181.523 68.7444V73.2694H179.536C177.965 73.2692 176.688 72.0039 176.688 70.4488V51.7013C176.688 50.146 177.965 48.8807 179.536 48.8807H198.465C200.035 48.8807 201.313 50.146 201.313 51.7013V70.4488Z" fill="white"/>
<path d="M205.546 80.1195H172.454C171.651 80.1195 171 80.7642 171 81.5598C171 82.3554 171.651 83 172.454 83H205.546C206.349 83 207 82.3554 207 81.5598C207 80.7642 206.349 80.1195 205.546 80.1195Z" fill="white"/>
<path d="M205.546 87H172.454C171.651 87 171 87.6447 171 88.4403C171 89.2359 171.651 89.8805 172.454 89.8805H205.546C206.349 89.8805 207 89.2359 207 88.4403C207 87.6447 206.349 87 205.546 87Z" fill="white"/>
<path d="M184.641 96.48L182.331 97.362V99.252L184.123 98.58V104.194H182.331V106H187.763V104.194H186.167V96.48H184.641ZM188.42 96.466V98.272H193.334L189.568 106H191.836L195.742 97.978V96.466H188.42Z" fill="white"/>
<path d="M203.045 100.274V97.824H201.393V100.274H198.943V101.926H201.393V104.376H203.045V101.926H205.495V100.274H203.045Z" fill="white"/>
<path d="M174.016 100.772V102.41H179.224V100.772H174.016Z" fill="white"/>
<defs>
<filter id="filter0_d" x="0" y="0" width="295" height="246" filterUnits="userSpaceOnUse" color-interpolation-filters="sRGB">
<feFlood flood-opacity="0" result="BackgroundImageFix"/>
<feColorMatrix in="SourceAlpha" type="matrix" values="0 0 0 0 0 0 0 0 0 0 0 0 0 0 0 0 0 0 255 0"/>
<feOffset dy="5"/>
<feGaussianBlur stdDeviation="10"/>
<feColorMatrix type="matrix" values="0 0 0 0 0.462882 0 0 0 0 0.462882 0 0 0 0 0.462882 0 0 0 0.2 0"/>
<feBlend mode="normal" in2="BackgroundImageFix" result="effect1_dropShadow"/>
<feBlend mode="normal" in="SourceGraphic" in2="effect1_dropShadow" result="shape"/>
</filter>
</defs>
</svg>
