<?xml version="1.0" encoding="utf-8"?>
<!-- Generator: Adobe Illustrator 21.0.2, SVG Export Plug-In . SVG Version: 6.00 Build 0)  -->
<svg version="1.1" id="Слой_1" xmlns="http://www.w3.org/2000/svg" xmlns:xlink="http://www.w3.org/1999/xlink" x="0px" y="0px"
	 viewBox="0 0 255 206" style="enable-background:new 0 0 255 206;" xml:space="preserve">
<style type="text/css">
	.st0{fill-opacity:0;}
	.st1{fill:#65A7FF;}
	.st2{fill:#FFFFFF;}
	.st3{fill:#EF4E4E;}
</style>
<rect class="st0" width="255" height="206"/>
<g>
	<path class="st1" d="M15,0h225c8.3,0,15,6.7,15,15v176c0,8.3-6.7,15-15,15H15c-8.3,0-15-6.7-15-15V15C0,6.7,6.7,0,15,0z"/>
</g>
<rect x="45" y="13" class="st0" width="169" height="180"/>
<rect x="45" y="13" class="st0" width="169" height="180"/>
<path class="st2" d="M106.5,127.9l-1.3,12.1c-0.1,1,0.2,1.9,0.9,2.7c0.7,0.7,1.6,1.1,2.6,1.1h36.8c1,0,1.9-0.4,2.6-1.1
	c0.7-0.7,1-1.7,0.9-2.7l-1.3-12.1h45.8c7.1,0,12.9-5.8,12.9-12.9V25.9c0-7.1-5.8-12.9-12.9-12.9H57.9C50.8,13,45,18.8,45,25.9v89.2
	c0,7.1,5.8,12.9,12.9,12.9H106.5z M141.6,136.9h-29l1-9h27.1L141.6,136.9z M57.9,19.9h135.5c3.3,0,6,2.7,6,5.9v78.5H52V25.9
	C52,22.6,54.6,19.9,57.9,19.9z M52,115.1v-3.7h147.4v3.7c0,3.3-2.7,5.9-6,5.9H57.9C54.6,121,52,118.3,52,115.1z"/>
<path class="st2" d="M193.3,167.1c0.6-1,0.7-2.3,0.1-3.4l-6.9-13.2c-0.6-1.1-1.8-1.9-3.1-1.9H67.9c-1.3,0-2.5,0.7-3.1,1.9l-6.9,13.2
	c-0.6,1.1-0.5,2.4,0.1,3.4s1.8,1.7,3,1.7h129.4C191.6,168.8,192.7,168.1,193.3,167.1z M66.7,161.8l3.3-6.2h111.4l3.3,6.2H66.7z"/>
<path class="st2" d="M199.4,175h-5.6c-8.1,0-14.6,6.5-14.6,14.5c0,1.9,1.6,3.5,3.5,3.5h27.8c1.9,0,3.5-1.6,3.5-3.5
	C214,181.5,207.4,175,199.4,175z M187,186.1c1.3-2.5,3.8-4.2,6.8-4.2h5.6c3,0,5.5,1.7,6.8,4.2H187z"/>
<rect x="143" y="88" class="st0" width="9" height="12"/>
<rect x="143" y="88" class="st0" width="9" height="12"/>
<rect x="143" y="88" class="st0" width="9" height="12"/>
<path class="st2" d="M152,93.8c0-0.2-0.1-0.3-0.2-0.4l-8.1-5.3c-0.1-0.1-0.3-0.1-0.4,0c-0.1,0.1-0.2,0.2-0.2,0.4v9.4
	c0,0.2,0.1,0.3,0.2,0.4c0.1,0.1,0.3,0.1,0.5,0l2.3-1.7l2.1,3.3c0.1,0.1,0.2,0.2,0.4,0.2c0.1,0,0.2,0,0.2-0.1l2.2-1.3
	c0.1-0.1,0.2-0.2,0.2-0.3c0-0.1,0-0.2-0.1-0.3l-2-3.1l2.7-0.8C151.9,94.1,152,94,152,93.8z"/>
<rect x="64" y="25" class="st0" width="74" height="74"/>
<rect x="64" y="25" class="st0" width="74" height="74"/>
<rect x="64" y="25" class="st0" width="74" height="74"/>
<path class="st2" d="M129.3,30.8h-3.5V25h-5.8v5.8H81.9V25h-5.8v5.8h-3.5c-4.8,0-8.7,3.9-8.7,8.7v50.9c0,4.8,3.9,8.7,8.7,8.7h56.7
	c4.8,0,8.7-3.9,8.7-8.7V39.5C138,34.7,134.1,30.8,129.3,30.8z M132.2,90.3c0,1.6-1.3,2.9-2.9,2.9H72.7c-1.6,0-2.9-1.3-2.9-2.9V52.2
	h62.4V90.3z M132.2,46.4H69.8v-6.9c0-1.6,1.3-2.9,2.9-2.9h3.5v5.8h5.8v-5.8h38.2v5.8h5.8v-5.8h3.5c1.6,0,2.9,1.3,2.9,2.9V46.4z"/>
<rect x="75" y="58.2" class="st0" width="5.8" height="5.8"/>
<rect x="75" y="58.2" class="st0" width="5.8" height="5.8"/>
<path class="st2" d="M80.8,58.2H75V64h5.8V58.2z"/>
<rect x="86.5" y="58.2" class="st0" width="5.8" height="5.8"/>
<rect x="86.5" y="58.2" class="st0" width="5.8" height="5.8"/>
<path class="st2" d="M92.3,58.2h-5.8V64h5.8V58.2z"/>
<rect x="98.1" y="58.2" class="st0" width="5.8" height="5.8"/>
<rect x="98.1" y="58.2" class="st0" width="5.8" height="5.8"/>
<path class="st2" d="M103.9,58.2h-5.8V64h5.8V58.2z"/>
<rect x="109.7" y="58.2" class="st0" width="5.8" height="5.8"/>
<rect x="109.7" y="58.2" class="st0" width="5.8" height="5.8"/>
<path class="st2" d="M115.5,58.2h-5.8V64h5.8V58.2z"/>
<rect x="75" y="69.8" class="st0" width="5.8" height="5.8"/>
<rect x="75" y="69.8" class="st0" width="5.8" height="5.8"/>
<path class="st2" d="M80.8,69.8H75v5.8h5.8V69.8z"/>
<rect x="86.5" y="69.8" class="st0" width="5.8" height="5.8"/>
<rect x="86.5" y="69.8" class="st0" width="5.8" height="5.8"/>
<path class="st2" d="M92.3,69.8h-5.8v5.8h5.8V69.8z"/>
<rect x="109.7" y="69.8" class="st0" width="5.8" height="5.8"/>
<rect x="109.7" y="69.8" class="st0" width="5.8" height="5.8"/>
<path class="st2" d="M115.5,69.8h-5.8v5.8h5.8V69.8z"/>
<rect x="75" y="81.4" class="st0" width="5.8" height="5.8"/>
<rect x="75" y="81.4" class="st0" width="5.8" height="5.8"/>
<path class="st2" d="M80.8,81.4H75v5.8h5.8V81.4z"/>
<rect x="86.5" y="81.4" class="st0" width="5.8" height="5.8"/>
<rect x="86.5" y="81.4" class="st0" width="5.8" height="5.8"/>
<path class="st2" d="M92.3,81.4h-5.8v5.8h5.8V81.4z"/>
<rect x="98.1" y="81.4" class="st0" width="5.8" height="5.8"/>
<rect x="98.1" y="81.4" class="st0" width="5.8" height="5.8"/>
<path class="st2" d="M103.9,81.4h-5.8v5.8h5.8V81.4z"/>
<rect x="109.7" y="81.4" class="st0" width="5.8" height="5.8"/>
<rect x="109.7" y="81.4" class="st0" width="5.8" height="5.8"/>
<path class="st2" d="M115.5,81.4h-5.8v5.8h5.8V81.4z"/>
<rect x="121" y="57" class="st0" width="8" height="8"/>
<rect x="121" y="57" class="st0" width="8" height="8"/>
<path class="st3" d="M128.7,58.6l-2.4,2.4l2.4,2.4c0.4,0.4,0.4,0.9,0,1.3c-0.2,0.2-0.4,0.3-0.7,0.3c-0.2,0-0.5-0.1-0.7-0.3l-2.4-2.4
	l-2.4,2.4c-0.2,0.2-0.4,0.3-0.7,0.3c-0.2,0-0.5-0.1-0.7-0.3c-0.4-0.4-0.4-0.9,0-1.3l2.4-2.4l-2.4-2.4c-0.4-0.4-0.4-0.9,0-1.3
	c0.4-0.4,0.9-0.4,1.3,0l2.4,2.4l2.4-2.4c0.4-0.4,0.9-0.4,1.3,0C129.1,57.6,129.1,58.2,128.7,58.6z"/>
<rect x="121" y="69" class="st0" width="8" height="8"/>
<rect x="121" y="69" class="st0" width="8" height="8"/>
<path class="st3" d="M128.7,70.6l-2.4,2.4l2.4,2.4c0.4,0.4,0.4,0.9,0,1.3c-0.2,0.2-0.4,0.3-0.7,0.3c-0.2,0-0.5-0.1-0.7-0.3l-2.4-2.4
	l-2.4,2.4c-0.2,0.2-0.4,0.3-0.7,0.3c-0.2,0-0.5-0.1-0.7-0.3c-0.4-0.4-0.4-0.9,0-1.3l2.4-2.4l-2.4-2.4c-0.4-0.4-0.4-0.9,0-1.3
	c0.4-0.4,0.9-0.4,1.3,0l2.4,2.4l2.4-2.4c0.4-0.4,0.9-0.4,1.3,0C129.1,69.6,129.1,70.2,128.7,70.6z"/>
<rect x="97" y="69" class="st0" width="8" height="8"/>
<rect x="97" y="69" class="st0" width="8" height="8"/>
<path class="st3" d="M104.7,70.6l-2.4,2.4l2.4,2.4c0.4,0.4,0.4,0.9,0,1.3c-0.2,0.2-0.4,0.3-0.7,0.3s-0.5-0.1-0.7-0.3l-2.4-2.4
	l-2.4,2.4c-0.2,0.2-0.4,0.3-0.7,0.3s-0.5-0.1-0.7-0.3c-0.4-0.4-0.4-0.9,0-1.3l2.4-2.4l-2.4-2.4c-0.4-0.4-0.4-0.9,0-1.3
	c0.4-0.4,0.9-0.4,1.3,0l2.4,2.4l2.4-2.4c0.4-0.4,0.9-0.4,1.3,0C105.1,69.6,105.1,70.2,104.7,70.6z"/>
<path class="st2" d="M178.5,31h-18.9c-3.2,0-5.8,2.6-5.8,5.7v18.7c0,3.1,2.6,5.7,5.8,5.7h18.9c3.2,0,5.8-2.6,5.8-5.7V36.7
	C184.2,33.6,181.6,31,178.5,31z M173.6,58.3h-9.1v-4.5c0-2.5,2-4.5,4.6-4.5c2.5,0,4.6,2,4.6,4.5V58.3z M165.9,43.3
	c0-1.7,1.4-3,3.1-3s3.1,1.4,3.1,3s-1.4,3-3.1,3S165.9,45,165.9,43.3z M181.3,55.4c0,1.6-1.3,2.8-2.8,2.8h-2v-4.5
	c0-2.6-1.3-4.8-3.4-6.2c1.1-1.1,1.8-2.6,1.8-4.3c0-3.3-2.7-5.9-6-5.9s-6,2.7-6,5.9c0,1.7,0.7,3.2,1.8,4.3c-2,1.3-3.4,3.6-3.4,6.2
	v4.5h-2c-1.6,0-2.8-1.3-2.8-2.8V36.7c0-1.6,1.3-2.8,2.8-2.8h18.9c1.6,0,2.8,1.3,2.8,2.8V55.4z"/>
<path class="st2" d="M185.5,65.1h-33.1c-0.8,0-1.5,0.6-1.5,1.4s0.7,1.4,1.5,1.4h33.1c0.8,0,1.5-0.6,1.5-1.4S186.3,65.1,185.5,65.1z"
	/>
<path class="st2" d="M185.5,72h-33.1c-0.8,0-1.5,0.6-1.5,1.4s0.7,1.4,1.5,1.4h33.1c0.8,0,1.5-0.6,1.5-1.4S186.3,72,185.5,72z"/>
<path class="st2" d="M164.6,81.5l-2.3,0.9v1.9l1.8-0.7v5.6h-1.8V91h5.4v-1.8h-1.6v-7.7H164.6z M168.4,81.5v1.8h4.9l-3.8,7.7h2.3
	l3.9-8v-1.5H168.4z"/>
<path class="st2" d="M183,85.3v-2.5h-1.7v2.5h-2.5v1.7h2.5v2.4h1.7v-2.4h2.4v-1.7H183z"/>
<path class="st2" d="M154,85.8v1.6h5.2v-1.6H154z"/>
</svg>
