<?xml version="1.0" encoding="utf-8"?>
<!-- Generator: Adobe Illustrator 21.0.2, SVG Export Plug-In . SVG Version: 6.00 Build 0)  -->
<svg version="1.1" id="Слой_1" xmlns="http://www.w3.org/2000/svg" xmlns:xlink="http://www.w3.org/1999/xlink" x="0px" y="0px"
	 viewBox="0 0 255 206" style="enable-background:new 0 0 255 206;" xml:space="preserve">
<style type="text/css">
	.st0{fill-opacity:0;}
	.st1{fill:#65A7FF;}
	.st2{fill:#FFFFFF;}
</style>
<rect class="st0" width="255" height="206"/>
<g>
	<path class="st1" d="M15,0h225c8.3,0,15,6.7,15,15v176c0,8.3-6.7,15-15,15H15c-8.3,0-15-6.7-15-15V15C0,6.7,6.7,0,15,0z"/>
</g>
<rect x="44" y="13" class="st0" width="169" height="180"/>
<rect x="44" y="13" class="st0" width="169" height="180"/>
<path class="st2" d="M105.5,127.9l-1.3,12.1c-0.1,1,0.2,1.9,0.9,2.7c0.7,0.7,1.6,1.1,2.6,1.1h36.8c1,0,1.9-0.4,2.6-1.1
	c0.7-0.7,1-1.7,0.9-2.7l-1.3-12.1h45.8c7.1,0,12.9-5.8,12.9-12.9V25.9c0-7.1-5.8-12.9-12.9-12.9H56.9C49.8,13,44,18.8,44,25.9v89.2
	c0,7.1,5.8,12.9,12.9,12.9H105.5z M140.6,136.9h-29l1-9h27.1L140.6,136.9z M56.9,19.9h135.5c3.3,0,6,2.7,6,5.9v78.5H51V25.9
	C51,22.6,53.6,19.9,56.9,19.9z M51,115.1v-3.7h147.4v3.7c0,3.3-2.7,5.9-6,5.9H56.9C53.6,121,51,118.3,51,115.1z"/>
<path class="st2" d="M192.3,167.1c0.6-1,0.7-2.3,0.1-3.4l-6.9-13.2c-0.6-1.1-1.8-1.9-3.1-1.9H66.9c-1.3,0-2.5,0.7-3.1,1.9l-6.9,13.2
	c-0.6,1.1-0.5,2.4,0.1,3.4s1.8,1.7,3,1.7h129.4C190.6,168.8,191.7,168.1,192.3,167.1z M65.7,161.8l3.3-6.2h111.4l3.3,6.2H65.7z"/>
<path class="st2" d="M198.4,175h-5.6c-8.1,0-14.6,6.5-14.6,14.5c0,1.9,1.6,3.5,3.5,3.5h27.8c1.9,0,3.5-1.6,3.5-3.5
	C213,181.5,206.4,175,198.4,175z M186,186.1c1.3-2.5,3.8-4.2,6.8-4.2h5.6c3,0,5.5,1.7,6.8,4.2H186z"/>
<rect x="145" y="91" class="st0" width="9" height="12"/>
<rect x="145" y="91" class="st0" width="9" height="12"/>
<rect x="145" y="91" class="st0" width="9" height="12"/>
<path class="st2" d="M154,96.8c0-0.2-0.1-0.3-0.2-0.4l-8.1-5.3c-0.1-0.1-0.3-0.1-0.4,0c-0.1,0.1-0.2,0.2-0.2,0.4v9.4
	c0,0.2,0.1,0.3,0.2,0.4c0.1,0.1,0.3,0.1,0.5,0l2.3-1.7l2.1,3.3c0.1,0.1,0.2,0.2,0.4,0.2c0.1,0,0.2,0,0.2-0.1l2.2-1.3
	c0.1-0.1,0.2-0.2,0.2-0.3c0-0.1,0-0.2-0.1-0.3l-2-3.1l2.7-0.8C153.9,97.1,154,97,154,96.8z"/>
<path class="st2" d="M177.5,31h-18.9c-3.2,0-5.8,2.6-5.8,5.7v18.7c0,3.1,2.6,5.7,5.8,5.7h18.9c3.2,0,5.8-2.6,5.8-5.7V36.7
	C183.2,33.6,180.6,31,177.5,31z M172.6,58.3h-9.1v-4.5c0-2.5,2-4.5,4.6-4.5c2.5,0,4.6,2,4.6,4.5V58.3z M164.9,43.3
	c0-1.7,1.4-3,3.1-3s3.1,1.4,3.1,3s-1.4,3-3.1,3S164.9,45,164.9,43.3z M180.3,55.4c0,1.6-1.3,2.8-2.8,2.8h-2v-4.5
	c0-2.6-1.3-4.8-3.4-6.2c1.1-1.1,1.8-2.6,1.8-4.3c0-3.3-2.7-5.9-6-5.9s-6,2.7-6,5.9c0,1.7,0.7,3.2,1.8,4.3c-2,1.3-3.4,3.6-3.4,6.2
	v4.5h-2c-1.6,0-2.8-1.3-2.8-2.8V36.7c0-1.6,1.3-2.8,2.8-2.8h18.9c1.6,0,2.8,1.3,2.8,2.8V55.4z"/>
<rect x="89" y="35" class="st0" width="47" height="3"/>
<path class="st2" d="M134.1,35H90.9c-1,0-1.9,0.7-1.9,1.5s0.8,1.5,1.9,1.5h43.2c1,0,1.9-0.7,1.9-1.5S135.1,35,134.1,35z"/>
<path class="st2" d="M184.5,72h-33.1c-0.8,0-1.5,0.6-1.5,1.4s0.7,1.4,1.5,1.4h33.1c0.8,0,1.5-0.6,1.5-1.4S185.3,72,184.5,72z"/>
<path class="st2" d="M152,81.3v2c1-0.8,2.1-1.1,3.1-1.1c1,0,1.6,0.4,1.6,1.1c0,0.9-0.9,1.3-1.8,1.9c-1.4,0.8-3.1,1.7-3.1,4V90h7.1
	v-1.8l-4.8,0c0-0.6,1-1.1,2.1-1.8c1.2-0.7,2.6-1.7,2.6-3.3c0-1.9-1.6-2.8-3.5-2.8C154.1,80.3,153,80.6,152,81.3z M160,85.2
	c0,2.7,1.3,5,4.3,5c3,0,4.3-2.2,4.3-5c0-2.7-1.3-5-4.3-5C161.4,80.3,160,82.5,160,85.2z M166.6,85.2c0,2-0.7,3.1-2.2,3.1
	c-1.5,0-2.2-1.1-2.2-3.1s0.7-3.1,2.2-3.1C165.9,82.1,166.6,83.2,166.6,85.2z M172.4,80.5l-2.3,0.9v1.9l1.8-0.7v5.6H170V90h5.4v-1.8
	h-1.6v-7.7H172.4z M176.7,82.9c0,1,0.5,1.6,1.1,2c-0.9,0.5-1.5,1.4-1.5,2.4c0,1.5,1.2,2.8,4,2.8c2.9,0,4-1.4,4-2.8
	c0-1.1-0.7-1.8-1.6-2.3c0.8-0.6,1.2-1.3,1.2-2.2c0-1.3-1.3-2.7-3.7-2.7C177.8,80.3,176.7,81.6,176.7,82.9z M180.6,86.1
	c0.9,0.3,1.7,0.6,1.7,1.4c0,0.6-0.8,1.1-1.8,1.1c-1.4,0-2.1-0.6-2.1-1.4c0-0.5,0.2-1.1,0.7-1.5C179.7,85.8,180.2,85.9,180.6,86.1z
	 M182.1,83.1c0,0.5-0.2,1-0.7,1.5c-0.3-0.1-0.6-0.2-0.9-0.3c-0.9-0.3-1.8-0.6-1.8-1.4c0-0.5,0.6-1,1.6-1
	C181.5,81.9,182.1,82.5,182.1,83.1z"/>
<path class="st2" d="M56.7,35.6c0,2,0.9,3.5,3.1,3.5s3.1-1.6,3.1-3.5c0-2-0.9-3.5-3.1-3.5S56.7,33.6,56.7,35.6z M61.4,35.6
	c0,1.5-0.5,2.2-1.6,2.2s-1.6-0.8-1.6-2.2c0-1.4,0.5-2.2,1.6-2.2S61.4,34.2,61.4,35.6z M65.5,32.2l-1.6,0.6v1.3l1.3-0.5v4h-1.3V39
	h3.9v-1.3h-1.1v-5.5H65.5z M70.1,38.3c0-0.6-0.4-0.8-0.8-0.8s-0.8,0.3-0.8,0.8c0,0.6,0.4,0.8,0.8,0.8S70.1,38.9,70.1,38.3z
	 M70.7,35.6c0,2,0.9,3.5,3.1,3.5c2.2,0,3.1-1.6,3.1-3.5c0-2-0.9-3.5-3.1-3.5C71.6,32.1,70.7,33.6,70.7,35.6z M75.4,35.6
	c0,1.5-0.5,2.2-1.6,2.2c-1.1,0-1.6-0.8-1.6-2.2c0-1.4,0.5-2.2,1.6-2.2C74.9,33.4,75.4,34.2,75.4,35.6z M77.6,32.2v1.3h3.5L78.4,39
	H80l2.8-5.7v-1.1H77.6z"/>
<rect x="89" y="48" class="st0" width="47" height="3"/>
<path class="st2" d="M134.1,48H90.9c-1,0-1.9,0.7-1.9,1.5c0,0.8,0.8,1.5,1.9,1.5h43.2c1,0,1.9-0.7,1.9-1.5
	C136,48.7,135.1,48,134.1,48z"/>
<path class="st2" d="M55.4,48.6c0,2,0.9,3.5,3.1,3.5c2.2,0,3.1-1.6,3.1-3.5s-0.9-3.5-3.1-3.5C56.3,45.1,55.4,46.6,55.4,48.6z
	 M60.1,48.6c0,1.5-0.5,2.2-1.6,2.2c-1.1,0-1.6-0.8-1.6-2.2c0-1.4,0.5-2.2,1.6-2.2C59.6,46.4,60.1,47.2,60.1,48.6z M62.7,45.8v1.4
	c0.7-0.5,1.5-0.8,2.2-0.8c0.7,0,1.1,0.3,1.1,0.8c0,0.6-0.6,0.9-1.3,1.3c-1,0.6-2.2,1.2-2.2,2.9V52h5.1v-1.3l-3.4,0
	c0-0.4,0.7-0.8,1.5-1.3c0.9-0.5,1.8-1.2,1.8-2.4c0-1.4-1.1-2-2.5-2C64.2,45.1,63.4,45.3,62.7,45.8z M70.1,51.3
	c0-0.6-0.4-0.8-0.8-0.8s-0.8,0.3-0.8,0.8c0,0.6,0.4,0.8,0.8,0.8S70.1,51.9,70.1,51.3z M70.7,48.6c0,2,0.9,3.5,3.1,3.5
	c2.2,0,3.1-1.6,3.1-3.5s-0.9-3.5-3.1-3.5C71.6,45.1,70.7,46.6,70.7,48.6z M75.4,48.6c0,1.5-0.5,2.2-1.6,2.2c-1.1,0-1.6-0.8-1.6-2.2
	c0-1.4,0.5-2.2,1.6-2.2C74.9,46.4,75.4,47.2,75.4,48.6z M77.6,45.2v1.3h3.5L78.4,52H80l2.8-5.7v-1.1H77.6z"/>
<rect x="89" y="61" class="st0" width="47" height="3"/>
<path class="st2" d="M134.1,61H90.9c-1,0-1.9,0.7-1.9,1.5s0.8,1.5,1.9,1.5h43.2c1,0,1.9-0.7,1.9-1.5S135.1,61,134.1,61z"/>
<path class="st2" d="M55.4,61.6c0,2,0.9,3.5,3.1,3.5c2.2,0,3.1-1.6,3.1-3.5s-0.9-3.5-3.1-3.5C56.3,58.1,55.4,59.6,55.4,61.6z
	 M60.1,61.6c0,1.5-0.5,2.2-1.6,2.2c-1.1,0-1.6-0.8-1.6-2.2c0-1.4,0.5-2.2,1.6-2.2C59.6,59.4,60.1,60.2,60.1,61.6z M67.3,59.9
	c0-1.2-1.1-1.9-2.5-1.9c-0.8,0-1.6,0.2-2.2,0.5V60c0.7-0.4,1.4-0.6,2-0.6c0.8,0,1.3,0.3,1.3,0.8c0,0.5-0.4,0.7-1.1,0.7l-0.9,0l0,1.3
	H65c0.7,0,1.2,0.2,1.2,0.8c0,0.6-0.6,0.9-1.4,0.9c-0.8,0-1.5-0.1-2.2-0.5v1.4c0.8,0.3,1.5,0.5,2.4,0.5c1.4,0,2.7-0.6,2.7-2
	c0-1-0.6-1.5-1.3-1.7C66.9,61.2,67.3,60.6,67.3,59.9z M70.1,64.3c0-0.6-0.4-0.8-0.8-0.8s-0.8,0.3-0.8,0.8c0,0.6,0.4,0.8,0.8,0.8
	S70.1,64.9,70.1,64.3z M70.7,61.6c0,2,0.9,3.5,3.1,3.5c2.2,0,3.1-1.6,3.1-3.5s-0.9-3.5-3.1-3.5C71.6,58.1,70.7,59.6,70.7,61.6z
	 M75.4,61.6c0,1.5-0.5,2.2-1.6,2.2c-1.1,0-1.6-0.8-1.6-2.2c0-1.4,0.5-2.2,1.6-2.2C74.9,59.4,75.4,60.2,75.4,61.6z M77.6,58.2v1.3
	h3.5L78.4,65H80l2.8-5.7v-1.1H77.6z"/>
<rect x="89" y="74" class="st0" width="47" height="3"/>
<path class="st2" d="M134.1,74H90.9c-1,0-1.9,0.7-1.9,1.5s0.8,1.5,1.9,1.5h43.2c1,0,1.9-0.7,1.9-1.5S135.1,74,134.1,74z"/>
<path class="st2" d="M54.8,74.6c0,2,0.9,3.5,3.1,3.5s3.1-1.6,3.1-3.5s-0.9-3.5-3.1-3.5S54.8,72.6,54.8,74.6z M59.5,74.6
	c0,1.5-0.5,2.2-1.6,2.2s-1.6-0.8-1.6-2.2c0-1.4,0.5-2.2,1.6-2.2S59.5,73.2,59.5,74.6z M65.2,71.2l-3.5,4.3v1.2h3.6V78h1.4v-1.2h1
	v-1.3h-1v-4.3H65.2z M65.2,75.5h-2l2-2.5V75.5z M70.1,77.3c0-0.6-0.4-0.8-0.8-0.8s-0.8,0.3-0.8,0.8c0,0.6,0.4,0.8,0.8,0.8
	S70.1,77.9,70.1,77.3z M70.7,74.6c0,2,0.9,3.5,3.1,3.5c2.2,0,3.1-1.6,3.1-3.5s-0.9-3.5-3.1-3.5C71.6,71.1,70.7,72.6,70.7,74.6z
	 M75.4,74.6c0,1.5-0.5,2.2-1.6,2.2c-1.1,0-1.6-0.8-1.6-2.2c0-1.4,0.5-2.2,1.6-2.2C74.9,72.4,75.4,73.2,75.4,74.6z M77.6,71.2v1.3
	h3.5L78.4,78H80l2.8-5.7v-1.1H77.6z"/>
<rect x="89" y="87" class="st0" width="47" height="3"/>
<path class="st2" d="M134.1,87H90.9c-1,0-1.9,0.7-1.9,1.5s0.8,1.5,1.9,1.5h43.2c1,0,1.9-0.7,1.9-1.5S135.1,87,134.1,87z"/>
<path class="st2" d="M55.5,87.6c0,2,0.9,3.5,3.1,3.5c2.2,0,3.1-1.6,3.1-3.5s-0.9-3.5-3.1-3.5C56.4,84.1,55.5,85.6,55.5,87.6z
	 M60.2,87.6c0,1.5-0.5,2.2-1.6,2.2S57,89.1,57,87.6c0-1.4,0.5-2.2,1.6-2.2S60.2,86.2,60.2,87.6z M63,84.2l-0.2,3.9
	c0.6-0.2,1.2-0.3,1.7-0.3c1.1,0,1.7,0.3,1.7,1c0,0.7-0.7,1-1.6,1c-0.7,0-1.5-0.2-2-0.5v1.4c0.6,0.3,1.4,0.5,2.2,0.5
	c1.5,0,2.9-0.7,2.9-2.3c0-1.6-1.1-2.2-2.5-2.2c-0.3,0-0.6,0-0.9,0.1l0.1-1.3l3,0v-1.3H63z M70.1,90.3c0-0.6-0.4-0.8-0.8-0.8
	s-0.8,0.3-0.8,0.8c0,0.6,0.4,0.8,0.8,0.8S70.1,90.9,70.1,90.3z M70.7,87.6c0,2,0.9,3.5,3.1,3.5c2.2,0,3.1-1.6,3.1-3.5
	s-0.9-3.5-3.1-3.5C71.6,84.1,70.7,85.6,70.7,87.6z M75.4,87.6c0,1.5-0.5,2.2-1.6,2.2c-1.1,0-1.6-0.8-1.6-2.2c0-1.4,0.5-2.2,1.6-2.2
	C74.9,85.4,75.4,86.2,75.4,87.6z M77.6,84.2v1.3h3.5L78.4,91H80l2.8-5.7v-1.1H77.6z"/>
<path class="st2" d="M141.5,26L141.5,26c0.3,0,0.5,0.2,0.5,0.5v71c0,0.3-0.2,0.5-0.5,0.5l0,0c-0.3,0-0.5-0.2-0.5-0.5v-71
	C141,26.2,141.2,26,141.5,26z"/>
<path class="st2" d="M141.5,86L141.5,86c0.8,0,1.5,0.7,1.5,1.5v5c0,0.8-0.7,1.5-1.5,1.5l0,0c-0.8,0-1.5-0.7-1.5-1.5v-5
	C140,86.7,140.7,86,141.5,86z"/>
</svg>
