<svg width="295" height="246" viewBox="0 0 295 246" fill="none" xmlns="http://www.w3.org/2000/svg">
<rect width="255" height="206" fill="black" fill-opacity="0" transform="translate(20 15)"/>
<g filter="url(#filter0_d)">
<rect x="20" y="15" width="255" height="206" rx="15" fill="#65A7FF"/>
</g>
<rect width="169" height="86" fill="black" fill-opacity="0" transform="translate(48 63)"/>
<rect width="169" height="86" fill="black" fill-opacity="0" transform="translate(48 63)"/>
<rect width="169" height="86" fill="black" fill-opacity="0" transform="translate(48 63)"/>
<path d="M208.162 75.2511H100.552V65.6594C100.552 64.1907 99.3543 63 97.8762 63H58.7743C57.2962 63 56.0986 64.1907 56.0986 65.6594V143.681H50.6757C49.1977 143.681 48 144.872 48 146.341C48 147.809 49.1977 149 50.6757 149H105.974C107.453 149 108.65 147.809 108.65 146.341C108.65 144.872 107.453 143.681 105.974 143.681H100.552V92.8195H208.162C213.035 92.8195 217 88.8791 217 84.0355C217 79.1919 213.035 75.2511 208.162 75.2511ZM91.1894 80.5698H110.619L103.645 87.5005H91.1894C91.473 86.3913 91.625 85.2308 91.625 84.0351C91.625 82.8399 91.4734 81.679 91.1894 80.5698ZM118.188 80.5698H125.706L118.733 87.5005H111.214L118.188 80.5698ZM133.275 80.5698H149.095L142.122 87.5005H126.302L133.275 80.5698ZM156.663 80.5698H164.183L157.209 87.5005H149.69L156.663 80.5698ZM171.751 80.5698H187.571L180.597 87.5005H164.777L171.751 80.5698ZM195.139 80.5698H202.658L195.684 87.5005H188.165L195.139 80.5698ZM95.2005 143.681H61.4501V68.3187H95.2005V75.2511H88.5136C85.9181 72.0354 81.9352 69.9711 77.4742 69.9711C69.6717 69.9711 63.3238 76.2801 63.3238 84.0351C63.3238 91.7902 69.6717 98.0992 77.4742 98.0992C81.9352 98.0992 85.9181 96.0349 88.5136 92.8192H95.2001L95.2005 143.681ZM86.2735 84.0355C86.2735 88.8578 82.3262 92.7809 77.4742 92.7809C72.6222 92.7809 68.6753 88.8574 68.6753 84.0355C68.6753 79.2136 72.6222 75.2901 77.4742 75.2901C82.3262 75.2901 86.2735 79.2132 86.2735 84.0355ZM208.162 87.5008H203.253L209.811 80.9833C210.904 81.569 211.649 82.7172 211.649 84.0355C211.649 85.946 210.084 87.5008 208.162 87.5008Z" fill="white"/>
<path d="M85.6391 101.745H71.0117C69.5336 101.745 68.3359 102.936 68.3359 104.404C68.3359 105.873 69.5336 107.064 71.0117 107.064H85.6391C87.1172 107.064 88.3148 105.873 88.3148 104.404C88.3148 102.936 87.1172 101.745 85.6391 101.745Z" fill="white"/>
<rect x="213" y="152" width="41" height="22" rx="5" fill="white"/>
<rect width="78" height="78" fill="black" fill-opacity="0" transform="translate(180 129)"/>
<rect width="78" height="78" fill="black" fill-opacity="0" transform="translate(180 129)"/>
<rect width="78" height="78" fill="black" fill-opacity="0" transform="translate(180 129)"/>
<path d="M254.226 146.613H225.29V135.29C225.29 131.822 222.468 129 219 129H186.29C182.822 129 180 131.822 180 135.29V200.71C180 204.178 182.822 207 186.29 207H219C222.468 207 225.29 204.178 225.29 200.71V181.839H222.774V194.419H182.516V141.581H222.774V146.613H211.452C209.371 146.613 207.677 148.306 207.677 150.387V168.737L197.092 179.323H254.226C256.307 179.323 258 177.629 258 175.548V150.387C258 148.306 256.307 146.613 254.226 146.613ZM222.774 196.935V200.71C222.774 202.791 221.081 204.484 219 204.484H186.29C184.209 204.484 182.516 202.791 182.516 200.71V196.935H222.774ZM182.516 139.065V135.29C182.516 133.209 184.209 131.516 186.29 131.516H219C221.081 131.516 222.774 133.209 222.774 135.29V139.065H182.516ZM255.484 175.548C255.484 176.243 254.92 176.806 254.226 176.806H203.166L210.194 169.779V150.387C210.194 149.693 210.757 149.129 211.452 149.129H254.226C254.92 149.129 255.484 149.693 255.484 150.387V175.548Z" fill="white"/>
<rect width="10.0645" height="17.6129" fill="black" fill-opacity="0" transform="translate(240.387 154.161)"/>
<rect width="10.0645" height="17.6129" fill="black" fill-opacity="0" transform="translate(240.387 154.161)"/>
<path d="M245.419 161.71C244.032 161.71 242.903 160.581 242.903 159.194C242.903 157.806 244.032 156.677 245.419 156.677C246.807 156.677 247.936 157.806 247.936 159.194H250.452C250.452 156.418 248.195 154.161 245.419 154.161C242.644 154.161 240.387 156.418 240.387 159.194C240.387 161.969 242.644 164.226 245.419 164.226C246.807 164.226 247.936 165.354 247.936 166.742C247.936 168.13 246.807 169.258 245.419 169.258C244.032 169.258 242.903 168.13 242.903 166.742H240.387C240.387 169.517 242.644 171.774 245.419 171.774C248.195 171.774 250.452 169.517 250.452 166.742C250.452 163.967 248.195 161.71 245.419 161.71Z" fill="#EF4E4E"/>
<rect width="10.0645" height="17.6129" fill="black" fill-opacity="0" transform="translate(215.226 154.161)"/>
<rect width="10.0645" height="17.6129" fill="black" fill-opacity="0" transform="translate(215.226 154.161)"/>
<path d="M220.258 161.71C218.871 161.71 217.742 160.581 217.742 159.194C217.742 157.806 218.871 156.677 220.258 156.677C221.646 156.677 222.774 157.806 222.774 159.194H225.291C225.291 156.418 223.034 154.161 220.258 154.161C217.483 154.161 215.226 156.418 215.226 159.194C215.226 161.969 217.483 164.226 220.258 164.226C221.646 164.226 222.774 165.354 222.774 166.742C222.774 168.13 221.646 169.258 220.258 169.258C218.871 169.258 217.742 168.13 217.742 166.742H215.226C215.226 169.517 217.483 171.774 220.258 171.774C223.034 171.774 225.291 169.517 225.291 166.742C225.291 163.967 223.034 161.71 220.258 161.71Z" fill="#EF4E4E"/>
<rect width="10.0645" height="16.5096" fill="black" fill-opacity="0" transform="translate(227.807 154.161)"/>
<rect width="10.0645" height="16.5096" fill="black" fill-opacity="0" transform="translate(227.807 154.161)"/>
<path d="M234.372 154.161L232.839 160.297L231.305 154.161H227.807V170.516H230.323V160.606L232.839 170.671L235.355 160.606V170.516H237.871V154.161H234.372Z" fill="#EF4E4E"/>
<rect width="10.0645" height="2.51613" fill="black" fill-opacity="0" transform="translate(197.613 199.452)"/>
<rect width="10.0645" height="2.51613" fill="black" fill-opacity="0" transform="translate(197.613 199.452)"/>
<path d="M207.677 199.452H197.613V201.968H207.677V199.452Z" fill="white"/>
<rect width="2.51613" height="2.51613" fill="black" fill-opacity="0" transform="translate(217.742 181.839)"/>
<rect width="2.51613" height="2.51613" fill="black" fill-opacity="0" transform="translate(217.742 181.839)"/>
<path d="M220.258 181.839H217.742V184.355H220.258V181.839Z" fill="white"/>
<rect width="2.51613" height="2.51613" fill="black" fill-opacity="0" transform="translate(212.709 181.839)"/>
<rect width="2.51613" height="2.51613" fill="black" fill-opacity="0" transform="translate(212.709 181.839)"/>
<path d="M215.226 181.839H212.709V184.355H215.226V181.839Z" fill="white"/>
<rect width="2.51613" height="2.51613" fill="black" fill-opacity="0" transform="translate(207.678 181.839)"/>
<rect width="2.51613" height="2.51613" fill="black" fill-opacity="0" transform="translate(207.678 181.839)"/>
<path d="M210.194 181.839H207.678V184.355H210.194V181.839Z" fill="white"/>
<rect width="2.51613" height="2.51613" fill="black" fill-opacity="0" transform="translate(202.645 181.839)"/>
<rect width="2.51613" height="2.51613" fill="black" fill-opacity="0" transform="translate(202.645 181.839)"/>
<path d="M205.161 181.839H202.645V184.355H205.161V181.839Z" fill="white"/>
<ellipse cx="77.5" cy="84" rx="14.5" ry="14" fill="#EF4E4E"/>
<line x1="110.539" y1="105.157" x2="171.539" y2="144.157" stroke="white" stroke-width="2" stroke-dasharray="2 2"/>
<defs>
<filter id="filter0_d" x="0" y="0" width="295" height="246" filterUnits="userSpaceOnUse" color-interpolation-filters="sRGB">
<feFlood flood-opacity="0" result="BackgroundImageFix"/>
<feColorMatrix in="SourceAlpha" type="matrix" values="0 0 0 0 0 0 0 0 0 0 0 0 0 0 0 0 0 0 255 0"/>
<feOffset dy="5"/>
<feGaussianBlur stdDeviation="10"/>
<feColorMatrix type="matrix" values="0 0 0 0 0.462882 0 0 0 0 0.462882 0 0 0 0 0.462882 0 0 0 0.2 0"/>
<feBlend mode="normal" in2="BackgroundImageFix" result="effect1_dropShadow"/>
<feBlend mode="normal" in="SourceGraphic" in2="effect1_dropShadow" result="shape"/>
</filter>
</defs>
</svg>
