<?xml version="1.0" encoding="utf-8"?>
<!-- Generator: Adobe Illustrator 21.0.2, SVG Export Plug-In . SVG Version: 6.00 Build 0)  -->
<svg version="1.1" id="Слой_1" xmlns="http://www.w3.org/2000/svg" xmlns:xlink="http://www.w3.org/1999/xlink" x="0px" y="0px"
	 viewBox="0 0 255 206" style="enable-background:new 0 0 255 206;" xml:space="preserve">
<style type="text/css">
	.st0{fill-opacity:0;}
	.st1{fill:#65A7FF;}
	.st2{fill:#FFFFFF;}
	.st3{fill:#EF4E4E;}
	.st4{fill:none;stroke:#FFFFFF;stroke-width:2;stroke-dasharray:2,2;}
</style>
<rect class="st0" width="255" height="206"/>
<g>
	<path class="st1" d="M15,0h225c8.3,0,15,6.7,15,15v176c0,8.3-6.7,15-15,15H15c-8.3,0-15-6.7-15-15V15C0,6.7,6.7,0,15,0z"/>
</g>
<rect x="28" y="48" class="st0" width="169" height="86"/>
<rect x="28" y="48" class="st0" width="169" height="86"/>
<rect x="28" y="48" class="st0" width="169" height="86"/>
<path class="st2" d="M188.2,60.3H80.6v-9.6c0-1.5-1.2-2.7-2.7-2.7H38.8c-1.5,0-2.7,1.2-2.7,2.7v78h-5.4c-1.5,0-2.7,1.2-2.7,2.7
	c0,1.5,1.2,2.7,2.7,2.7H86c1.5,0,2.7-1.2,2.7-2.7c0-1.5-1.2-2.7-2.7-2.7h-5.4V77.8h107.6c4.9,0,8.8-3.9,8.8-8.8S193,60.3,188.2,60.3
	z M71.2,65.6h19.4l-7,6.9H71.2c0.3-1.1,0.4-2.3,0.4-3.5C71.6,67.8,71.5,66.7,71.2,65.6z M98.2,65.6h7.5l-7,6.9h-7.5L98.2,65.6z
	 M113.3,65.6h15.8l-7,6.9h-15.8L113.3,65.6z M136.7,65.6h7.5l-7,6.9h-7.5L136.7,65.6z M151.8,65.6h15.8l-7,6.9h-15.8L151.8,65.6z
	 M175.1,65.6h7.5l-7,6.9h-7.5L175.1,65.6z M75.2,128.7H41.5V53.3h33.8v6.9h-6.7c-2.6-3.2-6.6-5.3-11-5.3c-7.8,0-14.2,6.3-14.2,14.1
	c0,7.8,6.3,14.1,14.2,14.1c4.5,0,8.4-2.1,11-5.3h6.7L75.2,128.7z M66.3,69c0,4.8-3.9,8.7-8.8,8.7c-4.9,0-8.8-3.9-8.8-8.7
	s3.9-8.7,8.8-8.7C62.3,60.3,66.3,64.2,66.3,69z M188.2,72.5h-4.9l6.6-6.5c1.1,0.6,1.8,1.7,1.8,3.1C191.6,70.9,190.1,72.5,188.2,72.5
	z"/>
<path class="st2" d="M65.6,86.7H51c-1.5,0-2.7,1.2-2.7,2.7c0,1.5,1.2,2.7,2.7,2.7h14.6c1.5,0,2.7-1.2,2.7-2.7
	C68.3,87.9,67.1,86.7,65.6,86.7z"/>
<path class="st2" d="M198,137h31c2.8,0,5,2.2,5,5v12c0,2.8-2.2,5-5,5h-31c-2.8,0-5-2.2-5-5v-12C193,139.2,195.2,137,198,137z"/>
<rect x="160" y="114" class="st0" width="78" height="78"/>
<rect x="160" y="114" class="st0" width="78" height="78"/>
<rect x="160" y="114" class="st0" width="78" height="78"/>
<path class="st2" d="M234.2,131.6h-28.9v-11.3c0-3.5-2.8-6.3-6.3-6.3h-32.7c-3.5,0-6.3,2.8-6.3,6.3v65.4c0,3.5,2.8,6.3,6.3,6.3H199
	c3.5,0,6.3-2.8,6.3-6.3v-18.9h-2.5v12.6h-40.3v-52.8h40.3v5h-11.3c-2.1,0-3.8,1.7-3.8,3.8v18.4l-10.6,10.6h57.1
	c2.1,0,3.8-1.7,3.8-3.8v-25.2C238,133.3,236.3,131.6,234.2,131.6z M202.8,181.9v3.8c0,2.1-1.7,3.8-3.8,3.8h-32.7
	c-2.1,0-3.8-1.7-3.8-3.8v-3.8H202.8z M162.5,124.1v-3.8c0-2.1,1.7-3.8,3.8-3.8H199c2.1,0,3.8,1.7,3.8,3.8v3.8H162.5z M235.5,160.5
	c0,0.7-0.6,1.3-1.3,1.3h-51.1l7-7v-19.4c0-0.7,0.6-1.3,1.3-1.3h42.8c0.7,0,1.3,0.6,1.3,1.3V160.5z"/>
<rect x="220.4" y="139.2" class="st0" width="10.1" height="17.6"/>
<rect x="220.4" y="139.2" class="st0" width="10.1" height="17.6"/>
<path class="st3" d="M225.4,146.7c-1.4,0-2.5-1.1-2.5-2.5c0-1.4,1.1-2.5,2.5-2.5c1.4,0,2.5,1.1,2.5,2.5h2.5c0-2.8-2.3-5-5-5
	c-2.8,0-5,2.3-5,5c0,2.8,2.3,5,5,5c1.4,0,2.5,1.1,2.5,2.5s-1.1,2.5-2.5,2.5c-1.4,0-2.5-1.1-2.5-2.5h-2.5c0,2.8,2.3,5,5,5
	c2.8,0,5-2.3,5-5C230.5,149,228.2,146.7,225.4,146.7z"/>
<rect x="195.2" y="139.2" class="st0" width="10.1" height="17.6"/>
<rect x="195.2" y="139.2" class="st0" width="10.1" height="17.6"/>
<path class="st3" d="M200.3,146.7c-1.4,0-2.5-1.1-2.5-2.5c0-1.4,1.1-2.5,2.5-2.5c1.4,0,2.5,1.1,2.5,2.5h2.5c0-2.8-2.3-5-5-5
	c-2.8,0-5,2.3-5,5c0,2.8,2.3,5,5,5c1.4,0,2.5,1.1,2.5,2.5s-1.1,2.5-2.5,2.5c-1.4,0-2.5-1.1-2.5-2.5h-2.5c0,2.8,2.3,5,5,5
	c2.8,0,5-2.3,5-5C205.3,149,203,146.7,200.3,146.7z"/>
<rect x="207.8" y="139.2" class="st0" width="10.1" height="16.5"/>
<rect x="207.8" y="139.2" class="st0" width="10.1" height="16.5"/>
<path class="st3" d="M214.4,139.2l-1.5,6.1l-1.5-6.1h-3.5v16.4h2.5v-9.9l2.5,10.1l2.5-10.1v9.9h2.5v-16.4H214.4z"/>
<rect x="177.6" y="184.5" class="st0" width="10.1" height="2.5"/>
<rect x="177.6" y="184.5" class="st0" width="10.1" height="2.5"/>
<path class="st2" d="M187.7,184.5h-10.1v2.5h10.1V184.5z"/>
<rect x="197.7" y="166.8" class="st0" width="2.5" height="2.5"/>
<rect x="197.7" y="166.8" class="st0" width="2.5" height="2.5"/>
<path class="st2" d="M200.3,166.8h-2.5v2.5h2.5V166.8z"/>
<rect x="192.7" y="166.8" class="st0" width="2.5" height="2.5"/>
<rect x="192.7" y="166.8" class="st0" width="2.5" height="2.5"/>
<path class="st2" d="M195.2,166.8h-2.5v2.5h2.5V166.8z"/>
<rect x="187.7" y="166.8" class="st0" width="2.5" height="2.5"/>
<rect x="187.7" y="166.8" class="st0" width="2.5" height="2.5"/>
<path class="st2" d="M190.2,166.8h-2.5v2.5h2.5V166.8z"/>
<rect x="182.6" y="166.8" class="st0" width="2.5" height="2.5"/>
<rect x="182.6" y="166.8" class="st0" width="2.5" height="2.5"/>
<path class="st2" d="M185.2,166.8h-2.5v2.5h2.5V166.8z"/>
<ellipse class="st3" cx="57.5" cy="69" rx="14.5" ry="14"/>
<line class="st4" x1="90.5" y1="90.2" x2="151.5" y2="129.2"/>
</svg>
