<?xml version="1.0" encoding="utf-8"?>
<!-- Generator: Adobe Illustrator 21.0.2, SVG Export Plug-In . SVG Version: 6.00 Build 0)  -->
<svg version="1.1" id="Слой_1" xmlns="http://www.w3.org/2000/svg" xmlns:xlink="http://www.w3.org/1999/xlink" x="0px" y="0px"
	 viewBox="0 0 255 206" style="enable-background:new 0 0 255 206;" xml:space="preserve">
<style type="text/css">
	.st0{fill-opacity:0;}
	.st1{fill:#65A7FF;}
	.st2{fill:#FFFFFF;}
</style>
<rect class="st0" width="255" height="206"/>
<g>
	<path class="st1" d="M15,0h225c8.3,0,15,6.7,15,15v176c0,8.3-6.7,15-15,15H15c-8.3,0-15-6.7-15-15V15C0,6.7,6.7,0,15,0z"/>
</g>
<rect x="43" y="16" class="st0" width="169" height="180"/>
<rect x="43" y="16" class="st0" width="169" height="180"/>
<path class="st2" d="M104.5,130.9l-1.3,12.1c-0.1,1,0.2,1.9,0.9,2.7c0.7,0.7,1.6,1.1,2.6,1.1h36.8c1,0,1.9-0.4,2.6-1.1
	c0.7-0.7,1-1.7,0.9-2.7l-1.3-12.1h45.8c7.1,0,12.9-5.8,12.9-12.9V28.9c0-7.1-5.8-12.9-12.9-12.9H55.9C48.8,16,43,21.8,43,28.9v89.2
	c0,7.1,5.8,12.9,12.9,12.9H104.5z M139.6,139.9h-29l1-9h27.1L139.6,139.9z M55.9,22.9h135.5c3.3,0,6,2.7,6,5.9v78.5H50V28.9
	C50,25.6,52.6,22.9,55.9,22.9z M50,118.1v-3.7h147.4v3.7c0,3.3-2.7,5.9-6,5.9H55.9C52.6,124,50,121.3,50,118.1z"/>
<path class="st2" d="M191.3,170.1c0.6-1,0.7-2.3,0.1-3.4l-6.9-13.2c-0.6-1.1-1.8-1.9-3.1-1.9H65.9c-1.3,0-2.5,0.7-3.1,1.9l-6.9,13.2
	c-0.6,1.1-0.5,2.4,0.1,3.4s1.8,1.7,3,1.7h129.4C189.6,171.8,190.7,171.1,191.3,170.1z M64.7,164.8l3.3-6.2h111.4l3.3,6.2H64.7z"/>
<path class="st2" d="M197.4,178h-5.6c-8.1,0-14.6,6.5-14.6,14.5c0,1.9,1.6,3.5,3.5,3.5h27.8c1.9,0,3.5-1.6,3.5-3.5
	C212,184.5,205.4,178,197.4,178z M185,189.1c1.3-2.5,3.8-4.2,6.8-4.2h5.6c3,0,5.5,1.7,6.8,4.2H185z"/>
<rect x="138" y="36" class="st0" width="49" height="38"/>
<rect x="143.9" y="36" class="st0" width="17.9" height="18.9"/>
<rect x="143.9" y="36" class="st0" width="17.9" height="18.9"/>
<path class="st2" d="M152.9,36c-4.9,0-8.9,4.2-8.9,9.5c0,5.2,4,9.5,8.9,9.5c4.9,0,8.9-4.2,8.9-9.5C161.8,40.2,157.8,36,152.9,36z"/>
<rect x="165.5" y="37.4" class="st0" width="15.4" height="16.2"/>
<rect x="165.5" y="37.4" class="st0" width="15.4" height="16.2"/>
<path class="st2" d="M173.2,37.4C173.2,37.4,173.2,37.4,173.2,37.4c-2.1,0-4.1,0.9-5.5,2.5c-1.4,1.5-2.2,3.6-2.2,5.7
	c0,2.1,0.8,4.2,2.3,5.7c1.5,1.5,3.4,2.4,5.4,2.4c0,0,0,0,0.1,0c2.1,0,4-0.9,5.4-2.5c1.4-1.5,2.2-3.6,2.2-5.7
	C180.8,41,177.4,37.4,173.2,37.4z"/>
<rect x="163.8" y="55.1" class="st0" width="23.2" height="16.3"/>
<rect x="163.8" y="55.1" class="st0" width="23.2" height="16.3"/>
<path class="st2" d="M173.6,55.1h-0.7c-3.5,0-6.6,1.3-9,3.5c0.6,0.5,1.2,1,1.7,1.5c1.6,1.6,2.8,3.4,3.7,5.5c0.8,1.9,1.2,3.8,1.3,5.8
	H187v-2.9C187,61.1,181,55.1,173.6,55.1z"/>
<rect x="138" y="57.9" class="st0" width="29.7" height="16.1"/>
<rect x="138" y="57.9" class="st0" width="29.7" height="16.1"/>
<path class="st2" d="M167.7,71.4c-0.3-4.4-2.5-8.2-5.8-10.6c-2.4-1.8-5.4-2.8-8.6-2.8h-0.9c-8,0-14.4,6.4-14.4,14.4V74h29.7v-1.7
	C167.7,72,167.7,71.7,167.7,71.4z"/>
<path class="st2" d="M141.6,85.5l-2.3,0.9v1.9l1.8-0.7v5.6h-1.8V95h5.4v-1.8h-1.6v-7.7H141.6z M146.2,85.5l-0.3,5.5
	c0.8-0.3,1.7-0.4,2.4-0.4c1.5,0,2.3,0.5,2.3,1.4c0,0.9-0.9,1.4-2.2,1.4c-1,0-2.1-0.3-2.8-0.8v1.9c0.8,0.4,2,0.6,3.1,0.6
	c2.1,0,4-1,4-3.2c0-2.2-1.6-3-3.5-3c-0.4,0-0.8,0.1-1.2,0.1l0.1-1.9l4.2,0v-1.8H146.2z M156.9,90.2c0,2.7,1.3,5,4.3,5
	c3,0,4.3-2.2,4.3-5c0-2.7-1.3-5-4.3-5C158.3,85.3,156.9,87.5,156.9,90.2z M163.5,90.2c0,2-0.7,3.1-2.2,3.1c-1.5,0-2.2-1.1-2.2-3.1
	s0.7-3.1,2.2-3.1C162.8,87.1,163.5,88.2,163.5,90.2z M166.8,90.2c0,2.7,1.3,5,4.3,5c3,0,4.3-2.2,4.3-5c0-2.7-1.3-5-4.3-5
	C168.1,85.3,166.8,87.5,166.8,90.2z M173.4,90.2c0,2-0.7,3.1-2.2,3.1c-1.5,0-2.2-1.1-2.2-3.1s0.7-3.1,2.2-3.1
	C172.7,87.1,173.4,88.2,173.4,90.2z M176.7,90.2c0,2.7,1.3,5,4.3,5c3,0,4.3-2.2,4.3-5c0-2.7-1.3-5-4.3-5
	C178,85.3,176.7,87.5,176.7,90.2z M183.3,90.2c0,2-0.7,3.1-2.2,3.1c-1.5,0-2.2-1.1-2.2-3.1s0.7-3.1,2.2-3.1
	C182.6,87.1,183.3,88.2,183.3,90.2z"/>
<rect x="59" y="36" class="st0" width="55" height="62"/>
<rect x="59" y="36" class="st0" width="55" height="62"/>
<rect x="59" y="36" class="st0" width="55" height="62"/>
<path class="st2" d="M82.8,67.4c8.8,0,11.9-8.7,12.8-15.9c1-8.8-3.2-15.5-12.8-15.5C73.2,36,69,42.7,70,51.5
	C70.8,58.7,74,67.4,82.8,67.4z"/>
<path class="st2" d="M102,71.1c0.3,0,0.6,0,0.8,0c-0.4-0.6-0.9-1.1-1.5-1.5c-1.7-1.3-3.9-1.7-5.8-2.4c-0.9-0.4-1.8-0.7-2.6-1.1
	c-2.7,2.9-6.1,4.4-10.2,4.4c-4,0-7.5-1.5-10.2-4.4c-0.8,0.4-1.6,0.8-2.6,1.1c-1.9,0.8-4.1,1.2-5.8,2.4c-2.9,2.2-3.7,7-4.3,10.4
	c-0.5,2.7-0.8,5.5-0.9,8.3c-0.1,2.2,1,2.5,2.8,3.1c2.3,0.8,4.6,1.4,7,1.9c4.6,1,9.3,1.7,14,1.7c2.3,0,4.5-0.2,6.8-0.5
	c-1.7-2.4-2.7-5.3-2.7-8.5C86.9,77.8,93.7,71.1,102,71.1z"/>
<path class="st2" d="M102,74.1c-6.7,0-12,5.4-12,12c0,6.6,5.4,12,12,12c6.6,0,12-5.4,12-12C114,79.4,108.6,74.1,102,74.1z
	 M107.2,88.1H104v3.2c0,1.1-0.9,2.1-2.1,2.1s-2.1-0.9-2.1-2.1v-3.2h-3.2c-1.1,0-2.1-0.9-2.1-2.1c0-1.1,0.9-2.1,2.1-2.1h3.2v-3.2
	c0-1.1,0.9-2.1,2.1-2.1s2.1,0.9,2.1,2.1V84h3.2c1.1,0,2.1,0.9,2.1,2.1C109.3,87.2,108.4,88.1,107.2,88.1z"/>
<rect x="117" y="87" class="st0" width="11" height="15"/>
<rect x="117" y="87" class="st0" width="11" height="15"/>
<rect x="117" y="87" class="st0" width="11" height="15"/>
<path class="st2" d="M128,94.3c0-0.2-0.1-0.4-0.2-0.5l-9.9-6.6c-0.2-0.1-0.4-0.1-0.5,0c-0.2,0.1-0.3,0.3-0.3,0.5v11.7
	c0,0.2,0.1,0.4,0.3,0.5c0.2,0.1,0.4,0.1,0.6-0.1l2.8-2.2l2.6,4.2c0.1,0.2,0.3,0.3,0.5,0.3c0.1,0,0.2,0,0.3-0.1l2.6-1.6
	c0.1-0.1,0.2-0.2,0.2-0.3c0-0.1,0-0.3-0.1-0.4l-2.4-3.9l3.2-0.9C127.8,94.7,128,94.5,128,94.3z"/>
</svg>
