<svg width="295" height="246" viewBox="0 0 295 246" fill="none" xmlns="http://www.w3.org/2000/svg">
<rect width="255" height="206" fill="black" fill-opacity="0" transform="translate(20 15)"/>
<g filter="url(#filter0_d)">
<rect x="20" y="15" width="255" height="206" rx="15" fill="#65A7FF"/>
</g>
<rect width="169" height="180" fill="black" fill-opacity="0" transform="translate(63 31)"/>
<rect width="169" height="180" fill="black" fill-opacity="0" transform="translate(63 31)"/>
<path d="M124.51 145.923L123.223 158.02C123.119 158.996 123.436 159.97 124.096 160.7C124.756 161.43 125.695 161.846 126.682 161.846H163.451C164.437 161.846 165.377 161.429 166.037 160.7C166.696 159.97 167.013 158.996 166.91 158.02L165.623 145.923H211.423C218.552 145.923 224.351 140.15 224.351 133.054V43.8688C224.35 36.7727 218.551 31 211.423 31H75.9276C68.7991 31 63 36.7727 63 43.8688V133.054C63 140.15 68.7991 145.923 75.9276 145.923H124.51ZM159.586 154.923H130.546L131.503 145.923H158.628L159.586 154.923ZM75.9276 37.9234H211.423C214.716 37.9234 217.395 40.5903 217.395 43.8688V122.384H69.9551V43.8688C69.9551 40.5903 72.6342 37.9234 75.9276 37.9234ZM69.9551 133.054V129.308H217.395V133.054C217.395 136.333 214.716 139 211.422 139H75.9276C72.6342 139 69.9551 136.333 69.9551 133.054Z" fill="white"/>
<path d="M211.327 185.104C211.958 184.07 212.001 182.784 211.44 181.711L204.572 168.557C203.973 167.411 202.784 166.692 201.486 166.692H85.865C84.5677 166.692 83.3779 167.411 82.7793 168.557L75.9109 181.711C75.3508 182.784 75.3934 184.07 76.024 185.104C76.6546 186.138 77.7818 186.769 78.9966 186.769H208.355C209.569 186.769 210.697 186.138 211.327 185.104ZM84.7234 179.846L87.9766 173.615H199.374L202.628 179.846H84.7234Z" fill="white"/>
<path d="M217.395 193H211.831C203.778 193 197.226 199.521 197.226 207.538C197.226 209.45 198.783 211 200.704 211H228.523C230.443 211 232 209.45 232 207.538C232.001 199.522 225.449 193 217.395 193ZM205.019 204.077C206.287 201.613 208.865 199.923 211.831 199.923H217.395C220.362 199.923 222.94 201.613 224.209 204.077H205.019Z" fill="white"/>
<rect width="49" height="38" fill="black" fill-opacity="0" transform="translate(158 51)"/>
<rect width="17.8878" height="18.9345" fill="black" fill-opacity="0" transform="translate(163.921 51)"/>
<rect width="17.8878" height="18.9345" fill="black" fill-opacity="0" transform="translate(163.921 51)"/>
<path d="M172.865 51C167.934 51 163.921 55.247 163.921 60.4672C163.921 65.6875 167.934 69.9345 172.865 69.9345C177.797 69.9345 181.809 65.6875 181.809 60.4672C181.809 55.247 177.797 51 172.865 51Z" fill="white"/>
<rect width="15.3559" height="16.2251" fill="black" fill-opacity="0" transform="translate(185.527 52.3547)"/>
<rect width="15.3559" height="16.2251" fill="black" fill-opacity="0" transform="translate(185.527 52.3547)"/>
<path d="M193.199 52.3547C193.179 52.3547 193.158 52.3548 193.138 52.3549C191.068 52.372 189.135 53.2445 187.695 54.8117C186.279 56.3512 185.51 58.3822 185.528 60.5305C185.545 62.6787 186.348 64.6967 187.789 66.2129C189.241 67.7407 191.164 68.5798 193.211 68.5798C193.231 68.5798 193.252 68.5797 193.272 68.5796C195.342 68.5625 197.275 67.69 198.716 66.1229C200.131 64.5833 200.901 62.5523 200.883 60.404C200.846 55.9521 197.405 52.3547 193.199 52.3547Z" fill="white"/>
<rect width="23.164" height="16.2542" fill="black" fill-opacity="0" transform="translate(183.836 70.1298)"/>
<rect width="23.164" height="16.2542" fill="black" fill-opacity="0" transform="translate(183.836 70.1298)"/>
<path d="M193.577 70.1298H192.834C189.375 70.1298 186.219 71.4426 183.836 73.5942C184.432 74.051 185 74.5487 185.538 75.0857C187.124 76.6699 188.37 78.5158 189.241 80.5719C190.026 82.4236 190.474 84.3746 190.578 86.384H207V83.53C207 76.1415 200.978 70.1298 193.577 70.1298Z" fill="white"/>
<rect width="29.7302" height="16.1033" fill="black" fill-opacity="0" transform="translate(158 72.8968)"/>
<rect width="29.7302" height="16.1033" fill="black" fill-opacity="0" transform="translate(158 72.8968)"/>
<path d="M187.701 86.384C187.431 82.0281 185.219 78.1967 181.918 75.7412C179.517 73.9545 176.539 72.8968 173.312 72.8968H172.419C164.455 72.8969 158 79.3413 158 87.2917V89H187.73V87.2917C187.73 86.9869 187.721 86.684 187.701 86.384Z" fill="white"/>
<path d="M161.569 100.48L159.259 101.362V103.252L161.051 102.58V108.194H159.259V110H164.691V108.194H163.095V100.48H161.569ZM166.244 100.466L165.908 105.996C166.734 105.702 167.616 105.59 168.302 105.59C169.828 105.59 170.626 106.052 170.626 106.99C170.626 107.914 169.702 108.362 168.456 108.362C167.504 108.362 166.398 108.096 165.628 107.606V109.552C166.468 109.958 167.588 110.196 168.694 110.196C170.794 110.196 172.726 109.23 172.726 107.018C172.726 104.834 171.144 103.98 169.24 103.98C168.848 103.98 168.414 104.036 168.008 104.12L168.134 102.258L172.292 102.272V100.466H166.244ZM176.948 105.24C176.948 107.984 178.25 110.196 181.288 110.196C184.326 110.196 185.628 107.984 185.628 105.24C185.628 102.496 184.326 100.284 181.288 100.284C178.25 100.284 176.948 102.496 176.948 105.24ZM183.528 105.24C183.528 107.27 182.828 108.348 181.288 108.348C179.748 108.348 179.048 107.27 179.048 105.24C179.048 103.21 179.748 102.132 181.288 102.132C182.828 102.132 183.528 103.21 183.528 105.24ZM186.832 105.24C186.832 107.984 188.134 110.196 191.172 110.196C194.21 110.196 195.512 107.984 195.512 105.24C195.512 102.496 194.21 100.284 191.172 100.284C188.134 100.284 186.832 102.496 186.832 105.24ZM193.412 105.24C193.412 107.27 192.712 108.348 191.172 108.348C189.632 108.348 188.932 107.27 188.932 105.24C188.932 103.21 189.632 102.132 191.172 102.132C192.712 102.132 193.412 103.21 193.412 105.24ZM196.717 105.24C196.717 107.984 198.019 110.196 201.057 110.196C204.095 110.196 205.397 107.984 205.397 105.24C205.397 102.496 204.095 100.284 201.057 100.284C198.019 100.284 196.717 102.496 196.717 105.24ZM203.297 105.24C203.297 107.27 202.597 108.348 201.057 108.348C199.517 108.348 198.817 107.27 198.817 105.24C198.817 103.21 199.517 102.132 201.057 102.132C202.597 102.132 203.297 103.21 203.297 105.24Z" fill="white"/>
<rect width="55" height="62" fill="black" fill-opacity="0" transform="translate(79 51)"/>
<rect width="55" height="62" fill="black" fill-opacity="0" transform="translate(79 51)"/>
<rect width="55" height="62" fill="black" fill-opacity="0" transform="translate(79 51)"/>
<path d="M102.757 82.4253C111.539 82.4248 114.698 73.6834 115.525 66.5029C116.544 57.6574 112.337 51 102.757 51C93.1791 51 88.9696 57.6569 89.9893 66.5029C90.8173 73.6834 93.9759 82.4259 102.757 82.4253Z" fill="white"/>
<path d="M121.959 86.064C122.241 86.064 122.522 86.0724 122.801 86.0878C122.383 85.4951 121.899 84.9724 121.333 84.5522C119.646 83.3001 117.46 82.8893 115.529 82.1346C114.588 81.7673 113.746 81.4025 112.956 80.9872C110.287 83.8962 106.808 85.418 102.756 85.4184C98.7062 85.4184 95.2272 83.8966 92.5594 80.9872C91.7689 81.4026 90.9266 81.7673 89.9864 82.1346C88.0545 82.8894 85.8693 83.3001 84.1819 84.5522C81.2637 86.7176 80.5096 91.589 79.917 94.9119C79.428 97.6549 79.0995 100.454 79.0036 103.24C78.9293 105.398 80.0011 105.701 81.8171 106.352C84.091 107.168 86.4388 107.773 88.8024 108.269C93.3671 109.228 98.0724 109.964 102.757 109.997C105.027 109.981 107.302 109.799 109.563 109.507C107.889 107.096 106.907 104.174 106.907 101.028C106.907 92.7769 113.659 86.064 121.959 86.064Z" fill="white"/>
<path d="M121.959 89.0568C115.309 89.0568 109.917 94.4169 109.917 101.028C109.917 107.64 115.309 113 121.959 113C128.609 113 134 107.64 134 101.028C134 94.4168 128.609 89.0568 121.959 89.0568ZM127.227 103.082H124.025V106.266C124.025 107.4 123.1 108.32 121.959 108.32C120.818 108.32 119.893 107.4 119.893 106.266V103.082H116.691C115.55 103.082 114.625 102.163 114.625 101.028C114.625 99.8938 115.55 98.9741 116.691 98.9741H119.893V95.7906C119.893 94.6562 120.818 93.7365 121.959 93.7365C123.1 93.7365 124.025 94.6562 124.025 95.7906V98.9741H127.227C128.368 98.9741 129.293 99.8938 129.293 101.028C129.293 102.163 128.368 103.082 127.227 103.082Z" fill="white"/>
<rect width="11" height="15" fill="black" fill-opacity="0" transform="translate(137 102)"/>
<rect width="11" height="15" fill="black" fill-opacity="0" transform="translate(137 102)"/>
<rect width="11" height="15" fill="black" fill-opacity="0" transform="translate(137 102)"/>
<path d="M147.995 109.274C148.022 109.063 147.933 108.843 147.756 108.733L137.816 102.089C137.656 101.979 137.443 101.969 137.275 102.07C137.106 102.171 137 102.354 137 102.556V114.305C137 114.516 137.115 114.7 137.293 114.8C137.47 114.892 137.692 114.874 137.851 114.745L140.671 112.564L143.251 116.743C143.349 116.908 143.526 117 143.704 117C143.792 117 143.89 116.973 143.97 116.927L146.603 115.35C146.727 115.277 146.816 115.149 146.851 115.002C146.887 114.855 146.86 114.7 146.781 114.58L144.378 110.667L147.623 109.723C147.818 109.659 147.969 109.485 147.995 109.274Z" fill="white"/>
<defs>
<filter id="filter0_d" x="0" y="3.05176e-05" width="295" height="246" filterUnits="userSpaceOnUse" color-interpolation-filters="sRGB">
<feFlood flood-opacity="0" result="BackgroundImageFix"/>
<feColorMatrix in="SourceAlpha" type="matrix" values="0 0 0 0 0 0 0 0 0 0 0 0 0 0 0 0 0 0 255 0"/>
<feOffset dy="5"/>
<feGaussianBlur stdDeviation="10"/>
<feColorMatrix type="matrix" values="0 0 0 0 0.462882 0 0 0 0 0.462882 0 0 0 0 0.462882 0 0 0 0.2 0"/>
<feBlend mode="normal" in2="BackgroundImageFix" result="effect1_dropShadow"/>
<feBlend mode="normal" in="SourceGraphic" in2="effect1_dropShadow" result="shape"/>
</filter>
</defs>
</svg>
