<svg width="182" height="230" viewBox="0 0 182 230" fill="none" xmlns="http://www.w3.org/2000/svg">
<rect width="181" height="228" fill="black" fill-opacity="0" transform="translate(0 1)"/>
<path d="M75.7761 37.6685C79.9669 35.2358 85.14 35.2358 89.3308 37.6685L145.824 70.4614C149.986 72.877 152.547 77.3251 152.547 82.1369V147.863C152.547 152.675 149.986 157.123 145.824 159.539L89.3308 192.332C85.14 194.764 79.9669 194.764 75.7761 192.332L19.2827 159.539C15.1212 157.123 12.5601 152.675 12.5601 147.863V82.1369C12.5601 77.3251 15.1212 72.877 19.2827 70.4614L75.7761 37.6685Z" stroke="#E1EEFF" stroke-width="3"/>
<path d="M83 1L173.542 53.662C178.159 56.3477 181 61.2864 181 66.6282V163.372C181 168.714 178.159 173.652 173.542 176.338L83 229" stroke="#E1EEFF" stroke-width="2"/>
<rect width="68" height="68" fill="black" fill-opacity="0" transform="translate(49 81)"/>
<rect width="68" height="68" fill="black" fill-opacity="0" transform="translate(49 81)"/>
<rect width="68" height="68" fill="black" fill-opacity="0" transform="translate(49 81)"/>
<path d="M109.031 86.3125H105.844V81H100.531V86.3125H65.4688V81H60.1562V86.3125H56.9688C52.5748 86.3125 49 89.8873 49 94.2812V141.031C49 145.425 52.5748 149 56.9688 149H109.031C113.425 149 117 145.425 117 141.031V94.2812C117 89.8873 113.425 86.3125 109.031 86.3125ZM111.688 141.031C111.688 142.496 110.496 143.688 109.031 143.688H56.9688C55.5041 143.688 54.3125 142.496 54.3125 141.031V105.969H111.688V141.031ZM111.688 100.656H54.3125V94.2812C54.3125 92.8166 55.5041 91.625 56.9688 91.625H60.1562V96.9375H65.4688V91.625H100.531V96.9375H105.844V91.625H109.031C110.496 91.625 111.688 92.8166 111.688 94.2812V100.656Z" fill="url(#paint0_linear)"/>
<rect width="5.3125" height="5.3125" fill="black" fill-opacity="0" transform="translate(59.0938 111.547)"/>
<rect width="5.3125" height="5.3125" fill="black" fill-opacity="0" transform="translate(59.0938 111.547)"/>
<path d="M64.4062 111.547H59.0938V116.859H64.4062V111.547Z" fill="url(#paint1_linear)"/>
<rect width="5.3125" height="5.3125" fill="black" fill-opacity="0" transform="translate(69.7188 111.547)"/>
<rect width="5.3125" height="5.3125" fill="black" fill-opacity="0" transform="translate(69.7188 111.547)"/>
<path d="M75.0312 111.547H69.7188V116.859H75.0312V111.547Z" fill="url(#paint2_linear)"/>
<rect width="5.3125" height="5.3125" fill="black" fill-opacity="0" transform="translate(80.3438 111.547)"/>
<rect width="5.3125" height="5.3125" fill="black" fill-opacity="0" transform="translate(80.3438 111.547)"/>
<path d="M85.6562 111.547H80.3438V116.859H85.6562V111.547Z" fill="url(#paint3_linear)"/>
<rect width="5.3125" height="5.3125" fill="black" fill-opacity="0" transform="translate(90.9688 111.547)"/>
<rect width="5.3125" height="5.3125" fill="black" fill-opacity="0" transform="translate(90.9688 111.547)"/>
<path d="M96.2812 111.547H90.9688V116.859H96.2812V111.547Z" fill="url(#paint4_linear)"/>
<rect width="5.3125" height="5.3125" fill="black" fill-opacity="0" transform="translate(101.594 111.547)"/>
<rect width="5.3125" height="5.3125" fill="black" fill-opacity="0" transform="translate(101.594 111.547)"/>
<path d="M106.906 111.547H101.594V116.859H106.906V111.547Z" fill="url(#paint5_linear)"/>
<rect width="5.3125" height="5.3125" fill="black" fill-opacity="0" transform="translate(59.0938 122.172)"/>
<rect width="5.3125" height="5.3125" fill="black" fill-opacity="0" transform="translate(59.0938 122.172)"/>
<path d="M64.4062 122.172H59.0938V127.484H64.4062V122.172Z" fill="url(#paint6_linear)"/>
<rect width="5.3125" height="5.3125" fill="black" fill-opacity="0" transform="translate(69.7188 122.172)"/>
<rect width="5.3125" height="5.3125" fill="black" fill-opacity="0" transform="translate(69.7188 122.172)"/>
<path d="M75.0312 122.172H69.7188V127.484H75.0312V122.172Z" fill="url(#paint7_linear)"/>
<rect width="5.3125" height="5.3125" fill="black" fill-opacity="0" transform="translate(80.3438 122.172)"/>
<rect width="5.3125" height="5.3125" fill="black" fill-opacity="0" transform="translate(80.3438 122.172)"/>
<path d="M85.6562 122.172H80.3438V127.484H85.6562V122.172Z" fill="url(#paint8_linear)"/>
<rect width="5.3125" height="5.3125" fill="black" fill-opacity="0" transform="translate(90.9688 122.172)"/>
<rect width="5.3125" height="5.3125" fill="black" fill-opacity="0" transform="translate(90.9688 122.172)"/>
<path d="M96.2812 122.172H90.9688V127.484H96.2812V122.172Z" fill="url(#paint9_linear)"/>
<rect width="5.3125" height="5.3125" fill="black" fill-opacity="0" transform="translate(59.0938 132.797)"/>
<rect width="5.3125" height="5.3125" fill="black" fill-opacity="0" transform="translate(59.0938 132.797)"/>
<path d="M64.4062 132.797H59.0938V138.109H64.4062V132.797Z" fill="url(#paint10_linear)"/>
<rect width="5.3125" height="5.3125" fill="black" fill-opacity="0" transform="translate(69.7188 132.797)"/>
<rect width="5.3125" height="5.3125" fill="black" fill-opacity="0" transform="translate(69.7188 132.797)"/>
<path d="M75.0312 132.797H69.7188V138.109H75.0312V132.797Z" fill="url(#paint11_linear)"/>
<rect width="5.3125" height="5.3125" fill="black" fill-opacity="0" transform="translate(80.3438 132.797)"/>
<rect width="5.3125" height="5.3125" fill="black" fill-opacity="0" transform="translate(80.3438 132.797)"/>
<path d="M85.6562 132.797H80.3438V138.109H85.6562V132.797Z" fill="url(#paint12_linear)"/>
<rect width="5.3125" height="5.3125" fill="black" fill-opacity="0" transform="translate(90.9688 132.797)"/>
<rect width="5.3125" height="5.3125" fill="black" fill-opacity="0" transform="translate(90.9688 132.797)"/>
<path d="M96.2812 132.797H90.9688V138.109H96.2812V132.797Z" fill="url(#paint13_linear)"/>
<rect width="5.3125" height="5.3125" fill="black" fill-opacity="0" transform="translate(101.594 122.172)"/>
<rect width="5.3125" height="5.3125" fill="black" fill-opacity="0" transform="translate(101.594 122.172)"/>
<path d="M106.906 122.172H101.594V127.484H106.906V122.172Z" fill="url(#paint14_linear)"/>
<defs>
<linearGradient id="paint0_linear" x1="117" y1="81" x2="41.3199" y2="91.0257" gradientUnits="userSpaceOnUse">
<stop stop-color="#6AA5F4"/>
<stop offset="1" stop-color="#2B7FEE"/>
</linearGradient>
<linearGradient id="paint1_linear" x1="64.4063" y1="111.547" x2="58.4937" y2="112.33" gradientUnits="userSpaceOnUse">
<stop stop-color="#6AA5F4"/>
<stop offset="1" stop-color="#2B7FEE"/>
</linearGradient>
<linearGradient id="paint2_linear" x1="75.0313" y1="111.547" x2="69.1187" y2="112.33" gradientUnits="userSpaceOnUse">
<stop stop-color="#6AA5F4"/>
<stop offset="1" stop-color="#2B7FEE"/>
</linearGradient>
<linearGradient id="paint3_linear" x1="85.6563" y1="111.547" x2="79.7437" y2="112.33" gradientUnits="userSpaceOnUse">
<stop stop-color="#6AA5F4"/>
<stop offset="1" stop-color="#2B7FEE"/>
</linearGradient>
<linearGradient id="paint4_linear" x1="96.2813" y1="111.547" x2="90.3687" y2="112.33" gradientUnits="userSpaceOnUse">
<stop stop-color="#6AA5F4"/>
<stop offset="1" stop-color="#2B7FEE"/>
</linearGradient>
<linearGradient id="paint5_linear" x1="106.906" y1="111.547" x2="100.994" y2="112.33" gradientUnits="userSpaceOnUse">
<stop stop-color="#6AA5F4"/>
<stop offset="1" stop-color="#2B7FEE"/>
</linearGradient>
<linearGradient id="paint6_linear" x1="64.4063" y1="122.172" x2="58.4937" y2="122.955" gradientUnits="userSpaceOnUse">
<stop stop-color="#6AA5F4"/>
<stop offset="1" stop-color="#2B7FEE"/>
</linearGradient>
<linearGradient id="paint7_linear" x1="75.0313" y1="122.172" x2="69.1187" y2="122.955" gradientUnits="userSpaceOnUse">
<stop stop-color="#6AA5F4"/>
<stop offset="1" stop-color="#2B7FEE"/>
</linearGradient>
<linearGradient id="paint8_linear" x1="85.6563" y1="122.172" x2="79.7437" y2="122.955" gradientUnits="userSpaceOnUse">
<stop stop-color="#6AA5F4"/>
<stop offset="1" stop-color="#2B7FEE"/>
</linearGradient>
<linearGradient id="paint9_linear" x1="96.2813" y1="122.172" x2="90.3687" y2="122.955" gradientUnits="userSpaceOnUse">
<stop stop-color="#6AA5F4"/>
<stop offset="1" stop-color="#2B7FEE"/>
</linearGradient>
<linearGradient id="paint10_linear" x1="64.4063" y1="132.797" x2="58.4937" y2="133.58" gradientUnits="userSpaceOnUse">
<stop stop-color="#6AA5F4"/>
<stop offset="1" stop-color="#2B7FEE"/>
</linearGradient>
<linearGradient id="paint11_linear" x1="75.0313" y1="132.797" x2="69.1187" y2="133.58" gradientUnits="userSpaceOnUse">
<stop stop-color="#6AA5F4"/>
<stop offset="1" stop-color="#2B7FEE"/>
</linearGradient>
<linearGradient id="paint12_linear" x1="85.6563" y1="132.797" x2="79.7437" y2="133.58" gradientUnits="userSpaceOnUse">
<stop stop-color="#6AA5F4"/>
<stop offset="1" stop-color="#2B7FEE"/>
</linearGradient>
<linearGradient id="paint13_linear" x1="96.2813" y1="132.797" x2="90.3687" y2="133.58" gradientUnits="userSpaceOnUse">
<stop stop-color="#6AA5F4"/>
<stop offset="1" stop-color="#2B7FEE"/>
</linearGradient>
<linearGradient id="paint14_linear" x1="106.906" y1="122.172" x2="100.994" y2="122.955" gradientUnits="userSpaceOnUse">
<stop stop-color="#6AA5F4"/>
<stop offset="1" stop-color="#2B7FEE"/>
</linearGradient>
</defs>
</svg>
