<svg width="38" height="32" viewBox="0 0 38 32" fill="none" xmlns="http://www.w3.org/2000/svg">
<rect width="38" height="32" fill="black" fill-opacity="0"/>
<rect width="38" height="32" fill="black" fill-opacity="0"/>
<path d="M22.9314 5.49239C24.6884 6.59475 25.9204 8.46019 26.1447 10.6255C26.8613 10.9606 27.6566 11.1532 28.4998 11.1532C31.578 11.1532 34.0729 8.65665 34.0729 5.57685C34.0729 2.49658 31.578 0 28.4998 0C25.4509 0.00094909 22.9778 2.45292 22.9314 5.49239ZM19.2803 16.9109C22.3585 16.9109 24.8534 14.4138 24.8534 11.334C24.8534 8.25424 22.358 5.75766 19.2803 5.75766C16.2025 5.75766 13.7062 8.25471 13.7062 11.3345C13.7062 14.4143 16.2025 16.9109 19.2803 16.9109ZM21.6443 17.291H16.9153C12.9806 17.291 9.77956 20.4947 9.77956 24.432V30.219L9.79426 30.3097L10.1926 30.4345C13.9476 31.6085 17.2098 32 19.8949 32C25.1394 32 28.1792 30.5038 28.3665 30.4084L28.7388 30.22H28.7786V24.432C28.78 20.4947 25.579 17.291 21.6443 17.291ZM30.8647 11.5338H26.1722C26.1215 13.4125 25.3201 15.1043 24.0524 16.321C27.5499 17.3617 30.1088 20.6071 30.1088 24.4405V26.2238C34.742 26.054 37.412 24.7399 37.5879 24.6517L37.9602 24.4628H38V18.6738C38 14.737 34.799 11.5338 30.8647 11.5338ZM9.50119 11.1542C10.5914 11.1542 11.6058 10.8358 12.4651 10.2934C12.7383 8.51049 13.6934 6.95256 15.0577 5.89148C15.0634 5.78708 15.0734 5.68363 15.0734 5.57828C15.0734 2.49801 12.578 0.00142353 9.50119 0.00142353C6.42249 0.00142353 3.92804 2.49801 3.92804 5.57828C3.92804 8.65713 6.42249 11.1542 9.50119 11.1542ZM14.5062 16.321C13.2448 15.1105 12.4462 13.4277 12.3878 11.5604C12.2138 11.5476 12.0416 11.5338 11.8643 11.5338H7.13573C3.20105 11.5338 0 14.737 0 18.6738V24.4619L0.0147011 24.5511L0.413054 24.6768C3.42536 25.6178 6.11377 26.0516 8.44887 26.1882V24.4405C8.44982 20.6071 11.0078 17.3627 14.5062 16.321Z" fill="#2F80ED"/>
</svg>
