<svg width="182" height="230" viewBox="0 0 182 230" fill="none" xmlns="http://www.w3.org/2000/svg">
<rect width="181" height="228" fill="black" fill-opacity="0" transform="translate(0 1)"/>
<path d="M75.7761 37.6685C79.9669 35.2358 85.14 35.2358 89.3308 37.6685L145.824 70.4614C149.986 72.877 152.547 77.3251 152.547 82.1369V147.863C152.547 152.675 149.986 157.123 145.824 159.539L89.3308 192.332C85.14 194.764 79.9669 194.764 75.7761 192.332L19.2827 159.539C15.1212 157.123 12.5601 152.675 12.5601 147.863V82.1369C12.5601 77.3251 15.1212 72.877 19.2827 70.4614L75.7761 37.6685Z" stroke="#E1EEFF" stroke-width="3"/>
<path d="M83 1L173.542 53.662C178.159 56.3477 181 61.2864 181 66.6282V163.372C181 168.714 178.159 173.652 173.542 176.338L83 229" stroke="#E1EEFF" stroke-width="2"/>
<rect width="81" height="75" fill="black" fill-opacity="0" transform="translate(42 77)"/>
<rect width="81" height="75" fill="black" fill-opacity="0" transform="translate(42 77)"/>
<rect width="81" height="75" fill="black" fill-opacity="0" transform="translate(42 77)"/>
<path d="M107.876 96.5884C107.01 91.4327 104.461 86.7275 100.564 83.1568C96.2332 79.1858 90.6033 77 84.7403 77C80.2097 77 75.7958 78.3014 72.0148 80.7542C68.8667 82.7898 66.2517 85.5428 64.4028 88.7798C63.6033 88.6296 62.7705 88.5462 61.9377 88.5462C54.8587 88.5462 49.0956 94.3192 49.0956 101.41C49.0956 102.328 49.1956 103.212 49.3621 104.08C44.7816 107.417 42 112.79 42 118.513C42 123.135 43.7156 127.623 46.847 131.177C50.0617 134.814 54.3091 136.967 58.8396 137.217C58.8896 137.217 58.9229 137.217 58.9729 137.217H73.2973C74.5466 137.217 75.546 136.216 75.546 134.964C75.546 133.713 74.5466 132.712 73.2973 132.712H59.0395C52.227 132.295 46.4972 125.804 46.4972 118.496C46.4972 113.774 49.029 109.369 53.1098 106.983C54.0592 106.433 54.459 105.281 54.0925 104.247C53.7594 103.346 53.5928 102.395 53.5928 101.377C53.5928 96.772 57.3405 93.0178 61.9377 93.0178C62.9204 93.0178 63.8865 93.1847 64.7859 93.5184C65.8853 93.9188 67.1012 93.4182 67.6009 92.3671C70.7156 85.743 77.4448 81.4716 84.7569 81.4716C94.5842 81.4716 102.696 88.8465 103.629 98.624C103.729 99.6418 104.495 100.459 105.494 100.626C112.906 101.894 118.503 108.752 118.503 116.577C118.503 124.87 111.99 132.078 103.962 132.695H91.686C90.4368 132.695 89.4374 133.696 89.4374 134.948C89.4374 136.199 90.4368 137.2 91.686 137.2H104.045C104.095 137.2 104.145 137.2 104.212 137.2C109.292 136.833 114.039 134.497 117.57 130.593C121.085 126.722 123 121.75 123 116.577C122.983 107.217 116.604 98.891 107.876 96.5884Z" fill="url(#paint0_linear)"/>
<path d="M95.9999 120.648C96.8827 119.764 96.8827 118.346 95.9999 117.462L84.0906 105.532C83.6742 105.115 83.0912 104.864 82.5083 104.864C81.9253 104.864 81.3423 105.098 80.9259 105.532L69.0166 117.462C68.1338 118.346 68.1338 119.764 69.0166 120.648C69.4496 121.082 70.0326 121.316 70.5989 121.316C71.1653 121.316 71.7482 121.099 72.1813 120.648L80.2596 112.556V149.747C80.2596 150.999 81.259 152 82.5083 152C83.7575 152 84.7569 150.999 84.7569 149.747V112.556L92.8352 120.648C93.7013 121.533 95.1171 121.533 95.9999 120.648Z" fill="url(#paint1_linear)"/>
<defs>
<linearGradient id="paint0_linear" x1="123" y1="77" x2="34.0927" y2="92.843" gradientUnits="userSpaceOnUse">
<stop stop-color="#6AA5F4"/>
<stop offset="1" stop-color="#2B7FEE"/>
</linearGradient>
<linearGradient id="paint1_linear" x1="96.662" y1="104.864" x2="64.8061" y2="107.399" gradientUnits="userSpaceOnUse">
<stop stop-color="#6AA5F4"/>
<stop offset="1" stop-color="#2B7FEE"/>
</linearGradient>
</defs>
</svg>
