<svg width="25" height="32" viewBox="0 0 25 32" fill="none" xmlns="http://www.w3.org/2000/svg">
<rect width="25" height="32" fill="black" fill-opacity="0"/>
<rect width="25" height="32" fill="black" fill-opacity="0"/>
<path d="M19.0112 23.4315C19.0027 23.4373 18.9931 23.4411 18.9846 23.448C18.9389 23.4843 18.899 23.5323 18.8761 23.5973C18.6745 24.1664 18.1553 24.5333 17.5532 24.5333C16.9511 24.5333 16.4319 24.1664 16.2303 23.5973C16.2069 23.5317 16.1671 23.4832 16.1208 23.4464C16.1139 23.4411 16.1064 23.4379 16.0995 23.4331C16.0607 23.4069 16.0192 23.3904 15.9772 23.3813C15.9708 23.3803 15.9644 23.3797 15.958 23.3787V27.512L17.5538 25.912L19.1495 27.512V23.3792C19.1421 23.3803 19.1351 23.3808 19.1277 23.3819C19.0878 23.3915 19.0484 23.4075 19.0112 23.4315Z" fill="#2F80ED"/>
<path d="M17.2415 0H0V32H25V7.7792L17.2415 0ZM13.2979 12.2667H17.0213C17.3154 12.2667 17.5532 12.5051 17.5532 12.8C17.5532 13.0949 17.3154 13.3333 17.0213 13.3333H13.2979C13.0037 13.3333 12.766 13.0949 12.766 12.8C12.766 12.5051 13.0037 12.2667 13.2979 12.2667ZM11.1702 12.8C11.1702 12.9387 11.1117 13.0773 11.016 13.1733C10.9149 13.2795 10.7766 13.3333 10.6383 13.3333C10.5 13.3333 10.3612 13.2747 10.2606 13.1787C10.1596 13.0773 10.1064 12.9387 10.1064 12.8C10.1064 12.6608 10.1596 12.5221 10.2606 12.4267C10.4574 12.224 10.8138 12.224 11.016 12.4213C11.1117 12.5221 11.1702 12.6608 11.1702 12.8ZM5.31915 8H10.1064C10.4005 8 10.6383 8.2384 10.6383 8.53333C10.6383 8.82827 10.4005 9.06667 10.1064 9.06667H5.31915C5.025 9.06667 4.78723 8.82827 4.78723 8.53333C4.78723 8.2384 5.025 8 5.31915 8ZM5.31915 12.2667H7.97872C8.27287 12.2667 8.51064 12.5051 8.51064 12.8C8.51064 13.0949 8.27287 13.3333 7.97872 13.3333H5.31915C5.025 13.3333 4.78723 13.0949 4.78723 12.8C4.78723 12.5051 5.025 12.2667 5.31915 12.2667ZM4.94149 16.688C5.14362 16.4907 5.49468 16.4907 5.69681 16.688C5.79734 16.7888 5.85106 16.9275 5.85106 17.0667C5.85106 17.2053 5.79734 17.344 5.69681 17.4453C5.59574 17.5413 5.45745 17.6 5.31915 17.6C5.18085 17.6 5.04202 17.5413 4.94149 17.4453C4.84521 17.344 4.78723 17.2053 4.78723 17.0667C4.78723 16.9221 4.84043 16.7888 4.94149 16.688ZM6.27979 25.4752C6.2633 25.9648 5.72394 26.1483 5.37181 25.8523C4.87447 25.4341 4.3766 25.0165 3.87926 24.5984C3.35266 24.1557 4.10957 23.4053 4.63138 23.8437C4.8516 24.0288 5.07181 24.2133 5.29149 24.3984C5.43404 23.1925 5.82606 22.0299 6.99149 21.4213C7.59894 21.1045 8.13723 22.0251 7.52819 22.3424C6.37394 22.9456 6.31862 24.3195 6.27979 25.4752ZM11.0404 24.6715C10.8574 24.3435 10.0511 24.9728 9.83457 25.0539C9.53085 25.1675 9.25957 25.2112 8.9367 25.1744C8.31489 25.1029 7.78989 24.6997 7.51702 24.144C7.21489 23.5296 8.13191 22.9888 8.43564 23.6059C8.94362 24.6384 9.80319 23.7552 10.5293 23.5493C11.0856 23.3915 11.683 23.6373 11.959 24.1333C12.2941 24.7339 11.375 25.272 11.0404 24.6715ZM11.7021 17.6H7.97872C7.68457 17.6 7.44681 17.3616 7.44681 17.0667C7.44681 16.7717 7.68457 16.5333 7.97872 16.5333H11.7021C11.9963 16.5333 12.234 16.7717 12.234 17.0667C12.234 17.3616 11.9963 17.6 11.7021 17.6ZM21.4069 21.0597C21.283 21.104 21.2282 21.1979 21.2064 21.2501C21.1851 21.3024 21.1569 21.408 21.2138 21.528C21.4223 21.9664 21.3931 22.472 21.1367 22.8779C20.9271 23.2112 20.5851 23.4277 20.2128 23.5024V30.0869L17.5532 27.4203L14.8936 30.0869V23.5019C14.5218 23.4267 14.1793 23.2112 13.9697 22.8784C13.7138 22.4715 13.6846 21.9664 13.8926 21.5275C13.9489 21.408 13.9213 21.3024 13.9 21.2501C13.8782 21.1973 13.8234 21.104 13.6995 21.0597C13.1319 20.8576 12.766 20.3371 12.766 19.7333C12.766 19.1296 13.1319 18.6091 13.6995 18.4069C13.8234 18.3627 13.8782 18.2688 13.9 18.2165C13.9213 18.1643 13.9495 18.0587 13.8926 17.9387C13.684 17.5003 13.7133 16.9947 13.9697 16.5883C14.3415 15.9989 15.1266 15.7579 15.7638 16.0635C15.9207 16.1392 16.1516 16.0928 16.2303 15.8699C16.4319 15.3003 16.9511 14.9333 17.5532 14.9333C18.1553 14.9333 18.6745 15.3003 18.8761 15.8693C18.9548 16.0923 19.1851 16.1381 19.3431 16.0629C19.9782 15.7595 20.7649 15.9989 21.1367 16.5877C21.3926 16.9947 21.4218 17.4997 21.2138 17.9387C21.1574 18.0581 21.1851 18.1637 21.2064 18.216C21.2282 18.2688 21.283 18.3621 21.4069 18.4064C21.9745 18.6091 22.3404 19.1296 22.3404 19.7333C22.3404 20.3371 21.9745 20.8576 21.4069 21.0597ZM19.1489 12.8C19.1489 12.6608 19.2069 12.5221 19.3032 12.4213C19.5053 12.224 19.8564 12.224 20.0585 12.4213C20.1543 12.5221 20.2128 12.6608 20.2128 12.8C20.2128 12.9387 20.1543 13.0773 20.0585 13.1787C19.9574 13.2747 19.8191 13.3333 19.6809 13.3333C19.5426 13.3333 19.4037 13.2747 19.3032 13.1787C19.2069 13.0773 19.1489 12.9387 19.1489 12.8ZM15.9574 8V0.533333L23.4043 8H15.9574Z" fill="#2F80ED"/>
<path d="M21.0503 19.4117C20.6769 19.2789 20.3753 18.992 20.2237 18.6245C20.0716 18.2571 20.0817 17.84 20.2525 17.4805C20.3195 17.3392 20.2812 17.2267 20.237 17.1573C20.144 17.0101 19.9668 16.9467 19.7998 17.0261C19.6094 17.1168 19.4067 17.1627 19.1971 17.1627C18.6041 17.1627 18.0721 16.7861 17.8737 16.2261C17.8014 16.0219 17.6253 16 17.553 16C17.4807 16 17.3046 16.0219 17.2322 16.2267C17.0338 16.7867 16.5019 17.1632 15.9088 17.1632C15.6993 17.1632 15.4971 17.1173 15.3067 17.0267C15.1381 16.9477 14.962 17.0107 14.869 17.1579C14.8248 17.2277 14.7865 17.3403 14.8535 17.4805C15.0237 17.8405 15.0344 18.2571 14.8822 18.6251C14.7307 18.992 14.4291 19.2795 14.0557 19.4123C13.8514 19.4843 13.8296 19.6608 13.8296 19.7333C13.8296 19.8059 13.8514 19.9824 14.0557 20.0549C14.4291 20.1877 14.7307 20.4747 14.8822 20.8421C15.0344 21.2096 15.0243 21.6267 14.8535 21.9861C14.7865 22.1275 14.8248 22.24 14.869 22.3093C14.9471 22.4336 15.0849 22.4923 15.2259 22.4624L15.3487 22.424C15.4966 22.3499 15.6998 22.3035 15.9094 22.3035C16.5025 22.3035 17.0344 22.68 17.2328 23.2405C17.3046 23.4448 17.4807 23.4667 17.553 23.4667C17.6253 23.4667 17.8014 23.4448 17.8737 23.24C18.0721 22.6795 18.6041 22.3029 19.1971 22.3029C19.2998 22.3029 19.4003 22.3147 19.4993 22.3371C19.5291 22.3435 19.5567 22.3573 19.586 22.3659C19.6482 22.384 19.711 22.4 19.7705 22.4272L19.8865 22.4635C20.0259 22.4901 20.1599 22.4309 20.237 22.3088C20.2812 22.2389 20.3195 22.1264 20.2525 21.9861C20.0822 21.6261 20.0716 21.2096 20.2237 20.8416C20.3753 20.4747 20.6769 20.1872 21.0503 20.0544C21.2546 19.9824 21.2764 19.8059 21.2764 19.7333C21.2764 19.6608 21.2546 19.4843 21.0503 19.4117Z" fill="#2F80ED"/>
</svg>
