<svg width="182" height="230" viewBox="0 0 182 230" fill="none" xmlns="http://www.w3.org/2000/svg">
<rect width="181" height="228" fill="black" fill-opacity="0" transform="translate(0 1)"/>
<path d="M75.7761 37.6685C79.9669 35.2358 85.14 35.2358 89.3308 37.6685L145.824 70.4614C149.986 72.877 152.547 77.3251 152.547 82.1369V147.863C152.547 152.675 149.986 157.123 145.824 159.539L89.3308 192.332C85.14 194.764 79.9669 194.764 75.7761 192.332L19.2827 159.539C15.1212 157.123 12.5601 152.675 12.5601 147.863V82.1369C12.5601 77.3251 15.1212 72.877 19.2827 70.4614L75.7761 37.6685Z" stroke="#E1EEFF" stroke-width="3"/>
<path d="M83 1L173.542 53.662C178.159 56.3477 181 61.2864 181 66.6282V163.372C181 168.714 178.159 173.652 173.542 176.338L83 229" stroke="#E1EEFF" stroke-width="2"/>
<rect width="83" height="77" fill="black" fill-opacity="0" transform="translate(37 77)"/>
<rect width="83" height="77" fill="black" fill-opacity="0" transform="translate(37 77)"/>
<path d="M83.0156 77C70.5132 77 59.4477 83.1859 52.7498 92.6257C54.136 93.522 55.4872 94.7511 56.794 96.3312C61.7908 88.9261 69.8702 83.7307 79.2181 82.6138L83.0151 88.982L86.8121 82.6137C101.181 84.33 112.603 95.6497 114.336 109.891L107.909 113.655L114.336 117.419C113.178 126.94 107.676 135.137 99.8703 140.05C100.368 141.174 100.648 142.322 100.697 143.506C100.734 144.372 100.644 145.189 100.462 145.966C112.081 139.778 120 127.618 120 113.655C120 93.4431 103.409 77 83.0156 77ZM92.4536 137.368C83.9278 130.577 81.5438 133.915 77.6753 137.749C74.9745 140.426 68.1401 134.835 62.2388 128.986C56.3371 123.136 50.6965 116.363 53.397 113.686C57.2657 109.852 60.6329 107.488 53.779 99.0406C46.9275 90.5898 42.36 97.0777 38.6127 100.792C34.2864 105.078 38.3847 121.052 54.3134 136.841C70.2442 152.629 86.3609 156.688 90.6846 152.403C94.4315 148.689 100.98 144.162 92.4536 137.368ZM66.4875 119.392C66.4875 111.881 75.3598 110.543 75.3598 107.612C75.3598 106.189 74.2111 105.592 73.1487 105.592C71.1961 105.592 70.1062 107.754 70.1062 107.754L66.3737 105.279C66.3737 105.279 68.2688 100.897 73.6086 100.897C76.9674 100.897 80.6134 102.804 80.6134 107.128C80.6134 113.474 72.3449 114.698 72.2011 117.316H80.9297V121.583H66.7177C66.5738 120.787 66.4875 120.076 66.4875 119.392ZM83.0285 113.645L90.9534 101.238H97.0972V112.535H99.5371V116.66H97.0972V121.584H92.1296V116.66H83.0287V113.645H83.0285ZM92.1295 112.535V107.982C92.1295 106.872 92.302 105.705 92.302 105.705H92.2445C92.2445 105.705 91.8145 106.958 91.2396 107.811L88.1397 112.478V112.535L92.1295 112.535Z" fill="url(#paint0_linear)"/>
<defs>
<linearGradient id="paint0_linear" x1="120" y1="77" x2="27.883" y2="90.1541" gradientUnits="userSpaceOnUse">
<stop stop-color="#6AA5F4"/>
<stop offset="1" stop-color="#2B7FEE"/>
</linearGradient>
</defs>
</svg>
