<svg width="33" height="32" viewBox="0 0 33 32" fill="none" xmlns="http://www.w3.org/2000/svg">
<rect width="33.0002" height="32" fill="black" fill-opacity="0"/>
<rect width="33.0002" height="32" fill="black" fill-opacity="0"/>
<path d="M19.4874 0C16.0316 0 12.8754 1.27913 10.4834 3.37911C11.0139 4.20633 11.3154 5.16874 11.3437 6.16219L11.3438 6.16508L11.3439 6.16797C11.356 6.61561 11.3832 7.06337 11.4223 7.51043C13.2366 5.06595 16.1751 3.47276 19.4874 3.47276C24.9855 3.47276 29.4584 7.85863 29.4584 13.2496C29.4584 18.5838 25.0787 22.931 19.6604 23.0222C20.1551 23.4276 20.666 23.814 21.1923 24.1768L21.1946 24.1785L21.1971 24.1802C21.9137 24.6758 22.4974 25.3257 22.9069 26.069C28.7075 24.5802 33 19.3975 33 13.2496C33.0002 5.94375 26.9385 0 19.4874 0Z" fill="#2F80ED"/>
<path d="M19.1556 27.018C17.6119 25.8097 16.6488 25.005 15.2705 23.7531C14.8649 23.3847 14.3693 23.1553 13.8604 23.1553C13.4709 23.1553 13.0863 23.277 12.7697 23.5318C12.4429 23.8015 12.1161 24.0712 11.7892 24.3408C9.13301 21.2456 7.16063 17.6389 6.00118 13.7569C6.41108 13.6392 6.82109 13.5215 7.23099 13.4039C8.13437 13.1327 8.55937 12.1871 8.42679 11.2391C8.13838 9.17582 7.98172 8.15078 7.80321 6.2594C7.71172 5.28992 7.05367 4.44777 6.1105 4.39742C5.9634 4.38341 5.81642 4.37646 5.67062 4.37646C2.16313 4.37646 -0.89078 8.36273 0.238912 13.2394C1.64462 19.2788 4.68779 24.8434 9.04022 29.3335C10.8231 31.1689 13.0073 32.0001 14.9799 32.0001C17.0609 32.0001 18.9066 31.0759 19.8006 29.4308C20.2798 28.6327 19.9317 27.6255 19.1556 27.018Z" fill="#2F80ED"/>
<path d="M15.4234 13.4948C14.4893 14.3446 13.8782 15.0128 13.5554 15.5371C13.3275 15.907 13.1613 16.298 13.0611 16.6994C13.014 16.8883 13.0573 17.0844 13.18 17.2375C13.3025 17.3904 13.4864 17.4782 13.6848 17.4782H18.1424C18.6885 17.4782 19.1329 17.0425 19.1329 16.507C19.1329 15.9715 18.6885 15.5358 18.1424 15.5358H16.1294C16.1458 15.5168 16.1627 15.4978 16.1799 15.4787C16.3114 15.3335 16.6335 15.0302 17.137 14.5775C17.6651 14.1023 18.0216 13.7465 18.2269 13.4896C18.5364 13.1034 18.7666 12.7264 18.911 12.3692C19.0582 12.0051 19.1329 11.617 19.1329 11.2154C19.1329 10.4949 18.8668 9.88337 18.342 9.39741C17.8207 8.91539 17.103 8.67114 16.2086 8.67114C15.3959 8.67114 14.7056 8.87974 14.1571 9.29115C13.8262 9.53956 13.5714 9.88372 13.3998 10.3143C13.2839 10.6052 13.3138 10.938 13.4801 11.2044C13.6463 11.4709 13.9348 11.6486 14.2518 11.6796C14.2871 11.6831 14.3223 11.6848 14.357 11.6848C14.8031 11.6848 15.201 11.4066 15.3471 10.9927C15.393 10.8629 15.4535 10.7598 15.5274 10.6859C15.683 10.5305 15.8926 10.4548 16.1682 10.4548C16.4484 10.4548 16.6577 10.5263 16.8079 10.6734C16.9577 10.8203 17.0305 11.0346 17.0305 11.3286C17.0305 11.6017 16.931 11.8865 16.7348 12.1753C16.6296 12.3265 16.3152 12.6801 15.4234 13.4948Z" fill="#2F80ED"/>
<path d="M24.3472 8.67114H23.6026C23.3905 8.67114 23.1924 8.77371 23.0727 8.94549L19.6292 13.8882C19.5287 14.0324 19.4756 14.2011 19.4756 14.3757V15.1767C19.4756 15.5236 19.7635 15.8059 20.1173 15.8059H22.9442V16.4758C22.9442 17.0286 23.4029 17.4783 23.9666 17.4783C24.5303 17.4783 24.989 17.0286 24.989 16.4758V15.8059H25.0911C25.6149 15.8059 26.0411 15.388 26.0411 14.8744C26.0411 14.3608 25.6149 13.9429 25.0911 13.9429H24.989V9.30041C24.989 8.95348 24.701 8.67114 24.3472 8.67114ZM22.9444 13.9429H21.6755L22.9444 12.0933V13.9429Z" fill="#2F80ED"/>
</svg>
