<svg width="182" height="230" viewBox="0 0 182 230" fill="none" xmlns="http://www.w3.org/2000/svg">
<rect width="181" height="228" fill="black" fill-opacity="0" transform="translate(0 1)"/>
<path d="M75.7761 37.6685C79.9669 35.2358 85.14 35.2358 89.3308 37.6685L145.824 70.4614C149.986 72.877 152.547 77.3251 152.547 82.1369V147.863C152.547 152.675 149.986 157.123 145.824 159.539L89.3308 192.332C85.14 194.764 79.9669 194.764 75.7761 192.332L19.2827 159.539C15.1212 157.123 12.5601 152.675 12.5601 147.863V82.1369C12.5601 77.3251 15.1212 72.877 19.2827 70.4614L75.7761 37.6685Z" stroke="#E1EEFF" stroke-width="3"/>
<path d="M83 1L173.542 53.662C178.159 56.3477 181 61.2864 181 66.6282V163.372C181 168.714 178.159 173.652 173.542 176.338L83 229" stroke="#E1EEFF" stroke-width="2"/>
<rect width="110" height="62" fill="black" fill-opacity="0" transform="translate(28 84)"/>
<rect width="110" height="62" fill="black" fill-opacity="0" transform="translate(28 84)"/>
<rect width="110" height="62" fill="black" fill-opacity="0" transform="translate(28 84)"/>
<path d="M104.477 106.93V115.405C104.477 117.001 105.106 118.484 106.184 119.608V122.486C106.184 123.722 107.171 124.711 108.406 124.711C109.641 124.711 110.629 123.722 110.629 122.486V118.574C110.629 117.832 110.248 117.135 109.641 116.731C109.192 116.439 108.923 115.944 108.923 115.405V106.93C108.923 103.962 111.348 101.534 114.312 101.534H116.13C119.094 101.534 121.519 103.962 121.519 106.93V115.405C121.519 115.944 121.25 116.439 120.801 116.731C120.172 117.135 119.813 117.832 119.813 118.574V126.734C119.813 127.724 120.397 128.645 121.272 129.072C122.328 129.589 127.806 132.354 132.881 136.513C133.307 136.873 133.554 137.39 133.554 137.975V141.549H117.972C116.737 141.549 115.749 142.538 115.749 143.774C115.749 145.011 116.737 146 117.972 146H135.777C137.012 146 138 145.011 138 143.774V137.975C138 136.064 137.169 134.288 135.688 133.074C131.219 129.41 126.437 126.734 124.259 125.588V119.586C125.336 118.462 125.965 116.978 125.965 115.382V106.907C125.965 101.467 121.542 97.0608 116.13 97.0608H114.312C108.9 97.0833 104.477 101.489 104.477 106.93Z" fill="#E1EEFF"/>
<path d="M30.2229 146H48.298C49.533 146 50.5209 145.011 50.5209 143.775C50.5209 142.538 49.533 141.549 48.298 141.549H32.4458V137.975C32.4458 137.413 32.6928 136.873 33.1194 136.514C38.1715 132.355 43.6726 129.567 44.7279 129.073C45.626 128.645 46.1874 127.724 46.1874 126.735V118.574C46.1874 117.833 45.8057 117.136 45.1994 116.731C44.7504 116.439 44.4809 115.944 44.4809 115.405V106.93C44.4809 103.962 46.9059 101.535 49.8698 101.535H51.6885C54.6524 101.535 57.0774 103.962 57.0774 106.93V115.405C57.0774 115.944 56.8079 116.439 56.3589 116.731C55.7302 117.136 55.3709 117.833 55.3709 118.574V122.666C55.3709 123.902 56.3589 124.891 57.5938 124.891C58.8287 124.891 59.8167 123.902 59.8167 122.666V119.609C60.8945 118.485 61.5232 117.001 61.5232 115.405V106.93C61.5232 101.49 57.0998 97.0835 51.6885 97.0835H49.8698C44.436 97.0835 40.0351 101.512 40.0351 106.93V115.405C40.0351 117.001 40.6638 118.485 41.7416 119.609V125.611C39.5411 126.757 34.781 129.41 30.3127 133.097C28.8532 134.31 28 136.086 28 137.997V143.775C28 145.011 28.988 146 30.2229 146Z" fill="#E1EEFF"/>
<path d="M96.3485 107.042V96.0943C96.3485 89.4177 90.9372 84 84.2685 84H81.9108C75.2421 84 69.8308 89.4177 69.8308 96.0943V107.042C69.8308 109.02 70.6391 110.864 72.0313 112.212V120.642C69.4042 121.991 62.9825 125.498 56.9874 130.444C55.236 131.883 54.248 133.996 54.248 136.266V143.774C54.248 145.011 55.236 146 56.4709 146H109.686C110.921 146 111.909 145.011 111.909 143.774V136.266C111.909 133.996 110.921 131.883 109.169 130.444C103.174 125.521 96.7526 121.991 94.1256 120.642V112.212C95.5401 110.886 96.3485 109.02 96.3485 107.042ZM106.363 133.883C107.081 134.468 107.485 135.344 107.485 136.266V141.549H58.7163V136.266C58.7163 135.344 59.1205 134.468 59.839 133.883C66.4403 128.443 73.603 124.824 74.9727 124.149C75.8933 123.7 76.4995 122.733 76.4995 121.722V111.156C76.4995 110.414 76.1178 109.717 75.5116 109.313C74.7481 108.796 74.2991 107.964 74.2991 107.065V96.1168C74.2991 91.8905 77.7345 88.4735 81.9333 88.4735H84.2909C88.5122 88.4735 91.9251 91.913 91.9251 96.1168V107.065C91.9251 107.964 91.4761 108.818 90.7126 109.313C90.0839 109.717 89.7247 110.414 89.7247 111.156V121.722C89.7247 122.756 90.3309 123.7 91.2515 124.149C92.5987 124.824 99.7614 128.466 106.363 133.883Z" fill="url(#paint0_linear)"/>
<defs>
<linearGradient id="paint0_linear" x1="111.909" y1="84" x2="47.5858" y2="91.9248" gradientUnits="userSpaceOnUse">
<stop stop-color="#6AA5F4"/>
<stop offset="1" stop-color="#2B7FEE"/>
</linearGradient>
</defs>
</svg>
