<svg width="18" height="17" fill="none" xmlns="http://www.w3.org/2000/svg"><path d="M0 0h18v17H0z"/><path d="M5.964 13.769H9.13v3.23H5.964z"/><path d="M5.964 13.769H9.13v3.23H5.964z"/><path d="M7.547 13.769c-.872 0-1.583.724-1.583 1.615S6.674 17 7.547 17s1.583-.725 1.583-1.616c0-.89-.71-1.615-1.583-1.615zm0 2.329a.708.708 0 0 1-.699-.714c0-.393.314-.713.7-.713.385 0 .699.32.699.713a.707.707 0 0 1-.7.714z" fill="#fff"/><path d="M11.517 13.769h3.166v3.23h-3.166z"/><path d="M11.517 13.769h3.166v3.23h-3.166z"/><path d="M13.1 13.769c-.873 0-1.583.724-1.583 1.615S12.227 17 13.1 17s1.583-.725 1.583-1.616c0-.89-.71-1.615-1.583-1.615zm0 2.329a.708.708 0 0 1-.699-.714c0-.393.314-.713.7-.713.385 0 .698.32.698.713a.707.707 0 0 1-.699.714z" fill="#fff"/><path d="M6.715 5.262h7.217v.902H6.715z"/><path d="M6.715 5.262h7.217v.902H6.715z"/><path d="M13.49 5.262H7.157a.447.447 0 0 0-.442.45c0 .25.198.452.442.452h6.333a.447.447 0 0 0 .442-.451.447.447 0 0 0-.442-.451z" fill="#fff"/><path d="M7.06 7.604h6.528v.902H7.06z"/><path d="M7.06 7.604h6.528v.902H7.06z"/><path d="M13.145 7.604H7.502a.447.447 0 0 0-.442.451c0 .25.197.451.442.451h5.643a.447.447 0 0 0 .442-.45.447.447 0 0 0-.442-.452z" fill="#fff"/><path d="M0 0h18v13.039H0z"/><path d="M0 0h18v13.039H0z"/><path d="M17.801 3.252a.874.874 0 0 0-.685-.332H3.35l-.278-1.378a.9.9 0 0 0-.514-.645L.618.037a.438.438 0 0 0-.581.235.455.455 0 0 0 .229.593l1.94.86 2.138 10.594c.085.417.449.72.866.72h10.588a.447.447 0 0 0 .442-.451.447.447 0 0 0-.442-.451H5.21l-.26-1.289h10.93a.892.892 0 0 0 .865-.72l1.237-6.124a.912.912 0 0 0-.18-.752zM15.88 9.946H4.768L3.532 3.822h13.584L15.88 9.946z" fill="#fff"/></svg>