<svg width="471" height="65" fill="none" xmlns="http://www.w3.org/2000/svg"><path d="M470 64V1H1v63z"/><path d="M470 64V1H1v63z"/><path d="M397.843 55v9h-9.019v-9h9.019zm9.019 0v9h-9.019v-9h9.019z" stroke="#E1EEFF" stroke-width="1.18" stroke-miterlimit="22.926"/><path d="M415.881 55v9h-9.019v-9h9.019zm9.019 0v9h-9.019v-9h9.019zm9.021 0v9h-9.019v-9h9.019zm9.02 0v9h-9.019v-9h9.019z" stroke="#E1EEFF" stroke-width="1.18" stroke-miterlimit="22.926"/><path d="M451.959 55v9h-9.019v-9h9.019zm9.02 0v9h-9.019v-9h9.019zM470 55v9h-9.019v-9H470zm-81.176 0v9h-9.019v-9h9.019zm-9.019 0v9h-9.019v-9h9.019zm-9.019 0v9h-9.019v-9h9.019zm-9.019 0v9h-9.019v-9h9.019zm-9.019 0v9h-9.019v-9h9.019zm-9.021 0v9h-9.019v-9h9.019z" stroke="#E1EEFF" stroke-width="1.18" stroke-miterlimit="22.926"/><path d="M334.708 55v9h-9.02v-9h9.02zm-9.02 0v9h-9.019v-9h9.019zm-9.019 0v9h-9.019v-9h9.019zm-9.019 0v9h-9.019v-9h9.019zm-9.019 0v9h-9.019v-9h9.019zm-9.019 0v9h-9.019v-9h9.019zm-9.019 0v9h-9.019v-9h9.019zm-9.019 0v9h-9.019v-9h9.019zm-9.019 0v9h-9.019v-9h9.019zm-9.019 0v9h-9.019v-9h9.019zm-9.019 0v9h-9.019v-9h9.019zm-9.019 0v9h-9.019v-9h9.019z" stroke="#E1EEFF" stroke-width="1.18" stroke-miterlimit="22.926"/><path d="M226.479 55v9h-9.02v-9h9.02zm-9.02 0v9h-9.019v-9h9.019zm-9.019 0v9h-9.019v-9h9.019zm-9.019 0v9h-9.019v-9h9.019zm-9.019 0v9h-9.019v-9h9.019z" stroke="#E1EEFF" stroke-width="1.18" stroke-miterlimit="22.926"/><path d="M181.383 55v9h-9.019v-9h9.019zm-9.021 0v9h-9.019v-9h9.019zm-9.019 0v9h-9.019v-9h9.019zm-9.019 0v9h-9.019v-9h9.019zm-9.019 0v9h-9.019v-9h9.019zm-9.019 0v9h-9.019v-9h9.019zm-9.019 0v9h-9.019v-9h9.019z" stroke="#E1EEFF" stroke-width="1.18" stroke-miterlimit="22.926"/><path d="M118.248 55v9h-9.019v-9h9.019zm-9.019 0v9h-9.02v-9h9.02zm-9.02 0v9H91.19v-9h9.019z" stroke="#E1EEFF" stroke-width="1.18" stroke-miterlimit="22.926"/><path d="M91.19 55v9h-9.019v-9h9.02z" stroke="#E1EEFF" stroke-width="1.18" stroke-miterlimit="22.926"/><path d="M82.171 55v9h-9.019v-9h9.02z" stroke="#E1EEFF" stroke-width="1.18" stroke-miterlimit="22.926"/><path d="M73.152 55v9h-9.019v-9h9.02z" stroke="#E1EEFF" stroke-width="1.18" stroke-miterlimit="22.926"/><path d="M64.133 55v9h-9.019v-9h9.02z" stroke="#E1EEFF" stroke-width="1.18" stroke-miterlimit="22.926"/><path d="M55.114 55v9h-9.019v-9h9.02z" stroke="#E1EEFF" stroke-width="1.18" stroke-miterlimit="22.926"/><path d="M46.095 55v9h-9.019v-9h9.02z" stroke="#E1EEFF" stroke-width="1.18" stroke-miterlimit="22.926"/><path d="M37.076 55v9h-9.019v-9h9.02z" stroke="#E1EEFF" stroke-width="1.18" stroke-miterlimit="22.926"/><path d="M28.057 55v9h-9.019v-9h9.02z" stroke="#E1EEFF" stroke-width="1.18" stroke-miterlimit="22.926"/><path d="M19.038 55v9H10.02v-9h9.02zm-9.019 0v9H1v-9h9.019zm387.824-9v9h-9.019v-9h9.019zm9.019 0v9h-9.019v-9h9.019z" stroke="#E1EEFF" stroke-width="1.18" stroke-miterlimit="22.926"/><path d="M415.881 46v9h-9.019v-9h9.019zm9.019 0v9h-9.019v-9h9.019zm9.021 0v9h-9.019v-9h9.019zm9.02 0v9h-9.019v-9h9.019z" stroke="#E1EEFF" stroke-width="1.18" stroke-miterlimit="22.926"/><path d="M451.959 46v9h-9.019v-9h9.019zm9.02 0v9h-9.019v-9h9.019zm-72.155 0v9h-9.019v-9h9.019zm-9.019 0v9h-9.019v-9h9.019zm-9.019 0v9h-9.019v-9h9.019zm-9.019 0v9h-9.019v-9h9.019zm-9.019 0v9h-9.019v-9h9.019zm-9.021 0v9h-9.019v-9h9.019z" stroke="#E1EEFF" stroke-width="1.18" stroke-miterlimit="22.926"/><path d="M334.708 46v9h-9.02v-9h9.02zm-9.02 0v9h-9.019v-9h9.019zm-9.019 0v9h-9.019v-9h9.019zm-9.019 0v9h-9.019v-9h9.019zm-9.019 0v9h-9.019v-9h9.019zm-9.019 0v9h-9.019v-9h9.019zm-9.019 0v9h-9.019v-9h9.019zm-9.019 0v9h-9.019v-9h9.019zm-9.019 0v9h-9.019v-9h9.019zm-9.019 0v9h-9.019v-9h9.019zm-9.019 0v9h-9.019v-9h9.019zm-9.019 0v9h-9.019v-9h9.019z" stroke="#E1EEFF" stroke-width="1.18" stroke-miterlimit="22.926"/><path d="M226.479 46v9h-9.02v-9h9.02zm-9.02 0v9h-9.019v-9h9.019zm-9.019 0v9h-9.019v-9h9.019zm-9.019 0v9h-9.019v-9h9.019zm-9.019 0v9h-9.019v-9h9.019z" stroke="#E1EEFF" stroke-width="1.18" stroke-miterlimit="22.926"/><path d="M181.383 46v9h-9.019v-9h9.019zm-9.021 0v9h-9.019v-9h9.019zm-9.019 0v9h-9.019v-9h9.019zm-9.019 0v9h-9.019v-9h9.019zm-9.019 0v9h-9.019v-9h9.019zm-9.019 0v9h-9.019v-9h9.019zm-9.019 0v9h-9.019v-9h9.019z" stroke="#E1EEFF" stroke-width="1.18" stroke-miterlimit="22.926"/><path d="M118.248 46v9h-9.019v-9h9.019zm-9.019 0v9h-9.02v-9h9.02zm-9.02 0v9H91.19v-9h9.019z" stroke="#E1EEFF" stroke-width="1.18" stroke-miterlimit="22.926"/><path d="M91.19 46v9h-9.019v-9h9.02z" stroke="#E1EEFF" stroke-width="1.18" stroke-miterlimit="22.926"/><path d="M82.171 46v9h-9.019v-9h9.02z" stroke="#E1EEFF" stroke-width="1.18" stroke-miterlimit="22.926"/><path d="M73.152 46v9h-9.019v-9h9.02z" stroke="#E1EEFF" stroke-width="1.18" stroke-miterlimit="22.926"/><path d="M64.133 46v9h-9.019v-9h9.02z" stroke="#E1EEFF" stroke-width="1.18" stroke-miterlimit="22.926"/><path d="M55.114 46v9h-9.019v-9h9.02z" stroke="#E1EEFF" stroke-width="1.18" stroke-miterlimit="22.926"/><path d="M46.095 46v9h-9.019v-9h9.02z" stroke="#E1EEFF" stroke-width="1.18" stroke-miterlimit="22.926"/><path d="M37.076 46v9h-9.019v-9h9.02z" stroke="#E1EEFF" stroke-width="1.18" stroke-miterlimit="22.926"/><path d="M28.057 46v9h-9.019v-9h9.02z" stroke="#E1EEFF" stroke-width="1.18" stroke-miterlimit="22.926"/><path d="M19.038 46v9H10.02v-9h9.02zm-9.019 0v9H1v-9h9.019zm387.824-9v9h-9.019v-9h9.019zm9.019 0v9h-9.019v-9h9.019z" stroke="#E1EEFF" stroke-width="1.18" stroke-miterlimit="22.926"/><path d="M415.881 37v9h-9.019v-9h9.019zm9.019 0v9h-9.019v-9h9.019zm9.021 0v9h-9.019v-9h9.019zm9.02 0v9h-9.019v-9h9.019z" stroke="#E1EEFF" stroke-width="1.18" stroke-miterlimit="22.926"/><path d="M451.959 37v9h-9.019v-9h9.019zm-63.135 0v9h-9.019v-9h9.019zm-9.019 0v9h-9.019v-9h9.019zm-9.019 0v9h-9.019v-9h9.019zm-9.019 0v9h-9.019v-9h9.019zm-9.019 0v9h-9.019v-9h9.019zm-9.021 0v9h-9.019v-9h9.019z" stroke="#E1EEFF" stroke-width="1.18" stroke-miterlimit="22.926"/><path d="M334.708 37v9h-9.02v-9h9.02zm-9.02 0v9h-9.019v-9h9.019zm-9.019 0v9h-9.019v-9h9.019zm-9.019 0v9h-9.019v-9h9.019zm-9.019 0v9h-9.019v-9h9.019zm-9.019 0v9h-9.019v-9h9.019zm-9.019 0v9h-9.019v-9h9.019zm-9.019 0v9h-9.019v-9h9.019zm-9.019 0v9h-9.019v-9h9.019zm-9.019 0v9h-9.019v-9h9.019zm-9.019 0v9h-9.019v-9h9.019zm-9.019 0v9h-9.019v-9h9.019z" stroke="#E1EEFF" stroke-width="1.18" stroke-miterlimit="22.926"/><path d="M226.479 37v9h-9.02v-9h9.02zm-9.02 0v9h-9.019v-9h9.019zm-9.019 0v9h-9.019v-9h9.019zm-9.019 0v9h-9.019v-9h9.019zm-9.019 0v9h-9.019v-9h9.019z" stroke="#E1EEFF" stroke-width="1.18" stroke-miterlimit="22.926"/><path d="M181.383 37v9h-9.019v-9h9.019zm-9.021 0v9h-9.019v-9h9.019zm-9.019 0v9h-9.019v-9h9.019zm-9.019 0v9h-9.019v-9h9.019zm-9.019 0v9h-9.019v-9h9.019zm-9.019 0v9h-9.019v-9h9.019zm-9.019 0v9h-9.019v-9h9.019z" stroke="#E1EEFF" stroke-width="1.18" stroke-miterlimit="22.926"/><path d="M118.248 37v9h-9.019v-9h9.019zm-9.019 0v9h-9.02v-9h9.02zm-9.02 0v9H91.19v-9h9.019z" stroke="#E1EEFF" stroke-width="1.18" stroke-miterlimit="22.926"/><path d="M91.19 37v9h-9.019v-9h9.02z" stroke="#E1EEFF" stroke-width="1.18" stroke-miterlimit="22.926"/><path d="M82.171 37v9h-9.019v-9h9.02z" stroke="#E1EEFF" stroke-width="1.18" stroke-miterlimit="22.926"/><path d="M73.152 37v9h-9.019v-9h9.02z" stroke="#E1EEFF" stroke-width="1.18" stroke-miterlimit="22.926"/><path d="M64.133 37v9h-9.019v-9h9.02z" stroke="#E1EEFF" stroke-width="1.18" stroke-miterlimit="22.926"/><path d="M55.114 37v9h-9.019v-9h9.02z" stroke="#E1EEFF" stroke-width="1.18" stroke-miterlimit="22.926"/><path d="M46.095 37v9h-9.019v-9h9.02z" stroke="#E1EEFF" stroke-width="1.18" stroke-miterlimit="22.926"/><path d="M37.076 37v9h-9.019v-9h9.02z" stroke="#E1EEFF" stroke-width="1.18" stroke-miterlimit="22.926"/><path d="M28.057 37v9h-9.019v-9h9.02z" stroke="#E1EEFF" stroke-width="1.18" stroke-miterlimit="22.926"/><path d="M19.038 37v9H10.02v-9h9.02zm-9.019 0v9H1v-9h9.019zm387.824-9v8.999h-9.019v-9h9.019zm9.019 0v8.999h-9.019v-9h9.019z" stroke="#E1EEFF" stroke-width="1.18" stroke-miterlimit="22.926"/><path d="M415.881 28v8.999h-9.019v-9h9.019zm9.019 0v8.999h-9.019v-9h9.019zm9.021 0v8.999h-9.019v-9h9.019zm9.02 0v8.999h-9.019v-9h9.019zm-54.117 0v8.999h-9.019v-9h9.019zm-9.019 0v8.999h-9.019v-9h9.019zm-9.019 0v8.999h-9.019v-9h9.019zm-9.019 0v8.999h-9.019v-9h9.019zm-9.019 0v8.999h-9.019v-9h9.019zm-9.021 0v8.999h-9.019v-9h9.019z" stroke="#E1EEFF" stroke-width="1.18" stroke-miterlimit="22.926"/><path d="M334.708 28v8.999h-9.02v-9h9.02zm-9.02 0v8.999h-9.019v-9h9.019zm-9.019 0v8.999h-9.019v-9h9.019zm-9.019 0v8.999h-9.019v-9h9.019zm-9.019 0v8.999h-9.019v-9h9.019zm-9.019 0v8.999h-9.019v-9h9.019zm-9.019 0v8.999h-9.019v-9h9.019zm-9.019 0v8.999h-9.019v-9h9.019zm-9.019 0v8.999h-9.019v-9h9.019zm-9.019 0v8.999h-9.019v-9h9.019zm-9.019 0v8.999h-9.019v-9h9.019zm-9.019 0v8.999h-9.019v-9h9.019z" stroke="#E1EEFF" stroke-width="1.18" stroke-miterlimit="22.926"/><path d="M226.479 28v8.999h-9.02v-9h9.02zm-9.02 0v8.999h-9.019v-9h9.019zm-9.019 0v8.999h-9.019v-9h9.019zm-9.019 0v8.999h-9.019v-9h9.019zm-9.019 0v8.999h-9.019v-9h9.019z" stroke="#E1EEFF" stroke-width="1.18" stroke-miterlimit="22.926"/><path d="M181.383 28v8.999h-9.019v-9h9.019zm-9.021 0v8.999h-9.019v-9h9.019zm-9.019 0v8.999h-9.019v-9h9.019zm-9.019 0v8.999h-9.019v-9h9.019zm-9.019 0v8.999h-9.019v-9h9.019zm-9.019 0v8.999h-9.019v-9h9.019zm-9.019 0v8.999h-9.019v-9h9.019z" stroke="#E1EEFF" stroke-width="1.18" stroke-miterlimit="22.926"/><path d="M118.248 28v8.999h-9.019v-9h9.019zm-9.019 0v8.999h-9.02v-9h9.02zm-9.02 0v8.999H91.19v-9h9.019z" stroke="#E1EEFF" stroke-width="1.18" stroke-miterlimit="22.926"/><path d="M91.19 28v8.999h-9.019v-9h9.02z" stroke="#E1EEFF" stroke-width="1.18" stroke-miterlimit="22.926"/><path d="M82.171 28v8.999h-9.019v-9h9.02z" stroke="#E1EEFF" stroke-width="1.18" stroke-miterlimit="22.926"/><path d="M73.152 28v8.999h-9.019v-9h9.02z" stroke="#E1EEFF" stroke-width="1.18" stroke-miterlimit="22.926"/><path d="M64.133 28v8.999h-9.019v-9h9.02z" stroke="#E1EEFF" stroke-width="1.18" stroke-miterlimit="22.926"/><path d="M55.114 28v8.999h-9.019v-9h9.02z" stroke="#E1EEFF" stroke-width="1.18" stroke-miterlimit="22.926"/><path d="M46.095 28v8.999h-9.019v-9h9.02z" stroke="#E1EEFF" stroke-width="1.18" stroke-miterlimit="22.926"/><path d="M37.076 28v8.999h-9.019v-9h9.02z" stroke="#E1EEFF" stroke-width="1.18" stroke-miterlimit="22.926"/><path d="M28.057 28v8.999h-9.019v-9h9.02z" stroke="#E1EEFF" stroke-width="1.18" stroke-miterlimit="22.926"/><path d="M19.038 28v8.999H10.02v-9h9.02zm-9.019 0v8.999H1v-9h9.019zm387.824-9v8.999h-9.019v-9h9.019zm9.019 0v8.999h-9.019v-9h9.019z" stroke="#E1EEFF" stroke-width="1.18" stroke-miterlimit="22.926"/><path d="M415.881 19v8.999h-9.019v-9h9.019zm9.019 0v8.999h-9.019v-9h9.019zm9.021 0v8.999h-9.019v-9h9.019zm-45.097 0v8.999h-9.019v-9h9.019zm-9.019 0v8.999h-9.019v-9h9.019zm-9.019 0v8.999h-9.019v-9h9.019zm-9.019 0v8.999h-9.019v-9h9.019zm-9.019 0v8.999h-9.019v-9h9.019zm-9.021 0v8.999h-9.019v-9h9.019z" stroke="#E1EEFF" stroke-width="1.18" stroke-miterlimit="22.926"/><path d="M334.708 19v8.999h-9.02v-9h9.02zm-9.02 0v8.999h-9.019v-9h9.019zm-9.019 0v8.999h-9.019v-9h9.019zm-9.019 0v8.999h-9.019v-9h9.019zm-9.019 0v8.999h-9.019v-9h9.019zm-9.019 0v8.999h-9.019v-9h9.019zm-9.019 0v8.999h-9.019v-9h9.019zm-9.019 0v8.999h-9.019v-9h9.019zm-9.019 0v8.999h-9.019v-9h9.019zm-9.019 0v8.999h-9.019v-9h9.019zm-9.019 0v8.999h-9.019v-9h9.019zm-9.019 0v8.999h-9.019v-9h9.019z" stroke="#E1EEFF" stroke-width="1.18" stroke-miterlimit="22.926"/><path d="M226.479 19v8.999h-9.02v-9h9.02zm-9.02 0v8.999h-9.019v-9h9.019zm-9.019 0v8.999h-9.019v-9h9.019zm-9.019 0v8.999h-9.019v-9h9.019zm-9.019 0v8.999h-9.019v-9h9.019z" stroke="#E1EEFF" stroke-width="1.18" stroke-miterlimit="22.926"/><path d="M181.383 19v8.999h-9.019v-9h9.019zm-9.021 0v8.999h-9.019v-9h9.019zm-9.019 0v8.999h-9.019v-9h9.019zm-9.019 0v8.999h-9.019v-9h9.019zm-9.019 0v8.999h-9.019v-9h9.019zm-9.019 0v8.999h-9.019v-9h9.019zm-9.019 0v8.999h-9.019v-9h9.019z" stroke="#E1EEFF" stroke-width="1.18" stroke-miterlimit="22.926"/><path d="M118.248 19v8.999h-9.019v-9h9.019zm-9.019 0v8.999h-9.02v-9h9.02zm-9.02 0v8.999H91.19v-9h9.019z" stroke="#E1EEFF" stroke-width="1.18" stroke-miterlimit="22.926"/><path d="M91.19 19v8.999h-9.019v-9h9.02z" stroke="#E1EEFF" stroke-width="1.18" stroke-miterlimit="22.926"/><path d="M82.171 19v8.999h-9.019v-9h9.02z" stroke="#E1EEFF" stroke-width="1.18" stroke-miterlimit="22.926"/><path d="M73.152 19v8.999h-9.019v-9h9.02z" stroke="#E1EEFF" stroke-width="1.18" stroke-miterlimit="22.926"/><path d="M64.133 19v8.999h-9.019v-9h9.02z" stroke="#E1EEFF" stroke-width="1.18" stroke-miterlimit="22.926"/><path d="M55.114 19v8.999h-9.019v-9h9.02z" stroke="#E1EEFF" stroke-width="1.18" stroke-miterlimit="22.926"/><path d="M46.095 19v8.999h-9.019v-9h9.02z" stroke="#E1EEFF" stroke-width="1.18" stroke-miterlimit="22.926"/><path d="M37.076 19v8.999h-9.019v-9h9.02z" stroke="#E1EEFF" stroke-width="1.18" stroke-miterlimit="22.926"/><path d="M28.057 19v8.999h-9.019v-9h9.02z" stroke="#E1EEFF" stroke-width="1.18" stroke-miterlimit="22.926"/><path d="M19.038 19v8.999H10.02v-9h9.02zm-9.019 0v8.999H1v-9h9.019zm387.824-9v9h-9.019v-9h9.019zm9.019 0v9h-9.019v-9h9.019z" stroke="#E1EEFF" stroke-width="1.18" stroke-miterlimit="22.926"/><path d="M415.881 10v9h-9.019v-9h9.019zm9.019 0v9h-9.019v-9h9.019zm-36.076 0v9h-9.019v-9h9.019zm-9.019 0v9h-9.019v-9h9.019zm-9.019 0v9h-9.019v-9h9.019zm-9.019 0v9h-9.019v-9h9.019zm-9.019 0v9h-9.019v-9h9.019zm-9.021 0v9h-9.019v-9h9.019z" stroke="#E1EEFF" stroke-width="1.18" stroke-miterlimit="22.926"/><path d="M334.708 10v9h-9.02v-9h9.02zm-9.02 0v9h-9.019v-9h9.019zm-9.019 0v9h-9.019v-9h9.019zm-9.019 0v9h-9.019v-9h9.019zm-9.019 0v9h-9.019v-9h9.019zm-9.019 0v9h-9.019v-9h9.019zm-9.019 0v9h-9.019v-9h9.019zm-9.019 0v9h-9.019v-9h9.019zm-9.019 0v9h-9.019v-9h9.019zm-9.019 0v9h-9.019v-9h9.019zm-9.019 0v9h-9.019v-9h9.019zm-9.019 0v9h-9.019v-9h9.019z" stroke="#E1EEFF" stroke-width="1.18" stroke-miterlimit="22.926"/><path d="M226.479 10v9h-9.02v-9h9.02zm-9.02 0v9h-9.019v-9h9.019zm-9.019 0v9h-9.019v-9h9.019zm-9.019 0v9h-9.019v-9h9.019zm-9.019 0v9h-9.019v-9h9.019z" stroke="#E1EEFF" stroke-width="1.18" stroke-miterlimit="22.926"/><path d="M181.383 10v9h-9.019v-9h9.019zm-9.021 0v9h-9.019v-9h9.019zm-9.019 0v9h-9.019v-9h9.019zm-9.019 0v9h-9.019v-9h9.019zm-9.019 0v9h-9.019v-9h9.019zm-9.019 0v9h-9.019v-9h9.019zm-9.019 0v9h-9.019v-9h9.019z" stroke="#E1EEFF" stroke-width="1.18" stroke-miterlimit="22.926"/><path d="M118.248 10v9h-9.019v-9h9.019zm-9.019 0v9h-9.02v-9h9.02zm-9.02 0v9H91.19v-9h9.019z" stroke="#E1EEFF" stroke-width="1.18" stroke-miterlimit="22.926"/><path d="M91.19 10v9h-9.019v-9h9.02z" stroke="#E1EEFF" stroke-width="1.18" stroke-miterlimit="22.926"/><path d="M82.171 10v9h-9.019v-9h9.02z" stroke="#E1EEFF" stroke-width="1.18" stroke-miterlimit="22.926"/><path d="M73.152 10v9h-9.019v-9h9.02z" stroke="#E1EEFF" stroke-width="1.18" stroke-miterlimit="22.926"/><path d="M64.133 10v9h-9.019v-9h9.02z" stroke="#E1EEFF" stroke-width="1.18" stroke-miterlimit="22.926"/><path d="M55.114 10v9h-9.019v-9h9.02z" stroke="#E1EEFF" stroke-width="1.18" stroke-miterlimit="22.926"/><path d="M46.095 10v9h-9.019v-9h9.02z" stroke="#E1EEFF" stroke-width="1.18" stroke-miterlimit="22.926"/><path d="M37.076 10v9h-9.019v-9h9.02z" stroke="#E1EEFF" stroke-width="1.18" stroke-miterlimit="22.926"/><path d="M28.057 10v9h-9.019v-9h9.02z" stroke="#E1EEFF" stroke-width="1.18" stroke-miterlimit="22.926"/><path d="M19.038 10v9H10.02v-9h9.02zm-9.019 0v9H1v-9h9.019zm387.824-9v9h-9.019V1h9.019zm9.019 0v9h-9.019V1h9.019z" stroke="#E1EEFF" stroke-width="1.18" stroke-miterlimit="22.926"/><path d="M415.881 1v9h-9.019V1h9.019zm-27.057 0v9h-9.019V1h9.019zm-9.019 0v9h-9.019V1h9.019zm-9.019 0v9h-9.019V1h9.019zm-9.019 0v9h-9.019V1h9.019zm-9.019 0v9h-9.019V1h9.019zm-9.021 0v9h-9.019V1h9.019z" stroke="#E1EEFF" stroke-width="1.18" stroke-miterlimit="22.926"/><path d="M334.708 1v9h-9.02V1h9.02zm-9.02 0v9h-9.019V1h9.019zm-9.019 0v9h-9.019V1h9.019zm-9.019 0v9h-9.019V1h9.019zm-9.019 0v9h-9.019V1h9.019zm-9.019 0v9h-9.019V1h9.019zm-9.019 0v9h-9.019V1h9.019zm-9.019 0v9h-9.019V1h9.019zm-9.019 0v9h-9.019V1h9.019zm-9.019 0v9h-9.019V1h9.019zm-9.019 0v9h-9.019V1h9.019zm-9.019 0v9h-9.019V1h9.019z" stroke="#E1EEFF" stroke-width="1.18" stroke-miterlimit="22.926"/><path d="M226.479 1v9h-9.02V1h9.02zm-9.02 0v9h-9.019V1h9.019zm-9.019 0v9h-9.019V1h9.019zm-9.019 0v9h-9.019V1h9.019zm-9.019 0v9h-9.019V1h9.019z" stroke="#E1EEFF" stroke-width="1.18" stroke-miterlimit="22.926"/><path d="M181.383 1v9h-9.019V1h9.019zm-9.021 0v9h-9.019V1h9.019zm-9.019 0v9h-9.019V1h9.019zm-9.019 0v9h-9.019V1h9.019zm-9.019 0v9h-9.019V1h9.019zm-9.019 0v9h-9.019V1h9.019zm-9.019 0v9h-9.019V1h9.019z" stroke="#E1EEFF" stroke-width="1.18" stroke-miterlimit="22.926"/><path d="M118.248 1v9h-9.019V1h9.019zm-9.019 0v9h-9.02V1h9.02zm-9.02 0v9H91.19V1h9.019z" stroke="#E1EEFF" stroke-width="1.18" stroke-miterlimit="22.926"/><path d="M91.19 1v9h-9.019V1h9.02z" stroke="#E1EEFF" stroke-width="1.18" stroke-miterlimit="22.926"/><path d="M82.171 1v9h-9.019V1h9.02z" stroke="#E1EEFF" stroke-width="1.18" stroke-miterlimit="22.926"/><path d="M73.152 1v9h-9.019V1h9.02z" stroke="#E1EEFF" stroke-width="1.18" stroke-miterlimit="22.926"/><path d="M64.133 1v9h-9.019V1h9.02z" stroke="#E1EEFF" stroke-width="1.18" stroke-miterlimit="22.926"/><path d="M55.114 1v9h-9.019V1h9.02z" stroke="#E1EEFF" stroke-width="1.18" stroke-miterlimit="22.926"/><path d="M46.095 1v9h-9.019V1h9.02z" stroke="#E1EEFF" stroke-width="1.18" stroke-miterlimit="22.926"/><path d="M37.076 1v9h-9.019V1h9.02z" stroke="#E1EEFF" stroke-width="1.18" stroke-miterlimit="22.926"/><path d="M28.057 1v9h-9.019V1h9.02z" stroke="#E1EEFF" stroke-width="1.18" stroke-miterlimit="22.926"/><path d="M19.038 1v9H10.02V1h9.02zm-9.019 0v9H1V1h9.019z" stroke="#E1EEFF" stroke-width="1.18" stroke-miterlimit="22.926"/></svg>