<svg width="20" height="28" fill="none" xmlns="http://www.w3.org/2000/svg"><path d="M19.527 6.969c-.103-.374-.313-.772-.468-1.12C17.201 1.543 13.142 0 9.865 0 5.477 0 .645 2.837 0 8.686v1.195c0 .05.018.498.043.722.362 2.787 2.642 5.75 4.345 8.537 1.833 2.986 3.734 5.924 5.618 8.86 1.161-1.916 2.319-3.858 3.454-5.724.309-.548.668-1.096.978-1.619.206-.348.6-.696.78-1.02C17.052 16.402 20 13.142 20 9.931V8.61c0-.347-.447-1.567-.473-1.642zm-9.582 5.998c-1.29 0-2.701-.622-3.398-2.34-.104-.273-.095-.82-.095-.87v-.772c0-2.19 1.927-3.186 3.604-3.186 2.065 0 3.662 1.593 3.662 3.585 0 1.99-1.708 3.583-3.773 3.583z" fill="#fff"/></svg>