<svg width="20" height="28" viewBox="0 0 20 28" fill="none" xmlns="http://www.w3.org/2000/svg">
<path d="M19.5275 6.96893C19.4242 6.59539 19.2143 6.19738 19.0591 5.8489C17.2014 1.54311 13.1424 0 9.8649 0C5.47743 0 0.64515 2.83741 -8.23956e-08 8.68599V9.88088C-8.23956e-08 9.93075 0.0178195 10.3787 0.0431314 10.6028C0.404788 13.3901 2.68522 16.3523 4.38835 19.1396C6.22066 22.1259 8.12196 25.0636 10.0056 28C11.1671 26.0837 12.3245 24.1423 13.4595 22.2756C13.7689 21.7278 14.128 21.1803 14.4377 20.6575C14.6441 20.3093 15.0384 19.9612 15.2185 19.6372C17.0508 16.4019 20 13.1415 20 9.93068V8.61164C20.0001 8.26356 19.5527 7.04399 19.5275 6.96893ZM9.94522 12.9673C8.65553 12.9673 7.24387 12.3453 6.54708 10.6277C6.44327 10.3543 6.45164 9.80634 6.45164 9.75615V8.9846C6.45164 6.79492 8.3794 5.79916 10.0565 5.79916C12.1211 5.79916 13.7179 7.39227 13.7179 9.38352C13.7179 11.3747 12.0099 12.9673 9.94522 12.9673Z" fill="white"/>
</svg>
