<svg width="182" height="230" fill="none" xmlns="http://www.w3.org/2000/svg"><path d="M0 1h181v228H0z"/><path d="M75.776 37.669a13.5 13.5 0 0 1 13.555 0l56.493 32.792a13.5 13.5 0 0 1 6.723 11.676v65.726a13.5 13.5 0 0 1-6.723 11.676l-56.493 32.793a13.503 13.503 0 0 1-13.555 0l-56.493-32.793a13.5 13.5 0 0 1-6.723-11.676V82.137a13.5 13.5 0 0 1 6.723-11.676L75.776 37.67z" stroke="#E1EEFF" stroke-width="3"/><path d="M83 1l90.542 52.662A15 15 0 0 1 181 66.628v96.744a15 15 0 0 1-7.458 12.966L83 229" stroke="#E1EEFF" stroke-width="2"/><path d="M49 81h68v68H49z"/><path d="M49 81h68v68H49z"/><path d="M49 81h68v68H49z"/><path d="M109.031 86.313h-3.187V81h-5.313v5.313H65.469V81h-5.313v5.313H56.97c-4.394 0-7.969 3.574-7.969 7.968v46.75c0 4.394 3.575 7.969 7.969 7.969h52.062c4.394 0 7.969-3.575 7.969-7.969v-46.75c0-4.394-3.575-7.969-7.969-7.969zm2.657 54.718a2.66 2.66 0 0 1-2.657 2.657H56.969a2.66 2.66 0 0 1-2.657-2.657v-35.062h57.376v35.062zm0-40.375H54.312v-6.375a2.66 2.66 0 0 1 2.657-2.656h3.187v5.313h5.313v-5.313h35.062v5.313h5.313v-5.313h3.187a2.66 2.66 0 0 1 2.657 2.656v6.375z" fill="url(#paint0_linear)"/><path d="M59.094 111.547h5.313v5.313h-5.313z"/><path d="M59.094 111.547h5.313v5.313h-5.313z"/><path d="M64.406 111.547h-5.312v5.312h5.312v-5.312z" fill="url(#paint1_linear)"/><path d="M69.719 111.547h5.313v5.313h-5.313z"/><path d="M69.719 111.547h5.313v5.313h-5.313z"/><path d="M75.031 111.547H69.72v5.312h5.312v-5.312z" fill="url(#paint2_linear)"/><path d="M80.344 111.547h5.313v5.313h-5.313z"/><path d="M80.344 111.547h5.313v5.313h-5.313z"/><path d="M85.656 111.547h-5.312v5.312h5.312v-5.312z" fill="url(#paint3_linear)"/><path d="M90.969 111.547h5.313v5.313h-5.313z"/><path d="M90.969 111.547h5.313v5.313h-5.313z"/><path d="M96.281 111.547H90.97v5.312h5.312v-5.312z" fill="url(#paint4_linear)"/><path d="M101.594 111.547h5.313v5.313h-5.313z"/><path d="M101.594 111.547h5.313v5.313h-5.313z"/><path d="M106.906 111.547h-5.312v5.312h5.312v-5.312z" fill="url(#paint5_linear)"/><path d="M59.094 122.172h5.313v5.313h-5.313z"/><path d="M59.094 122.172h5.313v5.313h-5.313z"/><path d="M64.406 122.172h-5.312v5.312h5.312v-5.312z" fill="url(#paint6_linear)"/><path d="M69.719 122.172h5.313v5.313h-5.313z"/><path d="M69.719 122.172h5.313v5.313h-5.313z"/><path d="M75.031 122.172H69.72v5.312h5.312v-5.312z" fill="url(#paint7_linear)"/><path d="M80.344 122.172h5.313v5.313h-5.313z"/><path d="M80.344 122.172h5.313v5.313h-5.313z"/><path d="M85.656 122.172h-5.312v5.312h5.312v-5.312z" fill="url(#paint8_linear)"/><path d="M90.969 122.172h5.313v5.313h-5.313z"/><path d="M90.969 122.172h5.313v5.313h-5.313z"/><path d="M96.281 122.172H90.97v5.312h5.312v-5.312z" fill="url(#paint9_linear)"/><path d="M59.094 132.797h5.313v5.313h-5.313z"/><path d="M59.094 132.797h5.313v5.313h-5.313z"/><path d="M64.406 132.797h-5.312v5.312h5.312v-5.312z" fill="url(#paint10_linear)"/><path d="M69.719 132.797h5.313v5.313h-5.313z"/><path d="M69.719 132.797h5.313v5.313h-5.313z"/><path d="M75.031 132.797H69.72v5.312h5.312v-5.312z" fill="url(#paint11_linear)"/><path d="M80.344 132.797h5.313v5.313h-5.313z"/><path d="M80.344 132.797h5.313v5.313h-5.313z"/><path d="M85.656 132.797h-5.312v5.312h5.312v-5.312z" fill="url(#paint12_linear)"/><path d="M90.969 132.797h5.313v5.313h-5.313z"/><path d="M90.969 132.797h5.313v5.313h-5.313z"/><path d="M96.281 132.797H90.97v5.312h5.312v-5.312z" fill="url(#paint13_linear)"/><path d="M101.594 122.172h5.313v5.313h-5.313z"/><path d="M101.594 122.172h5.313v5.313h-5.313z"/><path d="M106.906 122.172h-5.312v5.312h5.312v-5.312z" fill="url(#paint14_linear)"/><defs><linearGradient id="paint0_linear" x1="117" y1="81" x2="41.32" y2="91.026" gradientUnits="userSpaceOnUse"><stop stop-color="#6AA5F4"/><stop offset="1" stop-color="#2B7FEE"/></linearGradient><linearGradient id="paint1_linear" x1="64.406" y1="111.547" x2="58.494" y2="112.33" gradientUnits="userSpaceOnUse"><stop stop-color="#6AA5F4"/><stop offset="1" stop-color="#2B7FEE"/></linearGradient><linearGradient id="paint2_linear" x1="75.031" y1="111.547" x2="69.119" y2="112.33" gradientUnits="userSpaceOnUse"><stop stop-color="#6AA5F4"/><stop offset="1" stop-color="#2B7FEE"/></linearGradient><linearGradient id="paint3_linear" x1="85.656" y1="111.547" x2="79.744" y2="112.33" gradientUnits="userSpaceOnUse"><stop stop-color="#6AA5F4"/><stop offset="1" stop-color="#2B7FEE"/></linearGradient><linearGradient id="paint4_linear" x1="96.281" y1="111.547" x2="90.369" y2="112.33" gradientUnits="userSpaceOnUse"><stop stop-color="#6AA5F4"/><stop offset="1" stop-color="#2B7FEE"/></linearGradient><linearGradient id="paint5_linear" x1="106.906" y1="111.547" x2="100.994" y2="112.33" gradientUnits="userSpaceOnUse"><stop stop-color="#6AA5F4"/><stop offset="1" stop-color="#2B7FEE"/></linearGradient><linearGradient id="paint6_linear" x1="64.406" y1="122.172" x2="58.494" y2="122.955" gradientUnits="userSpaceOnUse"><stop stop-color="#6AA5F4"/><stop offset="1" stop-color="#2B7FEE"/></linearGradient><linearGradient id="paint7_linear" x1="75.031" y1="122.172" x2="69.119" y2="122.955" gradientUnits="userSpaceOnUse"><stop stop-color="#6AA5F4"/><stop offset="1" stop-color="#2B7FEE"/></linearGradient><linearGradient id="paint8_linear" x1="85.656" y1="122.172" x2="79.744" y2="122.955" gradientUnits="userSpaceOnUse"><stop stop-color="#6AA5F4"/><stop offset="1" stop-color="#2B7FEE"/></linearGradient><linearGradient id="paint9_linear" x1="96.281" y1="122.172" x2="90.369" y2="122.955" gradientUnits="userSpaceOnUse"><stop stop-color="#6AA5F4"/><stop offset="1" stop-color="#2B7FEE"/></linearGradient><linearGradient id="paint10_linear" x1="64.406" y1="132.797" x2="58.494" y2="133.58" gradientUnits="userSpaceOnUse"><stop stop-color="#6AA5F4"/><stop offset="1" stop-color="#2B7FEE"/></linearGradient><linearGradient id="paint11_linear" x1="75.031" y1="132.797" x2="69.119" y2="133.58" gradientUnits="userSpaceOnUse"><stop stop-color="#6AA5F4"/><stop offset="1" stop-color="#2B7FEE"/></linearGradient><linearGradient id="paint12_linear" x1="85.656" y1="132.797" x2="79.744" y2="133.58" gradientUnits="userSpaceOnUse"><stop stop-color="#6AA5F4"/><stop offset="1" stop-color="#2B7FEE"/></linearGradient><linearGradient id="paint13_linear" x1="96.281" y1="132.797" x2="90.369" y2="133.58" gradientUnits="userSpaceOnUse"><stop stop-color="#6AA5F4"/><stop offset="1" stop-color="#2B7FEE"/></linearGradient><linearGradient id="paint14_linear" x1="106.906" y1="122.172" x2="100.994" y2="122.955" gradientUnits="userSpaceOnUse"><stop stop-color="#6AA5F4"/><stop offset="1" stop-color="#2B7FEE"/></linearGradient></defs></svg>