<svg width="38" height="32" fill="none" xmlns="http://www.w3.org/2000/svg"><path d="M0 0h38v32H0z"/><path d="M0 0h38v32H0z"/><path d="M22.931 5.492a6.91 6.91 0 0 1 3.214 5.134 5.54 5.54 0 0 0 2.355.527 5.575 5.575 0 0 0 5.573-5.576A5.575 5.575 0 0 0 28.5 0a5.574 5.574 0 0 0-5.569 5.492zm-3.65 11.419a5.575 5.575 0 0 0 5.572-5.577 5.575 5.575 0 0 0-5.573-5.576 5.576 5.576 0 0 0-5.574 5.577 5.576 5.576 0 0 0 5.574 5.576zm2.363.38h-4.729c-3.934 0-7.135 3.204-7.135 7.141v5.787l.014.09.399.125C13.948 31.608 17.21 32 19.895 32c5.244 0 8.284-1.496 8.471-1.592l.373-.188h.04v-5.788c.001-3.937-3.2-7.141-7.135-7.141zm9.22-5.757h-4.692a6.874 6.874 0 0 1-2.12 4.787c3.498 1.04 6.057 4.286 6.057 8.12v1.783c4.633-.17 7.303-1.484 7.479-1.572l.372-.19H38v-5.788c0-3.937-3.201-7.14-7.135-7.14zm-21.363-.38c1.09 0 2.105-.318 2.964-.86a6.903 6.903 0 0 1 2.593-4.403c.005-.104.015-.207.015-.313A5.575 5.575 0 0 0 9.501.001a5.574 5.574 0 0 0-5.573 5.577 5.574 5.574 0 0 0 5.573 5.576zm5.005 5.167a6.88 6.88 0 0 1-2.118-4.76c-.174-.013-.346-.027-.524-.027H7.136C3.2 11.534 0 14.737 0 18.674v5.788l.015.09.398.125c3.012.94 5.7 1.375 8.036 1.511v-1.747c0-3.834 2.559-7.078 6.057-8.12z" fill="#2F80ED"/></svg>