<svg width="182" height="230" fill="none" xmlns="http://www.w3.org/2000/svg"><path d="M0 1h181v228H0z"/><path d="M75.776 37.669a13.5 13.5 0 0 1 13.555 0l56.493 32.792a13.5 13.5 0 0 1 6.723 11.676v65.726a13.5 13.5 0 0 1-6.723 11.676l-56.493 32.793a13.503 13.503 0 0 1-13.555 0l-56.493-32.793a13.5 13.5 0 0 1-6.723-11.676V82.137a13.5 13.5 0 0 1 6.723-11.676L75.776 37.67z" stroke="#E1EEFF" stroke-width="3"/><path d="M83 1l90.542 52.662A15 15 0 0 1 181 66.628v96.744a15 15 0 0 1-7.458 12.966L83 229" stroke="#E1EEFF" stroke-width="2"/><path d="M42 77h81v75H42z"/><path d="M42 77h81v75H42z"/><path d="M42 77h81v75H42z"/><path d="M107.876 96.588a23.436 23.436 0 0 0-7.312-13.431A23.376 23.376 0 0 0 84.74 77a23.36 23.36 0 0 0-12.725 3.754 23.381 23.381 0 0 0-7.612 8.026c-.8-.15-1.633-.234-2.465-.234-7.08 0-12.842 5.773-12.842 12.864 0 .918.1 1.802.266 2.67-4.58 3.337-7.362 8.71-7.362 14.433 0 4.622 1.716 9.11 4.847 12.664 3.215 3.637 7.462 5.79 11.993 6.04h14.457a2.241 2.241 0 0 0 2.249-2.253c0-1.251-1-2.252-2.249-2.252H59.04c-6.812-.417-12.542-6.908-12.542-14.216 0-4.722 2.532-9.127 6.613-11.513.95-.55 1.349-1.702.983-2.736a8.187 8.187 0 0 1-.5-2.87c0-4.605 3.747-8.36 8.345-8.36a8.19 8.19 0 0 1 2.848.501c1.1.4 2.315-.1 2.815-1.15 3.115-6.625 9.844-10.896 17.156-10.896a18.88 18.88 0 0 1 18.872 17.152 2.248 2.248 0 0 0 1.865 2.002c7.412 1.268 13.009 8.126 13.009 15.951 0 8.293-6.513 15.501-14.541 16.118H91.686a2.241 2.241 0 0 0-2.249 2.253c0 1.251 1 2.252 2.249 2.252h12.526c5.08-.367 9.827-2.703 13.358-6.607a20.796 20.796 0 0 0 5.43-14.016c-.017-9.36-6.396-17.686-15.124-19.989z" fill="url(#paint0_linear)"/><path d="M96 120.648a2.247 2.247 0 0 0 0-3.186l-11.91-11.93a2.273 2.273 0 0 0-1.582-.668c-.583 0-1.166.234-1.582.668l-11.91 11.93a2.247 2.247 0 0 0 0 3.186 2.26 2.26 0 0 0 1.583.668 2.19 2.19 0 0 0 1.582-.668l8.079-8.092v37.191A2.24 2.24 0 0 0 82.508 152a2.241 2.241 0 0 0 2.249-2.253v-37.191l8.078 8.092a2.218 2.218 0 0 0 3.165 0z" fill="url(#paint1_linear)"/><defs><linearGradient id="paint0_linear" x1="123" y1="77" x2="34.093" y2="92.843" gradientUnits="userSpaceOnUse"><stop stop-color="#6AA5F4"/><stop offset="1" stop-color="#2B7FEE"/></linearGradient><linearGradient id="paint1_linear" x1="96.662" y1="104.864" x2="64.806" y2="107.399" gradientUnits="userSpaceOnUse"><stop stop-color="#6AA5F4"/><stop offset="1" stop-color="#2B7FEE"/></linearGradient></defs></svg>