<svg width="25" height="32" fill="none" xmlns="http://www.w3.org/2000/svg"><path d="M0 0h25v32H0z"/><path d="M0 0h25v32H0z"/><path d="M19.011 23.431c-.008.006-.018.01-.026.017a.328.328 0 0 0-.109.15c-.202.568-.72.935-1.323.935a1.388 1.388 0 0 1-1.323-.936.333.333 0 0 0-.11-.15c-.006-.006-.014-.01-.02-.014a.35.35 0 0 0-.123-.052l-.019-.002v4.133l1.596-1.6 1.596 1.6v-4.133l-.022.003a.376.376 0 0 0-.117.05z" fill="#2F80ED"/><path d="M17.241 0H0v32h25V7.78L17.241 0zm-3.943 12.267h3.723a.532.532 0 0 1 0 1.066h-3.723a.532.532 0 0 1 0-1.066zm-2.128.533a.539.539 0 0 1-.532.533.558.558 0 0 1-.377-.154.538.538 0 0 1 0-.752.55.55 0 0 1 .755-.006.56.56 0 0 1 .154.379zM5.32 8h4.786a.532.532 0 0 1 0 1.067H5.32A.532.532 0 0 1 5.32 8zm0 4.267h2.659a.532.532 0 0 1 0 1.066h-2.66a.532.532 0 0 1 0-1.066zm-.379 4.421a.556.556 0 0 1 .756 0 .538.538 0 0 1 0 .757.559.559 0 0 1-.378.155.558.558 0 0 1-.378-.155.559.559 0 0 1-.154-.378c0-.145.053-.278.154-.379zm1.339 8.787c-.017.49-.556.673-.908.377l-1.493-1.254c-.526-.442.23-1.193.752-.754l.66.554c.143-1.206.535-2.368 1.7-2.977.608-.316 1.146.604.537.921-1.154.604-1.21 1.978-1.248 3.133zm4.76-.803c-.183-.329-.989.3-1.205.382a1.833 1.833 0 0 1-.898.12c-.622-.071-1.147-.474-1.42-1.03-.302-.614.615-1.155.919-.538.508 1.032 1.367.15 2.093-.057a1.251 1.251 0 0 1 1.43.584c.335.6-.584 1.139-.919.539zm.662-7.072H7.98a.532.532 0 0 1 0-1.067h3.723c.294 0 .532.239.532.534a.532.532 0 0 1-.532.533zm9.705 3.46a.339.339 0 0 0-.193.468c.208.438.18.944-.077 1.35-.21.333-.552.55-.924.624v6.585l-2.66-2.667-2.66 2.667v-6.585a1.418 1.418 0 0 1-.923-.624 1.4 1.4 0 0 1-.077-1.35.342.342 0 0 0-.194-.468 1.391 1.391 0 0 1-.933-1.327c0-.603.366-1.124.934-1.326a.338.338 0 0 0 .193-.468 1.396 1.396 0 0 1 .077-1.35 1.423 1.423 0 0 1 1.794-.525.335.335 0 0 0 .466-.194c.202-.57.721-.937 1.323-.937s1.121.367 1.323.936a.335.335 0 0 0 .467.194 1.426 1.426 0 0 1 1.794.525 1.4 1.4 0 0 1 .077 1.35.341.341 0 0 0 .193.468c.567.203.933.724.933 1.327 0 .604-.366 1.125-.933 1.327zm-2.258-8.26c0-.14.058-.278.154-.379a.556.556 0 0 1 .755 0 .56.56 0 0 1 .155.379.562.562 0 0 1-.155.379.559.559 0 0 1-.377.154.558.558 0 0 1-.378-.154.56.56 0 0 1-.154-.379zM15.957 8V.533L23.404 8h-7.447z" fill="#2F80ED"/><path d="M21.05 19.412a1.412 1.412 0 0 1-.798-1.931.32.32 0 0 0-.015-.324.336.336 0 0 0-.437-.13 1.407 1.407 0 0 1-1.926-.8.326.326 0 0 0-.321-.227.326.326 0 0 0-.32.227 1.407 1.407 0 0 1-1.926.8.337.337 0 0 0-.438.13.32.32 0 0 0-.015.323c.17.36.18.777.028 1.145a1.407 1.407 0 0 1-.826.787.326.326 0 0 0-.226.321c0 .073.021.25.226.322a1.412 1.412 0 0 1 .798 1.931.32.32 0 0 0 .015.323.333.333 0 0 0 .357.153l.123-.038c.148-.074.35-.12.56-.12.594 0 1.125.376 1.324.937a.325.325 0 0 0 .32.226.326.326 0 0 0 .32-.227 1.407 1.407 0 0 1 1.626-.903c.03.006.058.02.087.029.062.018.125.034.184.061l.117.037a.334.334 0 0 0 .35-.155.32.32 0 0 0 .016-.323 1.407 1.407 0 0 1 .798-1.932.326.326 0 0 0 .225-.32.327.327 0 0 0-.226-.322z" fill="#2F80ED"/></svg>