<svg width="182" height="230" fill="none" xmlns="http://www.w3.org/2000/svg"><path d="M0 1h181v228H0z"/><path d="M75.776 37.669a13.5 13.5 0 0 1 13.555 0l56.493 32.792a13.5 13.5 0 0 1 6.723 11.676v65.726a13.5 13.5 0 0 1-6.723 11.676l-56.493 32.793a13.503 13.503 0 0 1-13.555 0l-56.493-32.793a13.5 13.5 0 0 1-6.723-11.676V82.137a13.5 13.5 0 0 1 6.723-11.676L75.776 37.67z" stroke="#E1EEFF" stroke-width="3"/><path d="M83 1l90.542 52.662A15 15 0 0 1 181 66.628v96.744a15 15 0 0 1-7.458 12.966L83 229" stroke="#E1EEFF" stroke-width="2"/><path d="M37 77h83v77H37z"/><path d="M37 77h83v77H37z"/><path d="M83.016 77c-12.503 0-23.568 6.186-30.266 15.626 1.386.896 2.737 2.125 4.044 3.705 4.997-7.405 13.076-12.6 22.424-13.717l3.797 6.368 3.797-6.368c14.369 1.716 25.791 13.036 27.524 27.277l-6.427 3.764 6.427 3.764c-1.158 9.521-6.66 17.718-14.466 22.631a9.43 9.43 0 0 1 .827 3.456 9.027 9.027 0 0 1-.235 2.46C112.081 139.778 120 127.618 120 113.655 120 93.443 103.409 77 83.016 77zm9.438 60.368c-8.526-6.791-10.91-3.453-14.779.381-2.7 2.677-9.535-2.914-15.436-8.763-5.902-5.85-11.542-12.623-8.842-15.3 3.869-3.834 7.236-6.198.382-14.645-6.852-8.451-11.419-1.963-15.166 1.751-4.327 4.286-.228 20.26 15.7 36.049 15.931 15.788 32.048 19.847 36.372 15.562 3.746-3.714 10.295-8.241 1.769-15.035zm-25.966-17.976c0-7.511 8.872-8.849 8.872-11.78 0-1.423-1.149-2.02-2.211-2.02-1.953 0-3.043 2.162-3.043 2.162l-3.732-2.475s1.895-4.382 7.235-4.382c3.358 0 7.004 1.907 7.004 6.231 0 6.346-8.268 7.57-8.412 10.188h8.729v4.267H66.718c-.144-.796-.23-1.507-.23-2.191zm16.54-5.747l7.925-12.407h6.144v11.297h2.44v4.125h-2.44v4.924H92.13v-4.924h-9.101v-3.015zm9.101-1.11v-4.553c0-1.11.173-2.277.173-2.277h-.058s-.43 1.253-1.004 2.106l-3.1 4.667v.057h3.99z" fill="url(#paint0_linear)"/><defs><linearGradient id="paint0_linear" x1="120" y1="77" x2="27.883" y2="90.154" gradientUnits="userSpaceOnUse"><stop stop-color="#6AA5F4"/><stop offset="1" stop-color="#2B7FEE"/></linearGradient></defs></svg>