<svg width="33" height="32" fill="none" xmlns="http://www.w3.org/2000/svg"><path d="M0 0h33v32H0z"/><path d="M0 0h33v32H0z"/><path d="M19.487 0a13.61 13.61 0 0 0-9.004 3.38c.53.826.832 1.789.86 2.782v.006c.013.448.04.895.08 1.342a10.025 10.025 0 0 1 8.064-4.037c5.498 0 9.971 4.386 9.971 9.777 0 5.334-4.38 9.681-9.798 9.772.495.406 1.006.792 1.532 1.155l.003.002.002.001a5.566 5.566 0 0 1 1.71 1.889C28.707 24.58 33 19.398 33 13.249 33 5.945 26.939 0 19.487 0zm-.331 27.018a61.423 61.423 0 0 1-3.885-3.265c-.406-.368-.902-.598-1.41-.598-.39 0-.775.122-1.091.377l-.98.809A29.007 29.007 0 0 1 6 13.757l1.23-.353c.903-.271 1.328-1.217 1.196-2.165-.289-2.063-.445-3.088-.624-4.98-.091-.97-.75-1.811-1.692-1.862a4.642 4.642 0 0 0-.44-.02c-3.508 0-6.562 3.986-5.432 8.862A34.319 34.319 0 0 0 9.04 29.334C10.823 31.169 13.007 32 14.98 32c2.08 0 3.927-.924 4.82-2.57.48-.797.132-1.805-.644-2.412z" fill="#2F80ED"/><path d="M15.423 13.495c-.934.85-1.545 1.518-1.868 2.042a4.12 4.12 0 0 0-.494 1.162.616.616 0 0 0 .119.538.643.643 0 0 0 .505.241h4.457c.547 0 .99-.436.99-.971a.982.982 0 0 0-.99-.971H16.13l.05-.057c.132-.145.455-.449.958-.901.528-.476.885-.832 1.09-1.088.31-.387.54-.764.684-1.12.147-.365.222-.753.222-1.155 0-.72-.266-1.332-.791-1.818-.521-.482-1.239-.726-2.133-.726-.813 0-1.503.209-2.052.62-.33.249-.586.593-.757 1.023a.993.993 0 0 0 .08.89 1.032 1.032 0 0 0 .877.48c.446 0 .844-.277.99-.691a.81.81 0 0 1 .18-.307c.156-.155.366-.231.641-.231.28 0 .49.071.64.218.15.147.223.362.223.656 0 .273-.1.557-.296.846-.105.151-.42.505-1.312 1.32zm8.924-4.824h-.744a.645.645 0 0 0-.53.274l-3.444 4.943a.85.85 0 0 0-.153.488v.8c0 .348.288.63.641.63h2.827v.67c0 .553.459 1.002 1.023 1.002.563 0 1.022-.45 1.022-1.002v-.67h.102c.524 0 .95-.418.95-.932a.942.942 0 0 0-.95-.931h-.102V9.3a.636.636 0 0 0-.642-.629zm-1.403 5.272h-1.268l1.268-1.85v1.85z" fill="#2F80ED"/></svg>