<svg width="182" height="230" fill="none" xmlns="http://www.w3.org/2000/svg"><path d="M0 1h181v228H0z"/><path d="M75.776 37.669a13.5 13.5 0 0 1 13.555 0l56.493 32.792a13.5 13.5 0 0 1 6.723 11.676v65.726a13.5 13.5 0 0 1-6.723 11.676l-56.493 32.793a13.503 13.503 0 0 1-13.555 0l-56.493-32.793a13.5 13.5 0 0 1-6.723-11.676V82.137a13.5 13.5 0 0 1 6.723-11.676L75.776 37.67z" stroke="#E1EEFF" stroke-width="3"/><path d="M83 1l90.542 52.662A15 15 0 0 1 181 66.628v96.744a15 15 0 0 1-7.458 12.966L83 229" stroke="#E1EEFF" stroke-width="2"/><path d="M28 84h110v62H28z"/><path d="M28 84h110v62H28z"/><path d="M28 84h110v62H28z"/><path d="M104.477 106.93v8.475c0 1.596.629 3.079 1.707 4.203v2.878c0 1.236.987 2.225 2.222 2.225a2.215 2.215 0 0 0 2.223-2.225v-3.912c0-.742-.381-1.439-.988-1.843a1.575 1.575 0 0 1-.718-1.326v-8.475c0-2.968 2.425-5.396 5.389-5.396h1.818c2.964 0 5.389 2.428 5.389 5.396v8.475c0 .539-.269 1.034-.718 1.326a2.175 2.175 0 0 0-.988 1.843v8.16c0 .99.584 1.911 1.459 2.338 1.056.517 6.534 3.282 11.609 7.441.426.36.673.877.673 1.462v3.574h-15.582a2.215 2.215 0 0 0-2.223 2.225c0 1.237.988 2.226 2.223 2.226h17.805a2.215 2.215 0 0 0 2.223-2.226v-5.799a6.287 6.287 0 0 0-2.312-4.901c-4.469-3.664-9.251-6.34-11.429-7.486v-6.002a6.057 6.057 0 0 0 1.706-4.204v-8.475c0-5.44-4.423-9.846-9.835-9.846h-1.818c-5.412.022-9.835 4.428-9.835 9.869zM30.223 146h18.075a2.215 2.215 0 0 0 2.223-2.225 2.215 2.215 0 0 0-2.223-2.226H32.446v-3.574c0-.562.247-1.102.673-1.461 5.053-4.159 10.554-6.947 11.609-7.441a2.59 2.59 0 0 0 1.46-2.338v-8.161c0-.741-.382-1.438-.989-1.843a1.576 1.576 0 0 1-.718-1.326v-8.475c0-2.968 2.425-5.395 5.389-5.395h1.819c2.963 0 5.388 2.427 5.388 5.395v8.475c0 .539-.27 1.034-.718 1.326a2.178 2.178 0 0 0-.988 1.843v4.092c0 1.236.988 2.225 2.223 2.225a2.215 2.215 0 0 0 2.223-2.225v-3.057a6.054 6.054 0 0 0 1.706-4.204v-8.475c0-5.44-4.423-9.847-9.835-9.847H49.87c-5.434 0-9.835 4.429-9.835 9.847v8.475c0 1.596.629 3.08 1.707 4.204v6.002c-2.2 1.146-6.961 3.799-11.43 7.486a6.352 6.352 0 0 0-2.312 4.9v5.778c0 1.236.988 2.225 2.223 2.225z" fill="#E1EEFF"/><path d="M96.349 107.042V96.094c0-6.676-5.412-12.094-12.08-12.094H81.91c-6.669 0-12.08 5.418-12.08 12.094v10.948c0 1.978.808 3.822 2.2 5.17v8.43c-2.627 1.349-9.049 4.856-15.044 9.802a7.482 7.482 0 0 0-2.739 5.822v7.508c0 1.237.988 2.226 2.223 2.226h53.215a2.215 2.215 0 0 0 2.223-2.226v-7.508a7.48 7.48 0 0 0-2.74-5.822c-5.995-4.923-12.416-8.453-15.043-9.802v-8.43a7.072 7.072 0 0 0 2.222-5.17zm10.014 26.841a3.064 3.064 0 0 1 1.122 2.383v5.283H58.716v-5.283c0-.922.404-1.798 1.123-2.383 6.601-5.44 13.764-9.059 15.134-9.734a2.743 2.743 0 0 0 1.526-2.427v-10.566a2.23 2.23 0 0 0-.987-1.843 2.708 2.708 0 0 1-1.213-2.248V96.117c0-4.227 3.435-7.644 7.634-7.644h2.358c4.221 0 7.634 3.44 7.634 7.644v10.948a2.68 2.68 0 0 1-1.212 2.248 2.176 2.176 0 0 0-.988 1.843v10.566c0 1.034.606 1.978 1.526 2.427 1.348.675 8.51 4.317 15.112 9.734z" fill="url(#paint0_linear)"/><defs><linearGradient id="paint0_linear" x1="111.909" y1="84" x2="47.586" y2="91.925" gradientUnits="userSpaceOnUse"><stop stop-color="#6AA5F4"/><stop offset="1" stop-color="#2B7FEE"/></linearGradient></defs></svg>